<svg width="207" height="207" viewBox="0 0 207 207" fill="none" xmlns="http://www.w3.org/2000/svg">
<path d="M103.002 206.004C159.888 206.004 206.004 159.888 206.004 103.002C206.004 46.1155 159.888 0 103.002 0C46.1155 0 0 46.1155 0 103.002C0 159.888 46.1155 206.004 103.002 206.004Z" fill="white"/>
<path d="M46.6915 82.0178C45.4482 86.5502 44.8093 91.2266 44.7913 95.926V96.9016C44.8308 102.581 44.1929 108.245 42.8912 113.774C40.2689 112.844 37.5706 110.962 34.9939 107.701C28.214 99.1222 30.4677 85.3658 38.8285 82.1278C41.9905 80.9056 44.6355 81.1637 46.7029 81.9646C46.6974 81.9819 46.6936 81.9997 46.6915 82.0178V82.0178Z" fill="#A16552"/>
<path d="M46.6915 82.0178C45.4482 86.5502 44.8093 91.2266 44.7913 95.926V96.9016C44.8308 102.581 44.1929 108.245 42.8912 113.774C40.2689 112.844 37.5706 110.962 34.9939 107.701C28.214 99.1222 30.4677 85.3658 38.8285 82.1278C41.9905 80.9056 44.6355 81.1637 46.7029 81.9646C46.6974 81.9819 46.6936 81.9997 46.6915 82.0178V82.0178Z" fill="#F5DCB4"/>
<path d="M171.612 107.705C169.039 110.958 166.337 112.841 163.715 113.778C162.415 108.25 161.777 102.588 161.815 96.9094V95.9338C161.797 91.2156 161.152 86.5207 159.896 81.9724C161.963 81.1715 164.608 80.9134 167.77 82.1357C176.131 85.366 178.388 99.1224 171.612 107.705Z" fill="#A16552"/>
<path d="M171.612 107.705C169.039 110.958 166.337 112.841 163.715 113.778C162.415 108.25 161.777 102.588 161.815 96.9094V95.9338C161.797 91.2156 161.152 86.5207 159.896 81.9724C161.963 81.1715 164.608 80.9134 167.77 82.1357C176.131 85.366 178.388 99.1224 171.612 107.705Z" fill="#F5DCB4"/>
<path d="M145.56 113.95C144.328 115.85 143.539 118.002 143.251 120.248C142.963 122.494 143.183 124.775 143.896 126.924C145.009 130.196 146.005 133.901 146.005 136.657C145.997 156.821 126.885 173.143 103.3 173.143C79.7148 173.143 60.5912 156.821 60.5912 136.657C60.5912 133.901 61.5869 130.204 62.7005 126.924C63.4138 124.776 63.6349 122.495 63.3474 120.25C63.06 118.005 62.2713 115.853 61.0397 113.954C58.6365 110.196 57.3551 105.833 57.3457 101.374C57.3457 87.9932 68.7469 77.1407 82.8273 77.1407C87.3728 77.1295 91.8438 78.2933 95.8056 80.5191C98.0896 81.8169 100.672 82.4993 103.3 82.4993C105.928 82.4993 108.51 81.8169 110.794 80.5191C114.755 78.294 119.225 77.1314 123.769 77.1445C137.83 77.1445 149.254 87.997 149.254 101.378C149.258 104.72 148.536 108.024 147.138 111.061C146.68 112.06 146.153 113.025 145.56 113.95V113.95Z" fill="#A16552"/>
<path d="M145.56 113.95C144.328 115.85 143.539 118.002 143.251 120.248C142.963 122.494 143.183 124.775 143.896 126.924C145.009 130.196 146.005 133.901 146.005 136.657C145.997 156.821 126.885 173.143 103.3 173.143C79.7148 173.143 60.5912 156.821 60.5912 136.657C60.5912 133.901 61.5869 130.204 62.7005 126.924C63.4138 124.776 63.6349 122.495 63.3474 120.25C63.06 118.005 62.2713 115.853 61.0397 113.954C58.6365 110.196 57.3551 105.833 57.3457 101.374C57.3457 87.9932 68.7469 77.1407 82.8273 77.1407C87.3728 77.1295 91.8438 78.2933 95.8056 80.5191C98.0896 81.8169 100.672 82.4993 103.3 82.4993C105.928 82.4993 108.51 81.8169 110.794 80.5191C114.755 78.294 119.225 77.1314 123.769 77.1445C137.83 77.1445 149.254 87.997 149.254 101.378C149.258 104.72 148.536 108.024 147.138 111.061C146.68 112.06 146.153 113.025 145.56 113.95V113.95Z" fill="#F5DCB4"/>
<path d="M81.5477 141.166C81.1984 141.165 80.8529 141.239 80.5345 141.382C80.216 141.526 79.9319 141.736 79.7012 141.998C79.4706 142.26 79.2986 142.568 79.1969 142.902C79.0953 143.236 79.0662 143.587 79.1117 143.933C80.6319 154.733 90.8929 163.084 103.301 163.084C115.709 163.084 125.978 154.733 127.491 143.933C127.536 143.588 127.507 143.236 127.406 142.903C127.304 142.569 127.133 142.261 126.902 141.999C126.672 141.737 126.388 141.527 126.07 141.384C125.752 141.24 125.407 141.166 125.058 141.166H81.5477Z" fill="#4E3F3F"/>
<path d="M89.25 159.064C93.4644 161.691 98.3323 163.084 103.3 163.084C108.268 163.084 113.136 161.691 117.35 159.064C115.587 152.968 109.951 154.372 103.289 154.372C96.6266 154.372 91.0134 152.968 89.25 159.064Z" fill="#E6646E"/>
<path d="M170.664 77.6224C165.609 75.6637 161.6 76.6962 158.78 78.3171C158.092 76.2922 157.299 74.3042 156.405 72.3613C155.751 70.9391 155.045 69.5358 154.288 68.1516C146.554 54.0194 133.549 42.29 118.636 37.3325L118.332 29.3079L108.672 35.1005L107.509 34.9714C106.794 34.9069 106.087 34.8576 105.365 34.8272L103.955 28.7537L103.541 27C103.059 27 102.587 27 102.127 27.0531C93.1395 27.782 88.6665 35.9394 87.9672 37.3363C73.0317 42.2938 60.0495 54.027 52.3157 68.1516C51.5557 69.5333 50.8501 70.9365 50.1989 72.3613C49.3058 74.3052 48.5118 76.293 47.8199 78.3171L47.4588 78.1159C44.6618 76.6165 40.7778 75.751 35.9399 77.6224C25.3178 81.7372 22.4523 99.2212 31.0602 110.131C34.5717 114.564 38.2809 116.994 41.8229 118.076C41.7763 118.275 41.732 118.475 41.6898 118.675C41.0494 121.604 40.7271 124.594 40.7283 127.592C40.7283 148.405 56.0971 166.31 78.1166 174.179C83.2864 176.026 88.6486 177.283 94.101 177.926C96.9316 178.261 99.7787 178.439 102.629 178.457H103.306C137.863 178.457 165.875 155.682 165.875 127.592C165.877 124.591 165.555 121.599 164.914 118.668C164.868 118.467 164.826 118.265 164.777 118.068C168.338 116.986 172.032 114.557 175.54 110.119C184.151 99.2212 181.282 81.7334 170.664 77.6224ZM46.6912 82.0181C45.4479 86.5505 44.8089 91.227 44.791 95.9264V96.9019C44.8304 102.582 44.1925 108.246 42.8908 113.775C40.2685 112.845 37.5702 110.962 34.9936 107.701C28.2137 99.1225 30.4673 85.3661 38.8282 82.1282C41.9901 80.9059 44.6351 81.164 46.7026 81.965C46.697 81.9823 46.6932 82.0001 46.6912 82.0181V82.0181ZM147.139 111.061C146.682 112.059 146.155 113.025 145.562 113.949C144.33 115.85 143.541 118.002 143.253 120.248C142.965 122.493 143.185 124.775 143.898 126.924C145.011 130.196 146.007 133.901 146.007 136.657C145.999 156.821 126.887 173.143 103.302 173.143C79.7165 173.143 60.593 156.821 60.593 136.657C60.593 133.901 61.5887 130.204 62.7022 126.924C63.4155 124.776 63.6366 122.495 63.3492 120.25C63.0617 118.005 62.273 115.853 61.0414 113.953C58.6382 110.196 57.3569 105.832 57.3475 101.373C57.3475 87.9929 68.7486 77.1403 82.8291 77.1403C87.3746 77.1291 91.8456 78.2929 95.8074 80.5187C98.0914 81.8166 100.674 82.499 103.302 82.499C105.93 82.499 108.512 81.8166 110.796 80.5187C114.757 78.2936 119.227 77.131 123.771 77.1441C137.832 77.1441 149.256 87.9967 149.256 101.377C149.26 104.72 148.538 108.024 147.139 111.061V111.061ZM171.614 107.705C169.041 110.958 166.339 112.841 163.717 113.779C162.416 108.251 161.779 102.588 161.816 96.9095V95.9339C161.799 91.2158 161.154 86.5208 159.897 81.9725C161.965 81.1716 164.61 80.9135 167.772 82.1358C176.132 85.3661 178.39 99.1225 171.614 107.705V107.705Z" fill="#A16552"/>
<path d="M92.6953 122.932L92.6448 123.042C92.1878 124.042 92.6284 125.222 93.6288 125.678L98.4821 127.892C99.4825 128.349 100.664 127.909 101.121 126.91L101.171 126.799C101.628 125.8 101.188 124.62 100.187 124.163L95.3341 121.949C94.3337 121.493 93.1523 121.933 92.6953 122.932Z" fill="#4E3F3F"/>
<path d="M105.431 126.805L105.481 126.915C105.938 127.915 107.12 128.355 108.12 127.898L112.973 125.684C113.974 125.227 114.414 124.047 113.957 123.048L113.907 122.938C113.45 121.938 112.268 121.498 111.268 121.955L106.415 124.169C105.414 124.626 104.974 125.806 105.431 126.805Z" fill="#4E3F3F"/>
<path d="M81.3577 111.053C77.3179 111.053 74.042 107.955 74.042 104.129V101.821C74.042 97.9987 77.3179 94.8975 81.3577 94.8975C85.3976 94.8975 88.6697 97.9987 88.6697 101.821V104.129C88.6697 107.955 85.3976 111.053 81.3577 111.053Z" fill="#4E3F3F"/>
<path d="M81.3574 94.8975V102.975C81.4003 103.915 81.8043 104.802 82.4852 105.452C83.1661 106.101 84.0716 106.464 85.0134 106.464C85.9552 106.464 86.8607 106.101 87.5416 105.452C88.2225 104.802 88.6265 103.915 88.6694 102.975V101.836C88.6694 97.9835 85.3972 94.8975 81.3574 94.8975Z" fill="#5D5360"/>
<path d="M81.3588 101.822C82.7063 101.822 83.7986 100.789 83.7986 99.514C83.7986 98.2393 82.7063 97.2061 81.3588 97.2061C80.0113 97.2061 78.9189 98.2393 78.9189 99.514C78.9189 100.789 80.0113 101.822 81.3588 101.822Z" fill="white"/>
<path d="M125.246 111.053C121.206 111.053 117.934 107.955 117.934 104.129V101.821C117.934 97.9987 121.206 94.8975 125.246 94.8975C129.285 94.8975 132.561 97.9987 132.561 101.821V104.129C132.561 107.955 129.278 111.053 125.246 111.053Z" fill="#4E3F3F"/>
<path d="M125.245 94.8975V102.975C125.297 103.909 125.705 104.787 126.386 105.43C127.066 106.072 127.967 106.43 128.903 106.43C129.839 106.43 130.74 106.072 131.42 105.43C132.101 104.787 132.509 103.909 132.561 102.975V101.836C132.561 97.9835 129.277 94.8975 125.245 94.8975Z" fill="#5D5360"/>
<path d="M125.244 101.822C126.591 101.822 127.683 100.789 127.683 99.514C127.683 98.2393 126.591 97.2061 125.244 97.2061C123.896 97.2061 122.804 98.2393 122.804 99.514C122.804 100.789 123.896 101.822 125.244 101.822Z" fill="white"/>
<path opacity="0.35" d="M103.955 28.7689C102.317 28.6095 98.7337 31.1793 94.4545 35.6395C93.3866 36.7517 92.2692 37.9854 91.1291 39.3216C82.7113 49.172 72.9633 64.7049 69.6113 80.644C64.0095 107.405 61.7331 138.456 71.6217 155.678C80.0016 170.269 94.0858 177.918 94.0858 177.918C88.6334 177.275 83.2712 176.018 78.1014 174.172C56.0933 166.31 40.7283 148.397 40.7283 127.592C40.7278 124.591 41.0514 121.599 41.6936 118.668C41.7355 118.467 41.7811 118.265 41.8267 118.068C38.2657 116.963 34.5717 114.549 31.0602 110.131C22.4523 99.2364 25.3178 81.7524 35.9399 77.6376C40.7778 75.7662 44.6808 76.6317 47.4588 78.1311L47.8199 78.3322C48.5118 76.3082 49.3058 74.3204 50.1989 72.3764C50.8526 70.9542 51.5582 69.551 52.3157 68.1668C60.0495 54.027 73.0317 42.2938 87.9672 37.3363C88.6665 35.9394 93.1395 27.782 102.127 27.0531C102.587 27 103.055 27 103.541 27L103.955 28.7689Z" fill="#4E3F3F"/>
</svg>
