<svg width="207" height="207" viewBox="0 0 207 207" fill="none" xmlns="http://www.w3.org/2000/svg">
<path d="M103.002 206.004C159.888 206.004 206.004 159.888 206.004 103.002C206.004 46.1155 159.888 0 103.002 0C46.1155 0 0 46.1155 0 103.002C0 159.888 46.1155 206.004 103.002 206.004Z" fill="white"/>
<path d="M103.936 28C104.224 29.3818 105.441 30.2385 106.261 31.2749C120.292 48.8789 131.465 68.2656 141.229 88.5089C149.752 106.226 157.022 124.529 162.987 143.283C163.589 145.135 164.123 147.014 164.738 148.81C165.025 149.521 165.078 150.306 164.888 151.049C163.37 155.816 161.839 160.583 160.102 166C146.03 124.367 128.156 85.2617 103.54 48.8375C78.9924 85.0956 61.1457 124.27 47.0873 165.806L42 150.98V149.114C42.7658 148.686 42.7111 147.843 42.9163 147.166C49.4228 126.134 57.5386 105.644 67.1903 85.8833C77.2692 65.3083 88.9619 45.7423 103.54 28H103.936Z" fill="url(#paint0_linear_4201_1887)"/>
<path d="M70.1708 164.535L64.3587 151.104C64.2217 150.71 64.1727 150.29 64.2153 149.874C64.2578 149.459 64.3909 149.058 64.6049 148.7C75.5151 122.839 88.1343 97.749 102.377 73.5991C102.719 73.0466 102.924 72.3279 103.853 71.9686C106.589 76.7497 109.433 81.517 112.141 86.3533C123.323 106.461 133.434 127.158 142.432 148.355C142.716 148.922 142.864 149.549 142.864 150.185C142.864 150.821 142.716 151.448 142.432 152.016C140.586 156.024 138.89 160.1 136.962 164.452C126.596 141.473 115.697 119.102 103.539 96.8825C91.4498 118.95 80.5915 141.307 70.1708 164.535Z" fill="url(#paint1_linear_4201_1887)"/>
<path d="M103.651 123.012C106.55 128.719 109.326 134.067 112.061 139.525C113.607 142.579 115.111 145.66 116.643 148.727C116.893 149.061 117.052 149.454 117.102 149.87C117.153 150.285 117.093 150.706 116.93 151.09C114.81 155.236 112.731 159.478 110.461 164.038L103.623 150.524C100.806 154.752 99.4388 159.45 96.7037 163.872C95.0217 160.556 93.6129 157.281 91.7533 154.296C90.9288 153.105 90.4869 151.687 90.4869 150.234C90.4869 148.781 90.9288 147.362 91.7533 146.171C95.5276 139.262 98.9056 132.201 102.448 125.209C102.707 124.56 103.104 123.938 103.651 123.012Z" fill="url(#paint2_linear_4201_1887)"/>
<defs>
<linearGradient id="paint0_linear_4201_1887" x1="103.5" y1="28" x2="103.5" y2="166" gradientUnits="userSpaceOnUse">
<stop stop-color="#01F2E3"/>
<stop offset="1" stop-color="#0197FA"/>
</linearGradient>
<linearGradient id="paint1_linear_4201_1887" x1="103.5" y1="28" x2="103.5" y2="166" gradientUnits="userSpaceOnUse">
<stop stop-color="#01F2E3"/>
<stop offset="1" stop-color="#0197FA"/>
</linearGradient>
<linearGradient id="paint2_linear_4201_1887" x1="103.5" y1="28" x2="103.5" y2="166" gradientUnits="userSpaceOnUse">
<stop stop-color="#01F2E3"/>
<stop offset="1" stop-color="#0197FA"/>
</linearGradient>
</defs>
</svg>
