<svg width="206" height="206" viewBox="0 0 206 206" fill="none" xmlns="http://www.w3.org/2000/svg">
<path fill-rule="evenodd" clip-rule="evenodd" d="M103 0C159.877 0 206 46.1234 206 103C206 159.877 159.877 206 103 206C46.1234 206 0 159.877 0 103C0 46.1234 46.1234 0 103 0Z" fill="white"/>
<path d="M104.545 146.054C71.6058 146.054 44.9082 136.537 44.9082 123.785C44.9082 117.132 52.18 111.137 63.819 106.914C72.9036 112.744 88.1476 115.731 105.431 115.731C122.302 115.731 137.217 112.085 146.384 106.502C157.364 110.684 164.182 116.514 164.182 122.941C164.182 135.713 137.485 146.054 104.545 146.054Z" fill="#1E1E1E"/>
<path d="M104.895 112.867C79.9275 112.867 59.6777 105.039 59.6777 95.3781C59.6777 90.0221 65.9195 85.2223 75.7045 82.0293C82.6879 85.6755 93.1527 88.0033 104.895 88.0033C116.637 88.0033 127.102 85.6755 134.085 82.0293C143.891 85.2429 150.112 90.0221 150.112 95.3781C150.132 105.039 129.883 112.867 104.895 112.867V112.867Z" fill="#1E1E1E"/>
<path d="M104.731 85.0988C85.4285 85.0988 69.7725 78.6304 69.7725 70.6788C69.7725 62.7272 85.4285 56.2588 104.731 56.2588C124.033 56.2588 139.689 62.7272 139.689 70.6788C139.689 78.6304 124.033 85.0988 104.731 85.0988V85.0988Z" fill="#1E1E1E"/>
</svg>
