<svg width="25" height="25" viewBox="0 0 25 25" fill="none" xmlns="http://www.w3.org/2000/svg">
<path d="M12.5 25C19.4034 25 25 19.4034 25 12.5C25 5.59664 19.4034 0 12.5 0C5.59664 0 0 5.59664 0 12.5C0 19.4034 5.59664 25 12.5 25Z" fill="white"/>
<path d="M12.5 5.75C9.04937 5.75 6.25 8.54937 6.25 12V18.25H18.75V12C18.75 8.54937 15.9506 5.75 12.5 5.75Z" fill="#1A1A1A"/>
<path d="M16.4022 15.5456V15.5403C16.4022 15.1266 16.2378 14.7299 15.9453 14.4373C15.6527 14.1448 15.256 13.9805 14.8423 13.9805H14.837C14.4233 13.9805 14.0266 14.1448 13.734 14.4373C13.4415 14.7299 13.2772 15.1266 13.2772 15.5403V15.5456C13.2772 15.9593 13.4415 16.3561 13.734 16.6486C14.0266 16.9411 14.4233 17.1055 14.837 17.1055H14.8423C15.256 17.1055 15.6527 16.9411 15.9453 16.6486C16.2378 16.3561 16.4022 15.9593 16.4022 15.5456ZM11.7173 15.5456V15.5403C11.7173 15.1266 11.5529 14.7299 11.2604 14.4373C10.9679 14.1448 10.5711 13.9805 10.1574 13.9805H10.1522C9.73845 13.9805 9.34169 14.1448 9.04916 14.4373C8.75663 14.7299 8.59229 15.1266 8.59229 15.5403V15.5456C8.59229 15.9593 8.75663 16.3561 9.04916 16.6486C9.34169 16.9411 9.73845 17.1055 10.1522 17.1055H10.1574C10.5711 17.1055 10.9679 16.9411 11.2604 16.6486C11.5529 16.3561 11.7173 15.9593 11.7173 15.5456Z" fill="white"/>
<path d="M14.8371 16.0355C14.9666 16.0355 15.0909 15.984 15.1825 15.8924C15.2741 15.8008 15.3255 15.6766 15.3255 15.547C15.3255 15.4175 15.2741 15.2933 15.1825 15.2017C15.0909 15.1101 14.9666 15.0586 14.8371 15.0586C14.7075 15.0586 14.5833 15.1101 14.4917 15.2017C14.4001 15.2933 14.3486 15.4175 14.3486 15.547C14.3486 15.6766 14.4001 15.8008 14.4917 15.8924C14.5833 15.984 14.7075 16.0355 14.8371 16.0355Z" fill="#05D690"/>
<path d="M10.152 16.0296C10.2162 16.0296 10.2797 16.017 10.3389 15.9924C10.3982 15.9679 10.452 15.9319 10.4974 15.8866C10.5428 15.8412 10.5787 15.7874 10.6033 15.7281C10.6278 15.6688 10.6405 15.6053 10.6405 15.5412C10.6405 15.477 10.6278 15.4135 10.6033 15.3543C10.5787 15.295 10.5428 15.2412 10.4974 15.1958C10.452 15.1504 10.3982 15.1145 10.3389 15.0899C10.2797 15.0654 10.2162 15.0527 10.152 15.0527C10.0225 15.0527 9.89824 15.1042 9.80664 15.1958C9.71504 15.2874 9.66357 15.4116 9.66357 15.5412C9.66357 15.6707 9.71504 15.795 9.80664 15.8866C9.89824 15.9782 10.0225 16.0296 10.152 16.0296Z" fill="#FF0000"/>
</svg>
