<svg xmlns="http://www.w3.org/2000/svg" viewBox="0 0 533.33 533.33"><defs><style>.cls-1{fill:#0b0e11;}.cls-2{fill:#f0b90b;}</style></defs><g id="Layer_2" data-name="Layer 2"><g id="Layer_1-2" data-name="Layer 1"><circle class="cls-1" cx="266.67" cy="266.67" r="266.67"/><path class="cls-2" d="M191.86,235.93l74.81-74.8L341.51,236,385,192.44,266.67,74.07,148.34,192.4ZM117.6,223.14l43.53,43.52L117.6,310.19,74.07,266.67Zm74.26,74.26,74.81,74.8,74.84-74.84,43.55,43.51,0,0L266.67,459.26,148.34,340.93l-.07-.06Zm267.4-30.73L415.74,310.2l-43.53-43.53,43.53-43.53Z"/><path class="cls-2" d="M310.81,266.64h0l-44.16-44.16-44.19,44.19.06.06,44.13,44.13,44.18-44.19Z"/></g></g></svg>