<svg width="178" height="179" viewBox="0 0 178 179" fill="none" xmlns="http://www.w3.org/2000/svg">
<path d="M88.9997 178.097C138.155 178.097 177.999 138.231 177.999 89.0485C177.999 39.8659 138.155 0 88.9997 0C39.8441 0 0 39.8659 0 89.0485C0 138.231 39.8441 178.097 88.9997 178.097Z" fill="white"/>
<path d="M157.941 33.5095C151.767 34.7283 145.882 36.4481 141.037 37.5278C129.984 40.0044 119.649 48.4808 117.385 63.9919C115.383 77.8501 120.044 83.8108 117.997 99.9341C114.409 128.085 87.4201 137.78 74.8267 143.668C67.5398 147.041 49.8511 154.799 36.2119 160.721C51.4881 172.032 69.9957 178.126 88.9999 178.102C138.167 178.102 178 138.247 178 89.0535C178.036 68.9055 171.199 49.3484 158.62 33.6152L157.941 33.5039V33.5095Z" fill="url(#paint0_linear_4190_1635)"/>
<path d="M78.9873 75.9807C85.8403 61.1485 83.365 61.1151 88.5714 47.1791C95.1352 29.5141 115.555 34.5453 121.19 35.2966C130.485 36.5544 132.927 33.2485 152.518 30.0873C153.486 29.9482 154.42 29.8035 155.355 29.6977C147.013 20.346 136.788 12.8654 125.352 7.74718C113.916 2.62894 101.528 -0.0112209 88.9998 3.58451e-05C53.5779 3.58451e-05 23.0009 20.6816 8.68309 50.6631C38.0419 57.9539 69.7313 73.7879 78.9873 75.9807V75.9807ZM59.5353 15.5112C62.1218 15.9063 74.6819 31.5288 77.0515 71.634C77.0515 71.634 60.8981 67.7548 57.416 59.4232C54.5457 52.5665 58.2782 43.5559 59.5353 15.5112V15.5112ZM158.475 33.4322C158.514 33.499 158.586 33.5379 158.62 33.6103C158.403 33.5713 158.153 33.5713 157.941 33.5379C158.119 33.4656 158.297 33.4656 158.475 33.4266V33.4322ZM5.24962e-05 89.0485C5.24962e-05 81.9414 0.8233 75.0457 2.40304 68.4394C5.62928 71.1331 9.07802 74.1162 12.7381 77.5223C35.9226 99.0331 73.6417 116.014 87.3866 100.213C87.42 100.252 87.4589 100.252 87.4589 100.285C84.9447 103.591 75.3606 114.038 57.06 110.804L28.1351 154.004C19.244 145.686 12.158 135.627 7.31787 124.453C2.47771 113.279 -0.0131864 101.227 5.24962e-05 89.0485V89.0485Z" fill="url(#paint1_linear_4190_1635)"/>
<defs>
<linearGradient id="paint0_linear_4190_1635" x1="142.45" y1="56.8291" x2="121.429" y2="172.56" gradientUnits="userSpaceOnUse">
<stop stop-color="#FF496A"/>
<stop offset="1" stop-color="#E42648"/>
</linearGradient>
<linearGradient id="paint1_linear_4190_1635" x1="42.9591" y1="131.174" x2="89.4288" y2="0.0160703" gradientUnits="userSpaceOnUse">
<stop offset="0.002" stop-color="#1158F1"/>
<stop offset="1" stop-color="#119BED"/>
</linearGradient>
</defs>
</svg>
