<svg xmlns="http://www.w3.org/2000/svg" viewBox="0 0 2500 2500"><defs><style>.cls-1{fill:#102331;}.cls-2{fill:#03ca9b;}</style></defs><g id="Layer_2" data-name="Layer 2"><g id="Layer_1-2" data-name="Layer 1"><circle class="cls-1" cx="1250" cy="1250" r="1250"/><path class="cls-2" d="M616.46,1443.06c-11.11-179.73,64.41-379.5,219.83-534.92,338-338,1041.9-290.65,1045.9-290.33-1.9,2.79-516.51,748.84-1126.31,818.65A1036.87,1036.87,0,0,1,616.46,1443.06Z"/><path class="cls-2" d="M687.85,1672.79a441.25,441.25,0,0,0,61.81,77.55c208.66,208.66,585.75,169.88,842.2-86.57,339-339,290.33-1046,290.33-1046-1.84,4.18-370.74,831-957,1011.38a1025.44,1025.44,0,0,1-237.34,43.6Z"/></g></g></svg>