<svg width="1003" height="1003" viewBox="0 0 1003 1003" fill="none" xmlns="http://www.w3.org/2000/svg">
<rect width="1003" height="1003" rx="501.5" fill="black"/>
<path d="M682.771 493.205C706.279 463.467 719.04 426.653 718.979 388.746C718.979 295.496 643.427 223 550.218 223H345.287V244.09H545.674C628.051 244.09 694.833 307.877 694.833 390.254C694.884 422.279 684.584 453.463 665.47 479.158L682.771 493.205Z" fill="white"/>
<path d="M659.915 475.745C682.342 452.946 694.893 422.234 694.854 390.253C694.854 357.885 681.997 326.842 659.111 303.953C636.225 281.063 605.185 268.201 572.816 268.196H399.531V289.306H577.32C590.384 289.298 603.321 291.864 615.392 296.858C627.464 301.852 638.433 309.175 647.673 318.41C656.913 327.645 664.243 338.609 669.244 350.678C674.245 362.746 676.819 375.682 676.819 388.745C676.836 403.25 673.672 417.583 667.55 430.732C661.427 443.882 652.496 455.529 641.384 464.853L659.915 475.745Z" fill="white"/>
<path d="M626.488 459.833C654.998 447.373 676.822 420.232 676.822 388.745C676.822 345.474 635.713 310.396 592.442 310.396H441.715V322.439H590.894C626.607 322.439 661.704 351.465 661.704 387.237C661.704 416.224 638.729 440.806 610.972 449.04L626.488 459.833Z" fill="white"/>
<path d="M285.016 759.422H318.169V780.513H285.016V759.422Z" fill="white"/>
<path d="M318.17 717.222H450.763V732.281H318.17V717.222Z" fill="white"/>
<path d="M318.17 623.813H459.81V635.876H318.17V623.813Z" fill="white"/>
<path d="M486.928 623.813H577.34V635.876H486.928V623.813Z" fill="white"/>
<path d="M345.287 581.613H393.499V593.676H345.287V581.613Z" fill="white"/>
<path d="M420.627 581.613H577.326V593.676H420.627V581.613Z" fill="white"/>
<path d="M471.855 391.762H574.311V403.825H471.855V391.762Z" fill="white"/>
<path d="M351.324 310.396H408.583V322.459H351.324V310.396Z" fill="white"/>
<path d="M366.383 355.593H577.325V367.656H366.383V355.593Z" fill="white"/>
<path d="M312.141 391.762H441.718V403.825H312.141V391.762Z" fill="white"/>
<path d="M348.311 756.406V777.496H577.327C670.577 777.496 746.089 704.96 746.089 611.75C746.089 566.992 728.308 524.067 696.66 492.418C665.011 460.769 622.085 442.989 577.327 442.989H429.676V461.083H572.823C612.385 461.088 650.324 476.808 678.296 504.784C706.268 532.76 721.983 570.701 721.983 610.262C721.983 692.659 655.2 756.426 572.823 756.426L348.311 756.406Z" fill="white"/>
<path d="M384.457 488.186V509.296H604.446C617.507 509.293 630.439 511.863 642.506 516.859C654.573 521.855 665.538 529.18 674.773 538.414C684.009 547.648 691.336 558.611 696.334 570.677C701.333 582.743 703.906 595.675 703.906 608.735C703.906 635.113 693.427 660.411 674.775 679.064C656.122 697.716 630.825 708.195 604.446 708.195H474.869V732.301H599.863C615.891 732.301 631.762 729.143 646.57 723.009C661.377 716.875 674.831 707.884 686.164 696.55C697.496 685.215 706.485 671.76 712.617 656.951C718.749 642.142 721.903 626.271 721.901 610.243C721.901 577.875 709.044 546.832 686.158 523.942C663.272 501.053 632.231 488.191 599.863 488.186H384.457Z" fill="white"/>
<path d="M447.746 533.402V545.445H618.015C653.728 545.445 688.825 574.471 688.825 610.243C688.825 645.956 653.807 675.042 618.015 675.042H282V690.101H619.523C662.795 690.101 703.904 655.023 703.904 611.751C703.904 568.48 662.795 533.402 619.523 533.402H447.746Z" fill="white"/>
</svg>
