<svg xmlns="http://www.w3.org/2000/svg" viewBox="0 0 139.35 139.35"><defs><style>.cls-1{fill:#1c2838;}.cls-2{fill:#fff;}.cls-3{fill:#3dd4ed;}</style></defs><g id="Layer_2" data-name="Layer 2"><g id="Layer_1-2" data-name="Layer 1"><circle class="cls-1" cx="69.68" cy="69.68" r="69.68"/><path class="cls-2" d="M77.15,62.9c2.86-2.85,5.76-5.65,8.62-8.5,4.83-4.72,9.55-9.55,14.32-14.27a5.89,5.89,0,0,1,9.55,1.37,5.52,5.52,0,0,1,.6,2.47V91.06a5.77,5.77,0,0,1-5.43,5.76H43.73c.11-.11.11-.27.16-.33l4.83-4.83a19.58,19.58,0,0,0,3-3.13c.22-.16.38-.33.6-.49l6.26-6.26c.66-.66.6-.66,1.09.11l3.74,6c.16.28.27.44.6.44,1.7,0,3.29,0,5-.11a36,36,0,0,0,4.28.11,30.82,30.82,0,0,0,4-.11c.16,0,.33.11.49.11h23.65c.61,0,.66-.27.66-.77V51c0-.27.17-.49-.16-.65s-.44.16-.61.33l-14.7,14.7c-3.13,3-6.15,6.15-9.28,9.22a1.73,1.73,0,0,1-.11-.49V63.45A1,1,0,0,1,77.15,62.9Z"/><path class="cls-3" d="M77.1,88.37c-1.32.11-2.64.11-3.95.11a38.41,38.41,0,0,1-4.29-.11V63.29a2,2,0,0,0-.76.6c-3.41,3.4-6.75,6.75-10.21,10.15-4.56,4.56-9.22,9.11-13.78,13.78-.16.16-.44.27-.33.49s.44.17.66.17h6.42c.28,0,.5-.11.77.16a26.32,26.32,0,0,1-3,3.13L43.84,96.6a.65.65,0,0,0-.17.33H24.25c-.28,0-.61.16-.66-.17s.27-.43.44-.6L58.71,61.48c2.8-2.8,5.54-5.55,8.34-8.29a5.79,5.79,0,0,1,10.1,3.57c.11,2.14,0,4.11.11,6.25,0,.28-.11.5-.11.66V74.26a.83.83,0,0,0,.11.5V83.1C77.1,84.8,77.1,86.61,77.1,88.37Z"/></g></g></svg>