<?xml version="1.0" encoding="UTF-8"?>
<svg xmlns="http://www.w3.org/2000/svg" width="400" height="400" viewBox="0 0 400 400" fill="none">
  <circle cx="200" cy="200" r="200" fill="#003B2F"></circle>
  <path d="M302 255.474C302 229.737 287.199 209.053 263.361 200.684C281.434 192.316 294.054 174.947 294.054 152.526C294.054 117.474 264.919 93 223.787 93H106V122.842C124.541 122.842 139.498 138 139.498 156.789C139.498 175.579 124.541 190.737 106 190.737V217.579C124.541 217.579 139.498 232.737 139.498 251.526C139.498 270.316 124.541 285.474 106 285.474V318H228.928C271.151 318 301.844 292.579 301.844 255.789M169.256 125.368H217.711C237.498 125.368 251.676 138.474 251.676 156.789C251.676 175.105 237.498 187.895 217.711 187.895H169.256V125.368ZM169.256 285.316V217.421H222.073C243.886 217.421 258.687 231.158 258.687 251.211C258.687 271.263 243.886 285.316 222.073 285.316H169.256Z" fill="#02FD9E"></path>
</svg>
