<?xml version="1.0" encoding="UTF-8"?>
<svg xmlns="http://www.w3.org/2000/svg" width="400" height="400" viewBox="0 0 400 400" fill="none">
  <circle cx="200" cy="200" r="200" fill="#161616"></circle>
  <path d="M222.187 344V238.784C247.325 241.472 264.382 252.992 264.382 252.992L280.413 234.944C254.122 216.256 215.134 215.488 215.134 215.488L208.721 144.832C212.953 142.016 215.775 137.28 215.775 131.776C215.775 123.2 208.721 116.16 200.128 116.16C191.535 116.16 184.482 123.2 184.482 131.776C184.482 137.28 187.303 142.144 191.535 144.832L185.123 215.488C185.123 215.488 146.135 216.128 119.843 234.944L135.875 252.992C135.875 252.992 152.932 241.472 178.069 238.784V344C79.829 271.296 71.7491 165.696 72.0057 130.624C72.0057 123.328 76.3662 116.672 83.0352 113.728C102.658 105.024 147.417 88 200 88C252.583 88 297.342 105.024 316.965 113.728C323.634 116.672 327.994 123.328 327.994 130.624C328.251 165.696 320.171 271.296 222.187 344Z" fill="#FFAF1D"></path>
</svg>
