<?xml version="1.0" encoding="utf-8"?>
<!-- Generator: Adobe Illustrator 25.4.1, SVG Export Plug-In . SVG Version: 6.00 Build 0)  -->
<svg version="1.1" id="Layer_1" xmlns="http://www.w3.org/2000/svg" xmlns:xlink="http://www.w3.org/1999/xlink" x="0px" y="0px"
	 viewBox="0 0 640 640" style="enable-background:new 0 0 640 640;" xml:space="preserve">
<style type="text/css">
	.st0{fill:#113F68;}
	.st1{fill:#FFFFFF;}
</style>
<g>
	<path class="st0" d="M328.2,0.1c183.5,6,321.9,159.2,311.3,339.4c-10.2,172.8-156.7,309.7-336.8,300.3
		c-172-9-308.4-152.5-302.5-330.3C6,134.2,149.6-3.1,328.2,0.1z M510.7,320.9c0-35-0.1-70,0.1-105c0-4.2-1.1-6.7-4.8-8.8
		c-60.6-34.8-121.2-69.7-181.7-104.7c-3.9-2.3-6.7-2.2-10.6,0c-59.6,34.9-119.2,69.6-179,104.3c-3.9,2.3-5.3,4.8-5.2,9.2
		c0.1,69.5,0.1,139.1,0,208.6c0,4.4,1.3,7,5.2,9.3c59.8,34.5,119.5,69.2,179.1,104c4.1,2.4,7.1,2.6,11.2,0.2
		c59.9-34.7,119.9-69.4,179.9-103.9c4.3-2.5,6-5.1,5.9-10.2C510.6,389.5,510.7,355.2,510.7,320.9z"/>
	<path class="st1" d="M510.7,320.9c0,34.3-0.1,68.7,0.1,103c0,5.1-1.6,7.7-5.9,10.2c-60,34.5-120,69.1-179.9,103.9
		c-4.1,2.4-7.2,2.2-11.2-0.2c-59.6-34.8-119.3-69.5-179.1-104c-3.9-2.3-5.2-4.8-5.2-9.3c0.1-69.5,0.1-139.1,0-208.6
		c0-4.4,1.3-6.9,5.2-9.2c59.7-34.6,119.4-69.4,179-104.3c3.9-2.3,6.7-2.3,10.6,0c60.5,35,121.1,69.9,181.7,104.7
		c3.8,2.2,4.9,4.7,4.8,8.8C510.6,250.9,510.7,285.9,510.7,320.9z M489.7,320.3c0-31.1,0-62.2,0-93.2c0-3.5-0.6-5.9-4.1-7.9
		c-53.9-30.9-107.7-61.9-161.4-92.9c-3.8-2.2-6.7-2.2-10.6,0.1c-52.6,30.8-105.4,61.5-158.1,92.1c-3.6,2.1-5.8,4.1-5.8,9
		c0.2,61.9,0.2,123.9,0.1,185.8c0,4,1.3,6.2,4.8,8.2c53,30.7,105.9,61.5,158.7,92.4c4.1,2.4,7.1,2.4,11.2,0
		c53.6-31,107.2-61.8,160.9-92.5c3.7-2.1,4.4-4.6,4.4-8.4C489.7,382,489.7,351.1,489.7,320.3z"/>
	<path class="st0" d="M489.7,320.3c0,30.9,0,61.7,0.1,92.6c0,3.8-0.7,6.3-4.4,8.4c-53.7,30.7-107.3,61.5-160.9,92.5
		c-4.1,2.4-7.1,2.4-11.2,0c-52.8-30.9-105.7-61.7-158.7-92.4c-3.5-2-4.8-4.2-4.8-8.2c0.1-61.9,0.2-123.9-0.1-185.8
		c0-4.9,2.2-6.9,5.8-9c52.8-30.6,105.5-61.3,158.1-92.1c3.9-2.3,6.8-2.3,10.6-0.1c53.7,31.1,107.5,62.1,161.4,92.9
		c3.5,2,4.1,4.4,4.1,7.9C489.7,258.1,489.7,289.2,489.7,320.3z M226.4,271.6c62.3,0,123.4,0,185.1,0c-5.6-23.8-11.3-46.7-16.4-69.8
		c-1.2-5.3-3.1-6.9-8.5-6.8c-45.4,0.2-90.8,0.1-136.1,0.1c-2.3,0-4.6,0-7.1,0C237.7,221.1,232.1,246.2,226.4,271.6z M175.7,335.3
		c1.6,2.9,2.6,5,3.8,7.1c17.9,31.3,36.8,62,53.3,94c7.8,15.2,17,22,33.5,18.6c3.2-0.7,6.7-1.6,9.1-3.6c8.5-7.4,16.7-15.3,24.9-23
		c5.8-5.5,6-17,0.2-22.6c-8.3-8-16.5-16.1-25-23.9c-3.5-3.2-5-6.4-4.9-11.2c0.3-13.2,0.3-26.5,0-39.8c-0.1-2.3-1.6-5.5-3.5-6.8
		c-12.4-8.4-25.1-16.4-37.8-24.3c-1.4-0.9-4.4-1.2-5.6-0.3C207.7,311.3,192,323.2,175.7,335.3z M461.8,335.4
		c-16.3-12.3-32-24.3-48-35.9c-1.4-1-4.9-0.3-6.7,0.8c-12,7.5-23.6,15.4-35.6,23c-3.3,2.1-4.6,4.5-4.5,8.5
		c0.2,13.5,0.3,26.9-0.1,40.4c-0.1,2.8-1.5,6.3-3.5,8.3c-7.4,7.6-15.1,15.1-23.1,22.1c-4.8,4.2-6.9,8.7-6.6,15.2
		c0.2,4.9,1.4,8.6,5.3,11.8c4.2,3.4,8.5,7,11.8,11.2c9.6,12.2,21.9,16.4,37.1,14.4c4.2-0.5,6.5-1.7,8.5-5.4
		c5.9-10.9,12.2-21.5,18.4-32.3C430.4,390.5,445.9,363.3,461.8,335.4z M367.5,284.1c-32.9,0-64.7,0-97.2,0c4.6,12,9.3,23.2,13,34.7
		c1.7,5.3,2.3,11.4,2,17c-0.8,12.7-2.4,25.3-3.7,38.1c25.4,0,49.8,0,74.7,0c-1.3-13.9-2.8-27.2-3.8-40.6c-0.3-4,0-8.2,1.3-12
		C358,309,362.7,296.9,367.5,284.1z"/>
	<path class="st1" d="M226.4,271.6c5.7-25.5,11.3-50.6,17.1-76.5c2.4,0,4.7,0,7.1,0c45.4,0,90.8,0.1,136.1-0.1
		c5.4,0,7.3,1.6,8.5,6.8c5.1,23.1,10.7,46,16.4,69.8C349.8,271.6,288.7,271.6,226.4,271.6z"/>
	<path class="st1" d="M175.7,335.3c16.3-12.2,32.1-24,48-35.7c1.2-0.9,4.2-0.6,5.6,0.3c12.7,7.9,25.4,15.9,37.8,24.3
		c1.9,1.3,3.4,4.4,3.5,6.8c0.3,13.2,0.4,26.5,0,39.8c-0.1,4.8,1.4,8.1,4.9,11.2c8.5,7.8,16.7,15.8,25,23.9
		c5.8,5.6,5.6,17.1-0.2,22.6c-8.3,7.7-16.4,15.6-24.9,23c-2.3,2-5.9,3-9.1,3.6c-16.5,3.4-25.7-3.4-33.5-18.6
		c-16.4-32-35.4-62.8-53.3-94C178.3,340.3,177.2,338.2,175.7,335.3z"/>
	<path class="st1" d="M461.8,335.4c-15.9,27.9-31.4,55-46.9,82.2c-6.1,10.7-12.4,21.4-18.4,32.3c-2,3.7-4.3,4.8-8.5,5.4
		c-15.2,1.9-27.4-2.2-37.1-14.4c-3.3-4.2-7.6-7.8-11.8-11.2c-3.9-3.2-5.1-6.8-5.3-11.8c-0.3-6.5,1.8-11,6.6-15.2
		c8-7,15.7-14.4,23.1-22.1c2-2,3.4-5.5,3.5-8.3c0.4-13.5,0.3-26.9,0.1-40.4c-0.1-4,1.2-6.4,4.5-8.5c11.9-7.6,23.6-15.5,35.6-23
		c1.8-1.1,5.3-1.8,6.7-0.8C429.8,311.1,445.5,323.1,461.8,335.4z"/>
	<path class="st1" d="M367.5,284.1c-4.8,12.8-9.5,24.9-13.7,37.2c-1.3,3.7-1.6,8-1.3,12c1,13.4,2.5,26.8,3.8,40.6
		c-24.9,0-49.4,0-74.7,0c1.3-12.8,2.9-25.4,3.7-38.1c0.3-5.6-0.3-11.7-2-17c-3.7-11.5-8.4-22.7-13-34.7
		C302.8,284.1,334.6,284.1,367.5,284.1z"/>
</g>
</svg>
