<svg width="207" height="207" viewBox="0 0 207 207" fill="none" xmlns="http://www.w3.org/2000/svg">
<path d="M103.002 206.004C159.888 206.004 206.004 159.888 206.004 103.002C206.004 46.1155 159.888 0 103.002 0C46.1155 0 0 46.1155 0 103.002C0 159.888 46.1155 206.004 103.002 206.004Z" fill="url(#paint0_radial_4201_1837)"/>
<path d="M97.4054 126.648L99.5054 118.382C99.5054 118.131 99.3821 117.879 99.1357 117.879H59.3697C59.1182 117.879 59 117.628 59 117.377L79.4991 41.2512C79.4991 41.1281 79.7506 41 79.8688 41H101.972C116.914 41 126.299 45.0701 132.104 50.8687C134.957 53.8454 137.172 57.3715 138.616 61.2318C140.06 65.0922 140.701 69.2059 140.501 73.322C140.516 77.936 139.765 82.5206 138.278 86.889C137.061 90.6375 135.27 94.175 132.969 97.3757C132.846 97.627 132.969 97.9938 133.22 97.9938H162.615C162.69 97.9855 162.766 98.0019 162.831 98.0406C162.895 98.0792 162.946 98.1379 162.974 98.2078C163.003 98.2778 163.008 98.355 162.988 98.428C162.969 98.5009 162.926 98.5654 162.866 98.6119L85.9097 173.898C85.8503 173.954 85.7744 173.989 85.6934 173.998C85.6124 174.007 85.5308 173.989 85.4608 173.947C85.3909 173.905 85.3365 173.842 85.3059 173.766C85.2752 173.691 85.27 173.608 85.291 173.529L97.4054 126.648Z" fill="white"/>
<defs>
<radialGradient id="paint0_radial_4201_1837" cx="0" cy="0" r="1" gradientUnits="userSpaceOnUse" gradientTransform="translate(-9.5 164.5) rotate(-10.1207) scale(250.396 195.622)">
<stop offset="0.0516824" stop-color="#41BEF0"/>
<stop offset="0.436793" stop-color="#828CBE"/>
<stop offset="0.606046" stop-color="#8F80AE"/>
<stop offset="0.829167" stop-color="#BC5A79"/>
<stop offset="0.970173" stop-color="#CD4B64"/>
</radialGradient>
</defs>
</svg>
