<svg xmlns="http://www.w3.org/2000/svg" viewBox="0 0 1000 1000"><defs><style>.cls-1{fill:#de5959;}.cls-2{fill:#fff;}</style></defs><g id="Layer_2" data-name="Layer 2"><g id="图层_1" data-name="图层 1"><rect class="cls-1" width="1000" height="1000" rx="500"/><path class="cls-2" d="M427.75,494.7l-5.84-5.84A7,7,0,0,0,410,493.75v83a6.94,6.94,0,0,0,7,6.91h83a7,7,0,0,0,4.88-11.92,6.82,6.82,0,0,1,0-9.76l88.4-88.63a6.83,6.83,0,0,0,0-9.77l-8.1-8a7,7,0,0,1,4.88-11.92h83a7,7,0,0,1,7,6.91v83a7,7,0,0,1-11.91,4.89l-5.6-5.6a6.83,6.83,0,0,0-9.77,0l-149,148.91a7,7,0,0,1-9.89,0L311.72,499.58a7,7,0,0,1,0-9.88L564.27,237.62a7,7,0,0,0,0-9.88l-59.33-59.33a7,7,0,0,0-9.88,0L168.41,495.06a7,7,0,0,0,0,9.88L495.06,831.59a7,7,0,0,0,9.88,0L831.59,504.94a7,7,0,0,0,0-9.88L639.32,303a7,7,0,0,0-9.89,0L437.64,494.82a7.09,7.09,0,0,1-9.89-.12Z"/></g></g></svg>