<svg xmlns="http://www.w3.org/2000/svg" viewBox="0 0 205.87 205.87"><defs><style>.cls-1{fill:#1b2143;}.cls-2{fill:#fff;}.cls-3{fill:#2ca6e0;}</style></defs><g id="Layer_2" data-name="Layer 2"><g id="layer"><circle class="cls-1" cx="102.94" cy="102.94" r="102.94"/><path class="cls-2" d="M118.9,75.59c0-20.39-9.94-37.95-17.5-43.65,0,0-.59-.32-.53.5-.62,39.4-20.75,50.08-31.8,64.44-25.53,33.2-1.81,69.58,22.39,76.31,13.49,3.77-3.13-6.67-5.28-28.68-2.63-26.57,32.72-46.88,32.72-68.92Z"/><path class="cls-3" d="M130.5,89c-.17-.1-.39-.18-.53.08-.42,5-5.48,15.55-11.9,25.3-21.77,33-9.37,49-2.39,57.54,4.06,5,0,0,10.12-5.08a45.65,45.65,0,0,0,21.81-35.28A51.08,51.08,0,0,0,130.5,89Z"/></g></g></svg>