<svg xmlns="http://www.w3.org/2000/svg" viewBox="0 0 205.87 205.87"><defs><style>.cls-1{fill:#5741d9;}.cls-2{fill:#fff;}</style></defs><g id="Layer_2" data-name="Layer 2"><g id="layer"><circle class="cls-1" cx="102.94" cy="102.94" r="102.94"/><path id="_0da8ffff" data-name="#0da8ffff" class="cls-2" d="M98.8,45.36a63.06,63.06,0,0,1,32.52,6.55,64.53,64.53,0,0,1,32.09,35.84,63,63,0,0,1,3.76,21.36v26.94a16.85,16.85,0,0,1-.22,3.32,9.22,9.22,0,0,1-10.84,7,9.18,9.18,0,0,1-7.29-8.8V112.44c.1-2.37.1-4.94-1.19-7a9.2,9.2,0,0,0-11.16-4.08,9.33,9.33,0,0,0-6,8.37v25.44a13.77,13.77,0,0,1-.43,4.72,9.16,9.16,0,0,1-16.74,1.93c-1.39-2.15-1.29-4.83-1.18-7.3V109.22a9.18,9.18,0,0,0-18.35.43v24.57c0,2,.22,4.19-.54,6.12a8.89,8.89,0,0,1-8.47,6,9.07,9.07,0,0,1-8.8-6,16.08,16.08,0,0,1-.54-5.58V109.32A9.17,9.17,0,0,0,58.24,105a9.88,9.88,0,0,0-1.18,4.62v27.58a9.18,9.18,0,0,1-14.6,7.51,8.85,8.85,0,0,1-3.75-7.3v-27.9A64.28,64.28,0,0,1,63,59.42,61.58,61.58,0,0,1,98.8,45.36Z"/></g></g></svg>