<svg xmlns="http://www.w3.org/2000/svg" viewBox="0 0 205.87 205.87"><defs><style>.cls-1{fill:#23af91;}.cls-2{fill:#fff;fill-rule:evenodd;}</style></defs><g id="Layer_2" data-name="Layer 2"><g id="layer"><circle class="cls-1" cx="102.94" cy="102.94" r="102.94"/><g id="KUCOIN-logo-3.0"><path id="形状" class="cls-2" d="M82.4,103l36.23,36.23,22.86-22.87a10.35,10.35,0,0,1,14.61,14.61L125.93,161.1a10.41,10.41,0,0,1-14.61,0L67.78,117.56v25.88a10.34,10.34,0,0,1-20.68,0v-81a10.34,10.34,0,0,1,20.68,0V88.31l43.53-43.54a10.41,10.41,0,0,1,14.61,0L156.12,75a10.34,10.34,0,0,1-14.61,14.6L118.65,66.69Zm36.25-10.36h0A10.36,10.36,0,1,0,129,103a10.36,10.36,0,0,0-10.34-10.36Z"/></g></g></g></svg>