<svg width="1436" height="1436" viewBox="0 0 1436 1436" fill="none" xmlns="http://www.w3.org/2000/svg">
<circle cx="718" cy="718" r="718" fill="#005A4D"/>
<path d="M1130.33 815.392L946.222 496.035C905.86 429.473 807.433 428.765 768.486 498.868L575.175 830.97C539.061 891.867 583.671 968.342 655.899 968.342H1043.23C1116.17 968.342 1170.69 889.741 1130.33 815.392Z" fill="#00B897"/>
<path d="M864.787 840.183L853.458 820.356C842.837 801.944 819.469 762.29 819.469 762.29L663.686 491.795C623.324 431.606 527.73 426.649 487.368 502.416L306.093 816.107C268.564 881.96 313.174 967.641 394.606 968.351H779.815H944.096H1041.82C941.972 969.059 910.109 917.365 864.787 840.183Z" fill="#76FCB2"/>
<path d="M864.795 840.174L853.466 820.349C842.845 801.938 819.476 762.284 819.476 762.284L718.926 585.257L574.472 831.678C538.359 892.575 582.97 969.05 655.198 969.05H779.115H943.396H1041.82C941.272 968.342 910.114 917.359 864.795 840.174Z" fill="url(#paint0_linear_4158_82)"/>
<defs>
<linearGradient id="paint0_linear_4158_82" x1="523.061" y1="719.714" x2="970.572" y2="885.082" gradientUnits="userSpaceOnUse">
<stop stop-color="#53E57A" stop-opacity="0"/>
<stop offset="1" stop-color="#00A977"/>
</linearGradient>
</defs>
</svg>
