<svg width="207" height="207" viewBox="0 0 207 207" fill="none" xmlns="http://www.w3.org/2000/svg">
<path d="M103.002 206.004C159.888 206.004 206.004 159.888 206.004 103.002C206.004 46.1155 159.888 0 103.002 0C46.1155 0 0 46.1155 0 103.002C0 159.888 46.1155 206.004 103.002 206.004Z" fill="white"/>
<path d="M166.05 50.8743L133.153 105.209L108.296 86.1948L160.707 50.7781L160.868 50.6769C162.515 49.6849 164.552 49.8107 166.05 50.8743Z" fill="white"/>
<path d="M66.6523 55.4443L78.7042 101.643L39.7874 155.503C39.3751 155.175 39.0109 154.772 38.7164 154.3C38.0235 153.188 37.8227 151.839 38.16 150.575L63.7828 58.5583L63.842 58.3683C64.3064 56.9773 65.3649 55.9339 66.6523 55.4443Z" fill="white"/>
<path d="M69.603 55.3105C70.2111 55.4798 70.7792 55.769 71.2739 56.1611L133.154 105.209L78.7053 101.644L66.6523 55.4449C67.5642 55.0979 68.591 55.0287 69.603 55.3105Z" fill="white"/>
<path d="M78.7049 101.645L103.562 119.47L45.2395 155.815C43.4924 156.904 41.311 156.715 39.7871 155.503L78.7049 101.645Z" fill="white"/>
<path d="M166.046 50.8779C166.499 51.2007 166.902 51.6094 167.23 52.0991C167.911 53.1141 168.175 54.3535 167.968 55.5593L152.832 143.89L152.207 147.536C151.93 149.155 150.86 150.441 149.464 151.063L133.152 105.209L166.046 50.8779Z" fill="white"/>
<path d="M78.7041 101.645L133.153 105.21L149.465 151.063C148.64 151.431 147.7 151.568 146.742 151.403C146.017 151.279 145.331 150.988 144.738 150.553L78.7041 101.645Z" fill="white"/>
<path d="M166.05 50.8743L133.153 105.209L108.296 86.1948L160.707 50.7781L160.868 50.6769C162.515 49.6849 164.552 49.8107 166.05 50.8743Z" fill="#3D9EFF"/>
<path d="M66.6523 55.4443L78.7042 101.643L39.7874 155.503C39.3751 155.175 39.0109 154.772 38.7164 154.3C38.0235 153.188 37.8227 151.839 38.16 150.575L63.7828 58.5583L63.842 58.3683C64.3064 56.9773 65.3649 55.9339 66.6523 55.4443Z" fill="#0647D5"/>
<path d="M69.603 55.3105C70.2111 55.4798 70.7792 55.769 71.2739 56.1611L133.154 105.209L78.7053 101.644L66.6523 55.4449C67.5642 55.0979 68.591 55.0287 69.603 55.3105Z" fill="#1667F6"/>
<path d="M78.7049 101.645L103.562 119.47L45.2395 155.815C43.4924 156.904 41.311 156.715 39.7871 155.503L78.7049 101.645Z" fill="#002392"/>
<path d="M166.046 50.8779C166.499 51.2007 166.902 51.6094 167.23 52.0991C167.911 53.1141 168.175 54.3535 167.968 55.5593L152.832 143.89L152.207 147.536C151.93 149.155 150.86 150.441 149.464 151.063L133.152 105.209L166.046 50.8779Z" fill="#2E8EFF"/>
<path d="M78.7041 101.645L133.153 105.21L149.465 151.063C148.64 151.431 147.7 151.568 146.742 151.403C146.017 151.279 145.331 150.988 144.738 150.553L78.7041 101.645Z" fill="#2179FF"/>
</svg>
