<svg width="206" height="206" viewBox="0 0 206 206" fill="none" xmlns="http://www.w3.org/2000/svg">
<circle cx="102.94" cy="102.94" r="102.94" fill="#232323"/>
<path d="M156.27 53.0273L138.88 53.0137L144.036 68.9129L111.276 92.6768L137.212 111.542L168 89.2071L156.27 53.0273Z" fill="#FFC800"/>
<path d="M62.9426 68.8584L68.1066 53.0136L50.7774 53L39 89.1662L69.7531 111.542L95.7232 92.7039L62.9426 68.8584Z" fill="#E1AA00"/>
<path d="M100.52 72.1649L74.2027 53.0205L69.7666 66.6474L100.52 89.0235L100.533 89.0166V72.1513L100.52 72.1649Z" fill="#E1AA00"/>
<path d="M132.797 53.041L106.445 72.1514V89.0167L137.219 66.6952L132.797 53.041Z" fill="#FFC800"/>
<path d="M69.8278 118.652L69.7666 118.849L100.52 141.232L100.533 141.218V96.3779L69.8278 118.652Z" fill="#E1AA00"/>
<path d="M137.144 118.665L106.479 96.3501L106.445 96.3773V141.218L137.219 118.896L137.144 118.665Z" fill="#FFC800"/>
<path d="M100.513 148.395L75.4818 130.183L69.7666 147.736L100.52 170.111L100.533 170.098V148.382L100.513 148.395Z" fill="#E1AA00"/>
<path d="M131.518 130.19L106.445 148.382V170.098L137.219 147.776L131.518 130.19Z" fill="#FFC800"/>
</svg>
