<?xml version="1.0" encoding="UTF-8"?>
<svg xmlns="http://www.w3.org/2000/svg" width="25" height="25" viewBox="0 0 25 25" fill="none">
  <rect width="25" height="25" rx="12.5" fill="white"></rect>
  <path d="M13.8383 6.51467L13.0124 9.91537H11.9687L11.7907 9.18175L11.659 8.63133L11.1258 6.43852C12.0311 6.40425 12.9377 6.43006 13.8383 6.51467ZM11.216 9.91537L9.86169 6.56375C9.24639 6.64752 8.64289 6.78798 8.06017 6.98302L9.56797 9.18175L10.0695 9.91537H11.216ZM19.1163 10.6494L19.7132 12.1175H15.5709L15.7054 10.6494H19.1163ZM20.6241 14.3192H15.3654L15.5005 12.8511H20.0253L20.6241 14.3192ZM19.3689 16.5776H15.143L15.3272 15.1002H21L19.3689 16.5776ZM9.85697 16.5776H5.63106L4 15.1002H9.67281L9.85697 16.5776ZM9.42819 12.1171L9.29408 10.6494H5.87331L5.27925 12.1175H9.42867L9.42819 12.1171ZM9.63361 14.3192H4.374L4.96994 12.8511H9.4995L9.63456 14.3192H9.63361ZM16.5753 7.53006L16.9309 7.01644C16.9309 7.01644 16.1942 6.83833 15.0764 6.67629L13.7656 9.91537H14.9126L15.4231 9.18217L15.8084 8.63175L16.5753 7.53006ZM17.5698 7.53006L15.7394 9.91537H18.7447L17.7431 7.53006H17.5698ZM9.24167 9.91537L7.41181 7.53006H7.2385L6.23692 9.91537H9.24167Z" fill="black"></path>
</svg>
