<svg width="158" height="158" viewBox="0 0 158 158" fill="none" xmlns="http://www.w3.org/2000/svg">
<rect width="158" height="158" rx="79" fill="#150904"/>
<path d="M67.9875 49.1086C67.8656 49.1086 67.7437 48.9867 67.7437 48.8648C67.7437 48.7835 67.8249 48.7022 67.8656 48.6616C67.8926 48.6616 67.9062 48.6481 67.9062 48.621L82.1687 34.3585C84.8912 31.636 88.9139 30.742 92.2866 32.5299C96.8376 34.9273 101.023 38.0155 104.761 41.7132C114.554 51.5466 120.08 64.8746 120.08 78.7714C120.08 92.6276 114.554 105.955 104.761 115.789C101.063 119.446 96.8782 122.534 92.3678 124.932C89.0358 126.719 84.9724 125.825 82.25 123.103L67.7843 108.637C67.7572 108.61 67.7437 108.583 67.7437 108.556C67.7437 108.475 67.8249 108.394 67.9062 108.394C75.7079 108.353 83.1846 105.265 88.7108 99.6979C94.2776 94.1716 97.3658 86.6137 97.3658 78.7714C97.3658 70.8884 94.2776 63.3305 88.7108 57.8043C83.1846 52.278 75.7485 49.1492 67.9875 49.1086Z" fill="url(#paint0_linear_10190_7817)"/>
<path d="M67.7433 108.596C59.8603 108.596 52.2618 105.467 46.6543 99.8593C41.0874 94.2518 37.918 86.6532 37.918 78.7703C37.918 70.8466 41.0874 63.2481 46.6543 57.6406C52.2618 52.0331 59.8603 48.9043 67.7433 48.9043C67.7433 48.9043 57.0159 60.6881 57.0159 78.7703C57.0159 96.8524 67.7433 108.596 67.7433 108.596Z" fill="url(#paint1_linear_10190_7817)"/>
<defs>
<linearGradient id="paint0_linear_10190_7817" x1="-15298.1" y1="10147.6" x2="-40106.5" y2="26626.3" gradientUnits="userSpaceOnUse">
<stop stop-color="#FFC371"/>
<stop offset="1" stop-color="#FC9D10"/>
</linearGradient>
<linearGradient id="paint1_linear_10190_7817" x1="-7591.2" y1="-8924.59" x2="-21728.9" y2="466.216" gradientUnits="userSpaceOnUse">
<stop stop-color="#FBC67E"/>
<stop offset="0.52" stop-color="#FF9401"/>
</linearGradient>
</defs>
</svg>
