<svg xmlns="http://www.w3.org/2000/svg" xmlns:xlink="http://www.w3.org/1999/xlink" viewBox="0 0 640 640"><defs><style>.cls-1{fill:none;}.cls-2,.cls-8{fill:#fff;}.cls-3{clip-path:url(#clip-path);}.cls-4{fill:url(#linear-gradient);}.cls-5{fill:url(#linear-gradient-2);}.cls-6{fill:url(#linear-gradient-3);}.cls-7{fill:#0e0f23;}.cls-8{fill-rule:evenodd;}</style><clipPath id="clip-path"><rect class="cls-1" x="88.44" y="88.44" width="463.12" height="463.12"/></clipPath><linearGradient id="linear-gradient" x1="267.34" y1="-194.05" x2="338.51" y2="50.37" gradientTransform="translate(-12 292)" gradientUnits="userSpaceOnUse"><stop offset="0" stop-color="#03b8ff"/><stop offset="1" stop-color="#fa52a0"/></linearGradient><linearGradient id="linear-gradient-2" x1="325.65" y1="-211.03" x2="396.83" y2="33.38" xlink:href="#linear-gradient"/><linearGradient id="linear-gradient-3" x1="209.71" y1="-177.27" x2="280.89" y2="67.15" xlink:href="#linear-gradient"/></defs><g id="Layer_2" data-name="Layer 2"><g id="Layer_1-2" data-name="Layer 1"><circle class="cls-2" cx="320" cy="320" r="320"/><g class="cls-3"><path class="cls-4" d="M184.92,132.82,543.84,377.89,455.08,509.11l-358.92-247Z"/><path class="cls-5" d="M543.84,377.89c-30.87,44.38-135.07,27-233.49-42.45C210,267.9,156,177.2,184.92,132.82c30.88-44.38,135.08-27,233.49,42.45C518.76,240.88,572.79,333.51,543.84,377.89Z"/><path class="cls-6" d="M455.08,507.18c-30.88,44.38-135.08,27-233.49-42.45S67.21,306.49,98.09,260.18c30.87-44.38,135.07-27,233.49,42.45S484,462.8,455.08,507.18Z"/><path class="cls-7" d="M543.84,377.89h0L455.08,509.11h0C424.2,553.49,320,534.19,221.59,466.66a580,580,0,0,1-54-42.46c13.5-1.93,30.87-9.65,48.24-28.94,30.87-32.81,46.31-40.53,59.82-38.6,13.51,0,28.94,13.51,54,46.32s59.82,42.45,81,25.08c1.93-1.93,3.86-1.93,5.79-3.86,17.37-13.51,23.16-19.29,56-81,7.72-15.44,34.74-40.53,71.4-29Q558.32,351.85,543.84,377.89Z"/><path class="cls-8" d="M530.33,370.17c-27,38.6-121.56,19.3-212.26-44.38-92.62-63.68-146.66-144.73-119.64-183.32S320,123.17,410.69,186.85,555.42,331.58,530.33,370.17Zm-84.9-57.89c-13.51,19.3-59.82,9.65-106.13-21.23-44.39-30.87-71.4-71.39-57.89-90.69s59.82-9.65,106.13,21.23C431.92,252.46,458.94,293,445.43,312.28Z"/><path class="cls-2" d="M177.2,177.2c0-1.93-1.93-3.86-3.86-1.93s-3.85,1.93-3.85,3.86c1.92,5.79,3.85,9.65,3.85,13.51,0,1.93,1.93,3.86,3.86,1.93,1.93,0,3.86-1.93,1.93-3.86A37.68,37.68,0,0,0,177.2,177.2Z"/><path class="cls-2" d="M186.85,208.08c0-1.93-1.93-3.86-3.86-1.93s-1.93,1.93-1.93,3.86c21.23,48.24,65.61,100.34,123.5,138.94,1.93,1.92,3.86,0,5.79,0,1.93-1.93,0-3.86,0-5.79C250.53,304.56,208.08,254.39,186.85,208.08Z"/><path class="cls-2" d="M420.34,397.19c-1.93,0-3.86,0-3.86,1.93s0,3.86,1.93,3.86c5.79,1.93,13.51,3.86,19.3,5.79,1.93,0,3.86,0,3.86-1.93s0-3.86-1.93-3.86C433.85,401.05,426.13,399.12,420.34,397.19Z"/><path class="cls-2" d="M455.08,404.91a3.86,3.86,0,1,0,0,7.71c15.43,1.93,32.8,3.86,46.31,1.93a3.86,3.86,0,1,0,0-7.71C486,408.77,470.51,406.84,455.08,404.91Z"/></g></g></g></svg>