<svg width="159" height="158" viewBox="0 0 159 158" fill="none" xmlns="http://www.w3.org/2000/svg">
<path d="M79.3506 158C123.17 158 158.689 122.633 158.689 79C158.689 35.3673 123.165 0 79.3506 0C35.5307 0 0.0117188 35.3673 0.0117188 79C0.0117188 122.633 35.5307 158 79.3506 158V158Z" fill="#CCB175"/>
<path d="M129.066 91.9954L136.107 88.4898C137.277 87.9071 137.575 86.3024 136.692 85.2804L127.895 63.8121C126.6 60.6457 125.808 57.2973 125.55 53.8878C124.402 39.5287 117.803 26.1444 107.097 16.4576C96.3902 6.77077 82.3796 1.50906 67.9153 1.74282C37.4095 2.19707 12.4773 26.8747 11.8921 57.3934C11.6592 70.1988 15.7973 82.7039 23.6294 92.8633C31.4616 103.023 42.5242 110.235 55.0078 113.32L52.0773 114.925L32.8624 157.857H85.2211L98.1235 129.678C99.5913 126.464 102.963 124.563 106.484 124.711L118.36 125.733C122.322 126.03 125.55 122.958 125.401 119.018L125.252 115.216C125.252 112.59 125.986 110.106 127.454 107.919V107.188C127.454 105.727 126.279 104.413 124.816 104.122C119.684 103.243 116.748 100.764 116.748 100.764C120.269 100.764 124.519 100.32 127.31 99.8855C127.699 99.8372 128.074 99.7107 128.413 99.5135C128.751 99.3164 129.046 99.0527 129.279 98.7387C129.511 98.4246 129.678 98.0667 129.767 97.6867C129.857 97.3066 129.868 96.9124 129.8 96.528L129.066 92.0003V91.9954Z" fill="white"/>
<path d="M69.8194 114.92L92.4012 67.9001C109.122 65.2734 119.535 33.0019 118.509 31.1009C115.722 25.8474 113.228 23.0726 110.59 20.1496C99.8789 8.03295 84.9235 1.46114 68.0591 1.75245C37.1169 2.0487 11.8921 27.4521 11.8921 58.4103C11.8921 73.7412 18.0508 87.7588 28.0227 97.8362C12.0359 99.0064 -0.425245 112.293 0.0111185 128.498C0.452441 144.422 13.3599 157.417 29.3417 157.852C41.664 158.148 52.3648 151.285 57.3533 141.064C57.3533 140.916 57.502 140.768 57.502 140.62L69.8194 114.92V114.92Z" fill="#0000AE"/>
<path d="M85.9492 16.21C82.4285 30.0844 75.0996 43.0799 65.2715 53.5918L84.9228 43.8057C76.1261 63.2298 61.8996 78.4176 44.5938 84.1105L61.7509 83.5279C48.2633 97.106 30.2236 100.76 13.5029 94.9187C13.5029 94.9187 13.3542 94.9187 13.3542 94.7706C6.90788 92.4351 5.73268 82.7971 11.1575 78.2695L85.9492 16.2051V16.21Z" fill="white"/>
<path d="M117.333 72.7192C119.277 72.7192 120.854 70.1024 120.854 66.8782C120.854 63.654 119.277 61.0371 117.333 61.0371C115.389 61.0371 113.812 63.654 113.812 66.8782C113.812 70.1073 115.389 72.7192 117.333 72.7192Z" fill="#0000AE"/>
</svg>
