<?xml version="1.0" encoding="utf-8"?>
<!-- Generator: Adobe Illustrator 25.4.1, SVG Export Plug-In . SVG Version: 6.00 Build 0)  -->
<svg version="1.1" id="Layer_1" xmlns="http://www.w3.org/2000/svg" xmlns:xlink="http://www.w3.org/1999/xlink" x="0px" y="0px"
	 viewBox="0 0 640 640" style="enable-background:new 0 0 640 640;" xml:space="preserve">
<style type="text/css">
	.st0{fill:#E3DFF3;}
	.st1{fill-rule:evenodd;clip-rule:evenodd;fill:#8878C3;}
	.st2{fill:#6D619A;}
	.st3{fill:#BFB7DE;stroke:#6D619A;stroke-width:4;}
	.st4{fill:#E3DFF3;stroke:#6D619A;stroke-width:4;}
</style>
<g id="Layer_2_00000070811986054651781710000007360177074683947440_">
	<circle class="st0" cx="320" cy="320" r="320"/>
	<g>
		<path class="st1" d="M369.7,164c-53.2,23.9-114.1,72.2-139.7,98.9c-1,0.9-1.9,1.8-2.9,2.7c-32,31.8-27,88.2,10,129.9
			c-0.3,0-0.5,0-0.8,0c-58.8,0-107.2,19-113.6,43.4c-2,5.6-1.3,21.3-0.9,29.5l0,0c0.1,2.1,0.2,3.7,0.2,4.6
			c0,22.4,51.8,45.7,114.5,45.7c62.6,0,113.4-20.1,113.4-44.9c0-0.5,0-1.9,0.1-3.9c0.1-5.4,0.4-14.9,0.3-21.8
			c0.2-1.2,0.3-2.5,0.3-3.8c0-2.3-0.4-4.5-1-6.6c12.8-3,24.5-8.9,34.1-17.9c-0.2,0.2-0.5,0.5-0.7,0.7c-2.3,2.3-4.8,4.5-7.4,6.4
			c16-8.2,27.8-25.8,42.5-48.5c46.7-80.2,91.4-163.5,99.5-221.5c5.7-41-11.3-39.8-52.4-29.7C445.1,132.2,387.1,156.1,369.7,164z
			 M347,432.2c-12-19.9-52.4-34.9-101.7-36.5c-39.2-40.7-44-96.1-14.1-125.8c30.8-30.6,89.9-25.6,132.2,15.4
			c42.2,40.9,48.1,98.6,17.4,129.1h0C371.6,423.4,360,429.4,347,432.2z M448.9,237c0-10.1-17.9-44.1-30.9-50.5
			c-20.6-10.1-20.6,0,0,20.2c8.7,8.5,15.6,17.1,20.6,23.3v0l0,0C445.5,238.5,448.9,242.8,448.9,237z M429.7,314.1
			c2-6.4-2.6-31.1-9.6-37.6c-11-10.2-13-3.9-4,12.7c3.8,7,6.5,13.7,8.4,18.5v0C427.2,314.4,428.5,317.8,429.7,314.1z M337.4,459.2
			c5-5.1,7.3-10.1,7.3-14.8s-2.2-9.7-7.3-14.8c-5.1-5.1-12.7-10-22.6-14.2c-19.8-8.5-47.5-13.8-78.5-13.8c-31,0-58.7,5.4-78.5,13.8
			c-9.9,4.2-17.5,9.1-22.6,14.2c-5,5.1-7.3,10.1-7.3,14.8s2.2,9.7,7.3,14.8c5.1,5.1,12.7,10,22.6,14.3c19.8,8.5,47.5,13.8,78.5,13.8
			c31,0,58.7-5.4,78.5-13.8C324.7,469.2,332.3,464.3,337.4,459.2z"/>
		<path class="st2" d="M418,186.4c13,6.4,30.9,40.4,30.9,50.5c0,10.1-10.3-10.1-30.9-30.3C397.4,186.4,397.4,176.3,418,186.4z
			 M420.1,276.5c6.9,6.5,11.5,31.3,9.6,37.6c-2,6.4-4.5-8.3-13.5-24.9C407.1,272.6,409.1,266.2,420.1,276.5z"/>
		<path class="st3" d="M382.2,415.7L382.2,415.7c-31.9,31.7-92.2,26-134.9-15.3C204.5,359,198,300,229.9,268.4
			c31.9-31.7,92.2-26,134.9,15.3C407.5,325.1,414,384.1,382.2,415.7z"/>
		<path class="st4" d="M346.6,444.4c0,5.4-2.5,10.9-7.8,16.2c-5.3,5.4-13.2,10.4-23.2,14.7c-20.1,8.6-48.1,14-79.2,14
			c-31.2,0-59.2-5.4-79.2-14c-10-4.3-17.9-9.3-23.2-14.7c-5.3-5.4-7.8-10.8-7.8-16.2c0-5.4,2.5-10.9,7.8-16.2
			c5.3-5.4,13.2-10.4,23.2-14.7c20.1-8.6,48.1-14,79.2-14c31.2,0,59.2,5.4,79.2,14c10,4.3,17.9,9.3,23.2,14.7
			C344.1,433.5,346.6,439,346.6,444.4z"/>
	</g>
</g>
</svg>
