<svg xmlns="http://www.w3.org/2000/svg" viewBox="0 0 640 640"><defs><style>.cls-1{fill:#ffd8ea;}.cls-2,.cls-3{fill:#ff007a;}.cls-3{fill-rule:evenodd;}</style></defs><g id="Layer_2" data-name="Layer 2"><g id="Layer_1-2" data-name="Layer 1"><circle class="cls-1" cx="320" cy="320" r="320"/><path class="cls-2" d="M287.24,205.19c-4.7-.73-4.9-.81-2.68-1.15,4.23-.65,14.24.24,21.14,1.88,16.1,3.82,30.76,13.63,46.4,31l4.15,4.63,5.94-1c25.05-4,50.52-.82,71.83,9,5.86,2.71,15.1,8.1,16.26,9.48.36.44,1,3.29,1.5,6.32,1.58,10.49.79,18.53-2.42,24.54-1.75,3.27-1.84,4.3-.67,7.1a6.87,6.87,0,0,0,6.14,3.88c5.29,0,11-8.57,13.63-20.48l1.05-4.73,2.08,2.36c11.4,12.91,20.35,30.52,21.89,43.06l.4,3.26-1.92-3a36.77,36.77,0,0,0-10.85-11.4c-7.65-5.06-15.74-6.78-37.15-7.91-19.34-1-30.29-2.67-41.14-6.21-18.47-6-27.78-14-49.71-42.82-9.75-12.78-15.77-19.86-21.76-25.55C317.74,214.64,304.36,207.85,287.24,205.19Z"/><path class="cls-2" d="M454.64,233.74c.49-8.57,1.65-14.22,4-19.38a20.6,20.6,0,0,1,1.93-3.71,13,13,0,0,1-.9,3.35c-1.69,5-2,11.85-.8,19.82,1.48,10.11,2.32,11.57,13,22.49,5,5.13,10.84,11.59,13,14.36l3.84,5.05-3.84-3.61c-4.7-4.41-15.51-13-17.9-14.23-1.6-.83-1.84-.81-2.82.17s-1.11,2.27-1.23,8.7c-.2,10-1.56,16.46-4.86,22.9-1.79,3.48-2.07,2.74-.45-1.19,1.2-2.94,1.32-4.23,1.31-13.93,0-19.5-2.33-24.19-15.91-32.23-3.44-2-9.11-5-12.59-6.52a48,48,0,0,1-6.16-3c.39-.38,13.63,3.48,19,5.53,7.93,3.05,9.23,3.44,10.2,3.08C454,241.14,454.32,239.26,454.64,233.74Z"/><path class="cls-2" d="M296.37,267.1c-9.54-13.14-15.44-33.28-14.17-48.34l.4-4.66,2.17.4a54.49,54.49,0,0,1,14.41,5.36c9,5.49,12.95,12.72,16.93,31.27,1.16,5.44,2.69,11.59,3.4,13.67,1.13,3.35,5.41,11.18,8.89,16.26,2.51,3.67.84,5.4-4.7,4.9C315.24,285.2,303.77,277.28,296.37,267.1Z"/><path class="cls-2" d="M443.06,364.87c-44.59-17.95-60.29-33.54-60.29-59.83a43.18,43.18,0,0,1,.29-7,33.93,33.93,0,0,1,3.83,2.84c9.05,7.25,19.17,10.35,47.21,14.44,16.49,2.41,25.77,4.35,34.34,7.19,27.22,9,44.06,27.34,48.07,52.29,1.17,7.25.48,20.85-1.41,28-1.49,5.65-6.05,15.86-7.26,16.25-.33.11-.66-1.18-.75-2.93-.46-9.36-5.19-18.49-13.14-25.32C484.91,383,472.76,376.83,443.06,364.87Z"/><path class="cls-2" d="M411.76,372.33a79,79,0,0,0-2.16-9.44l-1.13-3.39,2.11,2.38c2.93,3.28,5.24,7.48,7.2,13.07,1.49,4.28,1.66,5.54,1.65,12.48s-.2,8.24-1.58,12.09a38.26,38.26,0,0,1-9.41,15c-8.15,8.29-18.62,12.88-33.73,14.78-2.63.33-10.29.89-17,1.24-17,.88-28.13,2.71-38.16,6.23a7.9,7.9,0,0,1-2.86.68c-.41-.4,6.42-4.47,12.07-7.19,7.95-3.83,15.87-5.92,33.61-8.88,8.77-1.46,17.82-3.23,20.12-3.93C404.17,410.76,415.33,393.59,411.76,372.33Z"/><path class="cls-2" d="M432.2,408.63c-5.92-12.73-7.28-25-4-36.5.35-1.22.91-2.23,1.24-2.23a12,12,0,0,1,3.11,1.68c2.73,1.84,8.2,4.94,22.79,12.89,18.21,9.93,28.59,17.61,35.65,26.39,6.18,7.69,10,16.45,11.84,27.13,1,6.05.43,20.6-1.12,26.7-4.89,19.2-16.27,34.29-32.49,43.09a43.65,43.65,0,0,1-4.74,2.36c-.24,0,.63-2.2,1.92-4.9,5.46-11.41,6.08-22.5,1.95-34.86-2.52-7.56-7.67-16.79-18.08-32.39C438.14,419.86,435.18,415,432.2,408.63Z"/><path class="cls-2" d="M264.7,477.35c16.55-14,37.14-23.89,55.9-26.94,8.08-1.31,21.55-.79,29,1.12,12,3.07,22.73,10,28.31,18.14,5.46,8,7.8,15,10.23,30.52,1,6.12,2,12.27,2.33,13.66,1.83,8,5.39,14.48,9.8,17.71,7,5.13,19.08,5.45,30.95.82a15.8,15.8,0,0,1,3.89-1.21c.43.43-5.55,4.43-9.77,6.54a33.23,33.23,0,0,1-16.18,3.93c-10.87,0-19.9-5.53-27.43-16.81a132.57,132.57,0,0,1-7.41-14.77c-8-18.14-11.88-23.67-21.11-29.71-8-5.27-18.4-6.21-26.2-2.39-10.24,5-13.1,18.11-5.76,26.41a22.72,22.72,0,0,0,12.8,6.69,13.67,13.67,0,0,0,15.46-13.69c0-5.45-2.1-8.56-7.37-10.94-7.21-3.25-14.95.54-14.91,7.31,0,2.89,1.27,4.7,4.16,6,1.86.84,1.9.91.39.59C325.2,499,323.65,491,329,485.71c6.38-6.35,19.58-3.55,24.11,5.12,1.91,3.64,2.13,10.9.47,15.28-3.72,9.8-14.55,14.95-25.54,12.15-7.48-1.91-10.52-4-19.54-13.27-15.67-16.14-21.76-19.27-44.35-22.8l-4.33-.68Z"/><path class="cls-3" d="M146.52,115.72c52.34,63.52,133,162.42,137,168,3.31,4.57,2.06,8.68-3.6,11.9-3.16,1.79-9.63,3.61-12.88,3.61a16.52,16.52,0,0,1-10.81-4.62c-2.13-2-10.71-14.84-30.53-45.6-15.17-23.53-27.86-43.05-28.21-43.37-.8-.76-.78-.74,26.66,48.37,17.23,30.83,23.05,41.73,23.05,43.19,0,3-.81,4.53-4.47,8.61C236.68,312.57,234,320.21,232,336c-2.2,17.74-8.41,30.26-25.6,51.7-10.06,12.55-11.71,14.85-14.25,19.91-3.19,6.37-4.07,9.94-4.43,18a55.9,55.9,0,0,0,3,22.13c2.27,7.12,4.64,11.82,10.71,21.22,5.24,8.11,8.26,14.14,8.26,16.5,0,1.88.36,1.88,8.47,0,19.43-4.39,35.2-12.1,44.07-21.56,5.49-5.85,6.78-9.08,6.82-17.1,0-5.25-.15-6.34-1.57-9.36-2.31-4.91-6.51-9-15.77-15.33-12.14-8.29-17.32-15-18.75-24.16-1.17-7.53.19-12.85,6.9-26.92,6.95-14.56,8.67-20.77,9.84-35.45.75-9.48,1.79-13.22,4.51-16.22s5.4-4.19,12.44-5.15c11.46-1.57,18.76-4.54,24.77-10.07,5.2-4.79,7.38-9.42,7.71-16.37l.26-5.28-2.91-3.39c-10.54-12.29-157-173.1-157.6-173.1C138.68,106.06,142.15,110.4,146.52,115.72Zm69,319.52A9.32,9.32,0,0,0,212.68,423c-3.77-2.5-9.62-1.32-9.62,1.94,0,1,.55,1.72,1.79,2.36,2.09,1.07,2.24,2.28.6,4.75s-1.53,4.7.38,6.2C208.91,440.61,213.26,439.28,215.54,435.24Z"/><path class="cls-3" d="M306.56,317c-5.38,1.66-10.61,7.36-12.23,13.34-1,3.65-.43,10.05,1.05,12,2.39,3.19,4.71,4,11,4,12.25-.08,22.91-5.34,24.15-11.91,1-5.39-3.67-12.86-10.11-16.14C317.06,316.65,310,316,306.56,317Zm14.33,11.21c1.89-2.69,1.07-5.59-2.15-7.55-6.12-3.74-15.38-.65-15.38,5.14,0,2.88,4.83,6,9.26,6C315.56,331.85,319.59,330.09,320.89,328.24Z"/></g></g></svg>