<svg width="206" height="206" viewBox="0 0 206 206" fill="none" xmlns="http://www.w3.org/2000/svg">
<path d="M103 206C159.885 206 206 159.885 206 103C206 46.1147 159.885 0 103 0C46.1147 0 0 46.1147 0 103C0 159.885 46.1147 206 103 206Z" fill="#FF007A"/>
<path d="M92.4549 66.0454C90.9421 65.8105 90.8777 65.7847 91.5923 65.6753C92.9538 65.4661 96.1758 65.7525 98.3967 66.2804C103.579 67.51 108.298 70.6676 113.332 76.2585L114.668 77.7488L116.579 77.4269C124.642 76.1394 132.841 77.163 139.7 80.3238C141.586 81.1961 144.56 82.931 144.933 83.3752C145.049 83.5168 145.255 84.4342 145.416 85.4094C145.925 88.7859 145.67 91.3738 144.637 93.3083C144.074 94.3608 144.045 94.6923 144.422 95.5936C144.601 95.9656 144.882 96.2798 145.231 96.5005C145.581 96.7213 145.985 96.8397 146.398 96.8424C148.101 96.8424 149.939 94.084 150.785 90.2504L151.123 88.728L151.793 89.4876C155.462 93.643 158.343 99.3112 158.838 103.348L158.967 104.397L158.349 103.431C157.463 101.97 156.272 100.719 154.857 99.7618C152.394 98.1332 149.79 97.5795 142.899 97.2158C136.674 96.8939 133.15 96.3564 129.657 95.217C123.712 93.2857 120.716 90.7107 113.657 81.4343C110.519 77.3207 108.581 75.0418 106.653 73.2104C102.272 69.0872 97.9654 66.9016 92.4549 66.0454Z" fill="white"/>
<path d="M146.337 75.2348C146.495 72.4764 146.868 70.6578 147.625 68.9969C147.791 68.5788 147.999 68.1787 148.246 67.8027C148.198 68.1735 148.1 68.5361 147.956 68.881C147.412 70.4904 147.312 72.6952 147.699 75.2606C148.175 78.5147 148.445 78.9847 151.883 82.4995C153.492 84.1508 155.372 86.2301 156.067 87.1217L157.303 88.7471L156.067 87.5852C154.555 86.1657 151.075 83.4008 150.306 83.0049C149.791 82.7377 149.714 82.7442 149.398 83.0596C149.083 83.375 149.041 83.7903 149.002 85.8599C148.938 89.0787 148.5 91.158 147.438 93.2309C146.862 94.351 146.772 94.1128 147.293 92.8478C147.679 91.9015 147.718 91.4863 147.715 88.3641C147.715 82.0875 146.965 80.578 142.594 77.9901C141.486 77.3463 139.661 76.3807 138.541 75.8915C137.858 75.6172 137.196 75.2945 136.559 74.9258C136.684 74.8035 140.946 76.046 142.674 76.7058C145.227 77.6875 145.645 77.813 145.957 77.6972C146.131 77.6167 146.234 77.0116 146.337 75.2348Z" fill="white"/>
<path d="M95.3944 85.9725C92.3237 81.743 90.4247 75.2605 90.8334 70.413L90.9622 68.9131L91.6607 69.0418C93.2805 69.3948 94.8421 69.9757 96.2989 70.7671C99.1957 72.5342 100.467 74.8613 101.748 80.8321C102.122 82.5831 102.614 84.5626 102.843 85.2321C103.206 86.3104 104.584 88.8307 105.704 90.4658C106.512 91.6471 105.974 92.204 104.191 92.043C101.468 91.7984 97.7763 89.2491 95.3944 85.9725Z" fill="white"/>
<path d="M142.61 117.443C128.258 111.665 123.204 106.647 123.204 98.1848C123.174 97.4324 123.206 96.6789 123.298 95.9316C123.73 96.2071 124.142 96.5125 124.531 96.8458C127.443 99.1794 130.701 100.177 139.726 101.494C145.034 102.269 148.021 102.894 150.779 103.808C159.541 106.705 164.961 112.608 166.252 120.639C166.629 122.972 166.406 127.35 165.798 129.651C165.318 131.47 163.851 134.756 163.461 134.882C163.355 134.917 163.249 134.502 163.22 133.939C163.072 130.926 161.549 127.987 158.99 125.789C156.081 123.278 152.17 121.292 142.61 117.443Z" fill="white"/>
<path d="M132.535 119.844C132.366 118.817 132.133 117.803 131.84 116.805L131.476 115.714L132.155 116.48C133.098 117.536 133.842 118.888 134.473 120.687C134.952 122.064 135.007 122.47 135.004 124.704C135.001 126.938 134.939 127.356 134.495 128.595C133.877 130.419 132.84 132.073 131.466 133.423C128.843 136.092 125.473 137.569 120.61 138.181C119.763 138.287 117.297 138.467 115.138 138.58C109.666 138.863 106.083 139.452 102.855 140.585C102.564 140.715 102.252 140.789 101.934 140.804C101.802 140.675 104.001 139.365 105.819 138.49C108.378 137.257 110.928 136.584 116.638 135.631C119.46 135.162 122.373 134.592 123.114 134.367C130.092 132.213 133.684 126.687 132.535 119.844Z" fill="white"/>
<path d="M139.114 131.528C137.208 127.43 136.771 123.481 137.826 119.779C137.939 119.387 138.119 119.062 138.226 119.062C138.584 119.191 138.921 119.374 139.227 119.602C140.105 120.195 141.866 121.192 146.562 123.751C152.424 126.947 155.765 129.419 158.037 132.246C160.026 134.721 161.256 137.54 161.848 140.978C162.17 142.925 161.986 147.609 161.488 149.572C159.914 155.752 156.251 160.609 151.03 163.442C150.537 163.725 150.028 163.979 149.504 164.201C149.427 164.201 149.707 163.493 150.122 162.624C151.88 158.951 152.079 155.382 150.75 151.404C149.939 148.97 148.281 145.999 144.93 140.978C141.026 135.142 140.073 133.578 139.114 131.528Z" fill="white"/>
<path d="M85.2006 153.647C90.5277 149.141 97.1551 145.957 103.193 144.976C105.794 144.554 110.13 144.721 112.528 145.336C116.39 146.324 119.844 148.555 121.64 151.175C123.398 153.75 124.151 156.003 124.933 160.998C125.255 162.968 125.577 164.948 125.683 165.395C126.272 167.97 127.418 170.056 128.837 171.096C131.09 172.747 134.979 172.85 138.799 171.36C139.198 171.176 139.619 171.045 140.051 170.97C140.19 171.109 138.265 172.396 136.907 173.075C135.306 173.932 133.514 174.367 131.699 174.34C128.2 174.34 125.293 172.56 122.87 168.929C121.977 167.396 121.18 165.808 120.485 164.175C117.91 158.337 116.661 156.557 113.69 154.612C111.115 152.916 107.767 152.614 105.257 153.843C101.961 155.453 101.04 159.672 103.403 162.344C104.505 163.491 105.952 164.247 107.523 164.497C108.147 164.58 108.783 164.527 109.385 164.343C109.988 164.159 110.544 163.847 111.016 163.429C111.488 163.011 111.864 162.497 112.12 161.921C112.376 161.345 112.505 160.721 112.499 160.091C112.499 158.337 111.823 157.336 110.127 156.569C107.806 155.523 105.315 156.743 105.327 158.922C105.327 159.853 105.736 160.435 106.666 160.854C107.265 161.124 107.278 161.147 106.792 161.044C104.674 160.615 104.175 158.04 105.897 156.338C107.951 154.294 112.2 155.195 113.658 157.986C114.272 159.157 114.343 161.494 113.809 162.904C112.612 166.058 109.126 167.716 105.588 166.815C103.181 166.2 102.202 165.527 99.2988 162.543C94.255 157.348 92.2948 156.341 85.0236 155.205L83.6299 154.986L85.2006 153.647Z" fill="white"/>
<path fill-rule="evenodd" clip-rule="evenodd" d="M47.161 37.2478C64.0079 57.6933 89.9704 89.5267 91.2579 91.3228C92.3233 92.7937 91.9209 94.1166 90.0991 95.1531C89.082 95.7292 86.9995 96.315 85.9534 96.315C84.6504 96.2628 83.4122 95.7335 82.4739 94.828C81.7883 94.1842 79.0266 90.0514 72.6471 80.1505C67.7642 72.5768 63.6796 66.2938 63.567 66.1908C63.3095 65.9461 63.3159 65.9526 72.1481 81.7599C77.6941 91.6833 79.5674 95.1917 79.5674 95.6616C79.5674 96.6273 79.3066 97.1197 78.1286 98.433C76.1812 100.609 75.3186 103.068 74.6749 108.15C73.9667 113.86 71.9679 117.89 66.4349 124.791C63.1968 128.831 62.6657 129.571 61.8481 131.2C60.8214 133.25 60.5381 134.399 60.4222 136.994C60.2617 139.409 60.5902 141.831 61.3879 144.117C62.1185 146.408 62.8814 147.921 64.8351 150.947C66.5218 153.557 67.4938 155.498 67.4938 156.258C67.4938 156.863 67.6097 156.863 70.2201 156.258C76.4742 154.845 81.5501 152.363 84.4052 149.318C86.1722 147.435 86.5875 146.396 86.6003 143.814C86.6003 142.124 86.5521 141.773 86.095 140.801C85.3515 139.221 83.9996 137.905 81.019 135.867C77.1115 133.199 75.4442 131.039 74.9839 128.091C74.6073 125.667 75.045 123.954 77.2048 119.426C79.4418 114.739 79.9955 112.74 80.3721 108.015C80.6135 104.964 80.9482 103.76 81.8237 102.794C82.6992 101.829 83.5618 101.446 85.8278 101.137C89.5165 100.631 91.8662 99.6754 93.8007 97.8955C95.4744 96.3537 96.1761 94.8634 96.2823 92.6264L96.366 90.9269L95.4294 89.8357C92.0368 85.8799 44.895 34.1191 44.7019 34.1191C44.6375 34.1385 45.7544 35.5354 47.161 37.2478ZM69.3704 140.093C69.7368 139.441 69.8462 138.675 69.6771 137.946C69.5079 137.217 69.0725 136.578 68.4562 136.154C67.2428 135.349 65.3598 135.729 65.3598 136.778C65.3598 137.1 65.5368 137.332 65.936 137.538C66.6087 137.882 66.657 138.271 66.1291 139.066C65.6012 139.862 65.6366 140.579 66.2514 141.062C67.2428 141.822 68.6429 141.394 69.3768 140.093H69.3704Z" fill="white"/>
<path fill-rule="evenodd" clip-rule="evenodd" d="M98.6741 102.035C96.9424 102.569 95.259 104.404 94.7376 106.328C94.4157 107.503 94.5992 109.563 95.0756 110.191C95.8448 111.218 96.5916 111.478 98.6162 111.478C102.559 111.453 105.99 109.76 106.389 107.645C106.711 105.91 105.208 103.506 103.135 102.45C102.054 101.922 99.7814 101.713 98.6741 102.035ZM103.287 105.643C103.895 104.777 103.631 103.844 102.595 103.213C100.625 102.009 97.6441 103.004 97.6441 104.867C97.6441 105.794 99.1988 106.798 100.625 106.798C101.571 106.815 102.868 106.248 103.287 105.653V105.643Z" fill="white"/>
</svg>
