<svg width="25" height="25" viewBox="0 0 25 25" fill="none" xmlns="http://www.w3.org/2000/svg">
<path d="M12.4655 25C19.35 25 24.931 19.4036 24.931 12.5C24.931 5.59644 19.35 0 12.4655 0C5.581 0 0 5.59644 0 12.5C0 19.4036 5.581 25 12.4655 25Z" fill="black"/>
<path d="M12.741 12.5019L13.4924 13.286L14.2357 12.5019L13.4924 11.7178L12.741 12.5019Z" fill="#FC5101"/>
<path d="M13.1249 9.37276C13.6722 8.79691 13.8192 7.9842 13.5088 7.25316C13.3005 6.76716 12.9289 6.40777 12.4674 6.21582C12.0059 6.40368 11.6343 6.76716 11.426 7.25316C11.1115 7.9842 11.2585 8.79691 11.8099 9.37276L12.4674 10.063L13.1249 9.37276Z" fill="#FC5101"/>
<path d="M11.7163 13.5746L12.4678 14.3588L13.2151 13.5746L12.4678 12.7905L11.7163 13.5746Z" fill="#FC5101"/>
<path d="M13.8764 7.09646C14.2521 7.97452 14.0765 8.95469 13.4149 9.64488L12.7451 10.3514L13.4925 11.1355L15.1669 9.37943C15.7183 8.80358 15.8653 7.98678 15.5509 7.25574C15.2772 6.61863 14.7259 6.1939 14.0601 6.0918H13.0678C13.4149 6.33684 13.6967 6.67989 13.8764 7.09646Z" fill="#FC5101"/>
<path d="M15.9101 7.10055C16.29 7.98269 16.1103 8.96286 15.4487 9.65714L13.762 11.4255L14.5093 12.2096L17.0577 9.5387C17.6336 8.93427 17.7888 8.08071 17.458 7.31291C17.1721 6.64722 16.5881 6.19798 15.8938 6.0918H15.0974C15.4487 6.33684 15.7304 6.67989 15.9101 7.10055Z" fill="#FC5101"/>
<path d="M9.38815 7.26013C9.07368 7.99526 9.2207 8.80797 9.77205 9.38382L11.4465 11.1399L12.1939 10.3558L11.5241 9.64928C10.8625 8.955 10.6869 7.97892 11.0626 7.10086C11.2423 6.68429 11.5241 6.34123 11.8712 6.09619H10.8788C10.2172 6.19829 9.66177 6.62711 9.38815 7.26013Z" fill="#FC5101"/>
<path d="M11.4463 11.7178L10.6948 12.5019L11.4463 13.286L12.1896 12.5019L11.4463 11.7178Z" fill="#FC5101"/>
<path d="M13.2151 11.4243L12.4678 10.6401L11.7163 11.4243L12.4678 12.2084L13.2151 11.4243Z" fill="#FC5101"/>
<path d="M15.5425 17.7387C15.857 17.0035 15.71 16.1909 15.1586 15.615L13.4842 13.8589L12.7368 14.643L13.4066 15.3495C14.0682 16.0438 14.2438 17.0199 13.8681 17.898C13.6884 18.3146 13.4066 18.6576 13.0595 18.9026H14.0519C14.7135 18.8005 15.2689 18.3717 15.5425 17.7387Z" fill="#FC5101"/>
<path d="M17.4621 17.6872C17.7929 16.9195 17.6378 16.0659 17.0619 15.4615L14.5135 12.7905L13.7661 13.5746L15.4528 15.343C16.1144 16.0373 16.29 17.0175 15.9143 17.8996C15.7346 18.3203 15.4528 18.6633 15.1015 18.9083H15.8979C16.5923 18.8022 17.1763 18.357 17.4621 17.6872Z" fill="#FC5101"/>
<path d="M11.81 15.6262C11.2628 16.2021 11.1158 17.0148 11.4261 17.7458C11.6344 18.2318 12.0061 18.5912 12.4676 18.7831C12.9291 18.5953 13.3007 18.2318 13.509 17.7458C13.8234 17.0148 13.6764 16.2021 13.1251 15.6262L12.4676 14.936L11.81 15.6262Z" fill="#FC5101"/>
<path d="M9.02017 17.8996C8.64036 17.0175 8.82005 16.0373 9.48166 15.343L11.1684 13.5746L10.421 12.7905L7.87256 15.4615C7.29671 16.0659 7.14152 16.9195 7.47233 17.6872C7.75821 18.353 8.34222 18.8022 9.0365 18.9083H9.83288C9.48166 18.6633 9.19986 18.3203 9.02017 17.8996Z" fill="#FC5101"/>
<path d="M7.46866 7.31291C7.13786 8.08071 7.29305 8.93427 7.8689 9.5387L10.4173 12.2096L11.1647 11.4255L9.478 9.65714C8.81639 8.96286 8.64077 7.98269 9.01651 7.10055C9.1962 6.67989 9.478 6.33684 9.82922 6.0918H9.03284C8.33856 6.19798 7.75455 6.64314 7.46866 7.31291Z" fill="#FC5101"/>
<path d="M11.0626 17.9024C10.6869 17.0243 10.8625 16.0441 11.5241 15.354L12.1939 14.6474L11.4465 13.8633L9.77205 15.6194C9.2207 16.1953 9.07368 17.0121 9.38815 17.7431C9.66177 18.3802 10.2131 18.805 10.8788 18.9071H11.8712C11.5241 18.662 11.2423 18.319 11.0626 17.9024Z" fill="#FC5101"/>
</svg>
