<?xml version="1.0" encoding="UTF-8"?>
<svg xmlns="http://www.w3.org/2000/svg" width="25" height="25" viewBox="0 0 25 25" fill="none">
  <g clip-path="url(#clip0_7311_351)">
    <mask id="mask0_7311_351" style="mask-type:luminance" maskUnits="userSpaceOnUse" x="0" y="0" width="25" height="25">
      <path d="M25 0H0V25H25V0Z" fill="white"></path>
    </mask>
    <g mask="url(#mask0_7311_351)">
      <path d="M12.5 25C19.4036 25 25 19.4036 25 12.5C25 5.59644 19.4036 0 12.5 0C5.59644 0 0 5.59644 0 12.5C0 19.4036 5.59644 25 12.5 25Z" fill="white"></path>
    </g>
    <path d="M18.7323 16.3713C18.7227 16.3792 18.7132 16.3877 18.7032 16.3951C18.6937 16.403 18.6837 16.4105 18.6738 16.4184C18.6552 16.4327 18.6361 16.4466 18.6166 16.46C18.6144 16.4615 18.6121 16.463 18.6098 16.4649C18.594 16.4758 18.5781 16.4867 18.5618 16.4971C18.5377 16.513 18.5142 16.5279 18.4897 16.5427C18.3237 16.6438 18.1491 16.725 17.9709 16.7969C17.8027 16.8642 17.6322 16.9232 17.4604 16.9757C17.2142 17.051 16.9648 17.1134 16.7131 17.1679C16.4687 17.2214 16.2234 17.2665 15.9772 17.3056C15.731 17.3448 15.4839 17.3775 15.2363 17.4057C15.1551 17.4151 15.074 17.4235 14.9928 17.432C14.83 17.4483 14.6672 17.4622 14.5045 17.4741C14.4228 17.48 14.3412 17.4855 14.2601 17.4904C14.0773 17.5018 13.8946 17.5102 13.7119 17.5167C13.6788 17.5177 13.6457 17.5191 13.6121 17.5201C13.5817 17.5211 13.5513 17.5221 13.5205 17.5231C13.5953 17.422 13.6701 17.3215 13.7386 17.215C13.7486 17.2016 13.7586 17.1882 13.7681 17.1744C13.9227 16.9475 14.0705 16.7156 14.212 16.4793C14.2265 16.4783 14.241 16.4778 14.2551 16.4768C14.3448 16.4714 14.4346 16.4649 14.5244 16.4585C14.5924 16.4536 14.6604 16.4481 14.7285 16.4422C15.2041 16.402 15.6779 16.3446 16.1495 16.2638C16.2869 16.2405 16.4234 16.2148 16.5594 16.1875C16.8777 16.1231 17.1933 16.0458 17.5044 15.9487C17.5728 15.9274 17.6408 15.9052 17.7089 15.8819C17.7429 15.87 17.7769 15.8581 17.8109 15.8457C17.8621 15.8556 17.9088 15.8789 17.9569 15.8982C17.9991 15.9151 18.0412 15.9329 18.0834 15.9512C18.2026 16.0027 18.3196 16.0597 18.433 16.1256C18.4779 16.1514 18.5219 16.1786 18.5654 16.2073C18.623 16.2455 18.6792 16.2856 18.7318 16.3317C18.7472 16.3451 18.7518 16.3505 18.7459 16.3584C18.7431 16.3624 18.7386 16.3664 18.7313 16.3723L18.7323 16.3713Z" fill="#F1ECE2"></path>
    <path d="M14.3239 18.7665C14.3143 18.7725 14.3039 18.7725 14.2939 18.7688C14.2967 18.7669 14.2989 18.766 14.3012 18.7651C14.3053 18.7637 14.3089 18.7637 14.313 18.7637C14.3166 18.7637 14.3207 18.7646 14.3243 18.7665H14.3239Z" fill="#5E93FF"></path>
    <path d="M14.2832 18.7688C14.271 18.7744 14.2588 18.7749 14.2456 18.7712C14.2578 18.7637 14.2705 18.7647 14.2832 18.7688Z" fill="#5E93FF"></path>
    <path d="M14.2359 18.7711C14.2236 18.7767 14.2114 18.7772 14.1982 18.7735C14.2105 18.7656 14.2227 18.7665 14.2359 18.7711Z" fill="#5E93FF"></path>
    <path d="M14.1871 18.7729C14.1748 18.7789 14.1626 18.7789 14.1499 18.7747C14.1499 18.7747 14.1508 18.7747 14.1513 18.7743C14.1631 18.7682 14.1753 18.7682 14.1871 18.7729Z" fill="#5E93FF"></path>
    <path d="M14.1143 18.7724C14.1225 18.7706 14.1311 18.7715 14.1397 18.7748C14.1274 18.7808 14.1147 18.7808 14.1021 18.7771C14.1061 18.7748 14.1102 18.7734 14.1143 18.7724Z" fill="#5E93FF"></path>
    <path d="M14.0714 18.7719C14.0777 18.7719 14.0841 18.7733 14.0909 18.7752C14.0787 18.7808 14.0664 18.7812 14.0537 18.7771C14.0596 18.7733 14.0655 18.7719 14.0714 18.7715V18.7719Z" fill="#5E93FF"></path>
    <path d="M14.0339 18.7763C14.0371 18.7767 14.0398 18.7777 14.0426 18.7786C14.0308 18.7842 14.0181 18.7846 14.0054 18.7809C14.014 18.7753 14.0231 18.7744 14.0321 18.7763C14.0321 18.7763 14.0326 18.7763 14.033 18.7763H14.0335H14.0339Z" fill="#5E93FF"></path>
    <path d="M13.9951 18.7827C13.9806 18.7892 13.9656 18.7888 13.9507 18.7846C13.9652 18.7776 13.9802 18.7781 13.9951 18.7827Z" fill="#5E93FF"></path>
    <path d="M13.9395 18.7849C13.9273 18.7914 13.915 18.7905 13.9023 18.7867C13.9141 18.7798 13.9268 18.7798 13.9395 18.7849Z" fill="#5E93FF"></path>
    <path d="M17.1211 15.6205C17.127 15.6215 17.1338 15.6215 17.1402 15.6224C17.1483 15.6233 17.1565 15.6256 17.1628 15.6326C17.1461 15.6312 17.1297 15.6275 17.1152 15.6191C17.1161 15.6191 17.1175 15.6191 17.1184 15.6196C17.1193 15.6196 17.1202 15.6196 17.1216 15.6201L17.1211 15.6205Z" fill="#5E93FF"></path>
    <path d="M10.2147 19.9922C10.2161 19.995 10.2174 19.9978 10.2183 20.0001L9.96533 20.001C9.96669 19.9982 9.96805 19.9954 9.96941 19.9927C9.98982 19.9927 10.0102 19.9927 10.0306 19.9927C10.0918 19.9927 10.1531 19.9927 10.2143 19.9927L10.2147 19.9922Z" fill="#3180F4"></path>
    <path d="M17.8123 15.8455C17.7783 15.8579 17.7447 15.8698 17.7102 15.8817C17.6422 15.9049 17.5742 15.9272 17.5057 15.9485C17.1942 16.0456 16.8791 16.1229 16.5608 16.1873C16.4248 16.2151 16.2878 16.2403 16.1509 16.2636C15.6793 16.3444 15.2055 16.4018 14.7298 16.4419C14.6618 16.4479 14.5938 16.4533 14.5258 16.4583C14.436 16.4647 14.3462 16.4712 14.2565 16.4766C14.2419 16.4776 14.2279 16.4781 14.2134 16.4791C14.3109 16.3161 14.4056 16.1512 14.4972 15.9837C14.6296 15.742 14.7561 15.4967 14.8763 15.248C15.1057 15.2698 15.3347 15.2951 15.5637 15.3258C15.5805 15.3278 15.5973 15.3318 15.6145 15.3347C15.717 15.3427 15.8185 15.3595 15.9196 15.3759C16.0498 15.3967 16.1799 15.4195 16.3096 15.4432C16.4846 15.4754 16.6596 15.5111 16.8333 15.5522C16.9272 15.5745 17.0206 15.5973 17.1144 15.6196C17.1294 15.6285 17.1453 15.632 17.162 15.634C17.3625 15.6899 17.5624 15.7489 17.7588 15.8197C17.7769 15.8262 17.7978 15.8282 17.8118 15.845L17.8123 15.8455Z" fill="#FDBF41"></path>
    <path d="M11.145 17.457C11.2257 17.464 11.3069 17.4709 11.3876 17.4768C11.3064 17.4709 11.2257 17.464 11.145 17.457Z" fill="#F1ECE2"></path>
    <path d="M8.55591 19.4347C8.54956 19.4347 8.54412 19.4328 8.54004 19.4277C8.54004 19.4277 8.54095 19.4277 8.5414 19.4277C8.54231 19.4277 8.54321 19.4277 8.54412 19.4277C8.54503 19.4277 8.54548 19.4282 8.54639 19.4282C8.54684 19.4282 8.54775 19.4282 8.5482 19.4287C8.54911 19.4287 8.55001 19.4296 8.55092 19.4301C8.55092 19.4301 8.55183 19.4301 8.55228 19.4305C8.55319 19.4315 8.5541 19.4324 8.555 19.4333C8.555 19.4333 8.555 19.4333 8.55546 19.4333L8.55591 19.4347Z" fill="#404A5A"></path>
    <path d="M8.54028 19.4254C8.53394 19.4254 8.52804 19.424 8.52441 19.418C8.52441 19.418 8.52759 19.418 8.52895 19.418H8.5294C8.53348 19.4189 8.53711 19.4208 8.53983 19.4249C8.53983 19.4249 8.53983 19.4249 8.53983 19.4254H8.54028Z" fill="#404A5A"></path>
    <path d="M8.52417 19.4166C8.51737 19.4166 8.51102 19.4161 8.5083 19.4087C8.5083 19.4087 8.5083 19.4087 8.5083 19.4082H8.50875C8.5151 19.4082 8.521 19.4096 8.52417 19.4161V19.4166Z" fill="#404A5A"></path>
    <path d="M8.50858 19.4085V19.4095C8.50223 19.4095 8.49543 19.4104 8.49316 19.4016V19.4006C8.49997 19.3997 8.50586 19.4011 8.50903 19.4085H8.50858Z" fill="#404A5A"></path>
    <path d="M8.4465 19.3672C8.45103 19.3707 8.45647 19.3731 8.46146 19.3756C8.46509 19.3776 8.46872 19.3791 8.47234 19.3811C8.47869 19.3845 8.48459 19.389 8.48867 19.3954C8.49003 19.3974 8.49139 19.4004 8.49275 19.4034C8.47144 19.4014 8.45285 19.392 8.43652 19.3771L8.4465 19.3672Z" fill="#404A5A"></path>
    <path d="M9.90103 18.6174C9.88334 18.6203 9.86566 18.6233 9.84843 18.6263C9.78041 18.6362 9.7124 18.6421 9.64393 18.6441C9.62126 18.6446 9.59813 18.6451 9.57546 18.6446C9.55234 18.6446 9.52967 18.6436 9.50653 18.6426C9.49656 18.6421 9.48703 18.6406 9.47706 18.6397C9.46754 18.6387 9.45756 18.6372 9.44759 18.6362C9.43489 18.6352 9.42537 18.6293 9.41585 18.6203C9.38864 18.5936 9.36279 18.5658 9.3374 18.5371C9.52513 18.5668 9.71285 18.5936 9.90103 18.6179V18.6174Z" fill="#F1ECE2"></path>
    <path d="M12.8544 15.1543C12.7193 15.1543 12.5842 15.1563 12.449 15.1588C12.2241 15.5397 11.9815 15.9073 11.7167 16.2565C11.661 16.3299 11.6047 16.4022 11.5472 16.4735C11.4021 16.6544 11.2506 16.8287 11.0919 16.9952C10.9527 17.1408 10.809 17.28 10.6589 17.4108C10.5419 17.5134 10.4208 17.611 10.2952 17.7016C10.064 17.8691 9.82139 18.0132 9.56022 18.1182C9.42782 18.1712 9.2927 18.2143 9.15304 18.2396C9.14533 18.2411 9.13808 18.2446 9.13037 18.247C9.13082 18.2495 9.13173 18.2525 9.13218 18.255C9.13264 18.2565 9.13309 18.2579 9.134 18.2594C9.14397 18.2763 9.15395 18.2926 9.16438 18.3085C9.18524 18.3412 9.207 18.3729 9.22922 18.4036C9.26277 18.4497 9.29859 18.4942 9.33623 18.5368C9.52394 18.5666 9.71166 18.5933 9.89984 18.6176C9.95017 18.6092 10 18.5983 10.0495 18.5854C10.1642 18.5557 10.2757 18.5165 10.385 18.4705C10.4394 18.4472 10.4934 18.4224 10.5464 18.3957C10.5995 18.3689 10.6521 18.3407 10.7042 18.3105C10.7269 18.2976 10.7491 18.2842 10.7718 18.2708C10.9278 18.1772 11.0774 18.0722 11.2207 17.9592C11.3644 17.8458 11.5023 17.7239 11.636 17.5961C11.6551 17.5778 11.6741 17.5594 11.6932 17.5406C11.7072 17.5267 11.7208 17.5129 11.7353 17.4985C11.821 17.4128 11.9054 17.3246 11.9874 17.2345C12.0192 17.1993 12.0505 17.1641 12.0818 17.1279C12.1847 17.01 12.2849 16.8897 12.3824 16.7663C12.4409 16.6925 12.498 16.6172 12.5542 16.5414C12.561 16.5325 12.5678 16.5231 12.5746 16.5137C12.6132 16.4611 12.6513 16.4081 12.6894 16.3546C12.8086 16.1862 12.9233 16.0143 13.034 15.8389C13.0938 15.7438 13.1523 15.6482 13.2099 15.5516C13.2421 15.4971 13.2738 15.4426 13.3051 15.3881C13.3482 15.3133 13.3904 15.2375 13.4321 15.1617C13.2394 15.1568 13.0471 15.1543 12.8544 15.1543Z" fill="#F1ECE2"></path>
    <path d="M7.71208 19.0226C7.70494 19.0241 7.69933 19.0221 7.69678 19.0142C7.70443 19.0126 7.71004 19.0142 7.71208 19.0226Z" fill="#C18B00"></path>
    <path d="M11.7087 15.1859C11.6122 15.1909 11.5156 15.1968 11.4195 15.2033C11.3138 15.3667 11.2045 15.5277 11.0903 15.6848C10.9783 15.8393 10.8635 15.9909 10.7429 16.1381C10.6745 16.2213 10.6055 16.304 10.5348 16.3853C10.4849 16.4427 10.4341 16.4997 10.382 16.5552C10.1748 16.7766 9.95759 16.9857 9.72407 17.1744C9.68507 17.2056 9.64608 17.2364 9.60618 17.2666C9.47513 17.3661 9.33956 17.4583 9.19855 17.541C9.09652 17.6015 8.99132 17.655 8.88477 17.704C8.88567 17.7095 8.88477 17.7154 8.88703 17.7209C8.902 17.7659 8.91787 17.81 8.9351 17.8541C8.95187 17.8982 8.97001 17.9413 8.98905 17.9839C9.02714 18.0691 9.06977 18.1523 9.11602 18.2336L9.11692 18.2346C9.1201 18.2395 9.12554 18.244 9.12962 18.2484C9.13733 18.246 9.14458 18.2425 9.15229 18.241C9.29149 18.2157 9.42662 18.1726 9.55947 18.1196C9.82065 18.0151 10.0632 17.8705 10.2945 17.703C10.4201 17.6124 10.5412 17.5148 10.6581 17.4122C10.8082 17.2809 10.952 17.1417 11.0912 16.9966C11.2503 16.8301 11.4013 16.6558 11.5464 16.4749C11.604 16.4036 11.6602 16.3313 11.716 16.258C11.9808 15.9087 12.2234 15.5411 12.4483 15.1602C12.2016 15.1651 11.9545 15.173 11.7083 15.1864L11.7087 15.1859Z" fill="#FDBF41"></path>
    <path d="M16.5593 11.1325C16.567 11.1325 16.5756 11.1325 16.5706 11.1191C16.5742 11.1191 16.5779 11.1201 16.5819 11.1206C16.5797 11.1206 16.5779 11.1211 16.5765 11.1221C16.5733 11.1246 16.5733 11.13 16.5742 11.1365C16.5692 11.1365 16.5642 11.136 16.5593 11.1355C16.5565 11.1355 16.5534 11.135 16.5506 11.1345C16.5448 11.134 16.5384 11.133 16.5325 11.1325C16.5189 11.1305 16.5048 11.1276 16.4917 11.1241C16.5148 11.1226 16.537 11.1315 16.5597 11.133L16.5593 11.1325Z" fill="#E7AA24"></path>
    <path d="M9.52361 16.2391C9.53358 16.2411 9.5431 16.2426 9.55263 16.2445C9.36354 16.4442 9.16494 16.6314 8.95318 16.8028C8.8761 16.8653 8.79901 16.9277 8.71558 16.9807C8.70016 16.9079 8.69336 16.8336 8.68565 16.7593C8.65935 16.5225 8.64938 16.2847 8.64893 16.0469C8.70152 16.0607 8.75412 16.0741 8.80717 16.0875C8.96179 16.1261 9.11687 16.1603 9.27239 16.1915C9.35628 16.2084 9.44016 16.2242 9.52406 16.2396L9.52361 16.2391Z" fill="#F1ECE2"></path>
    <path d="M10.3894 15.3002C10.3672 15.3032 10.3445 15.3051 10.3219 15.3076C10.0988 15.6177 9.86073 15.9135 9.60228 16.1904C9.58595 16.2083 9.56917 16.2256 9.55285 16.2429C9.56056 16.2444 9.56827 16.2459 9.57552 16.2474C9.56781 16.2459 9.56056 16.2444 9.55285 16.2434C9.36377 16.4431 9.16517 16.6303 8.95342 16.8017C8.87634 16.8642 8.79925 16.9266 8.71582 16.9796C8.71673 16.9895 8.71718 16.9999 8.71809 17.0098C8.71809 17.0128 8.71809 17.0152 8.71899 17.0182C8.72081 17.0296 8.72308 17.041 8.72489 17.0524C8.72625 17.0618 8.72761 17.0707 8.72942 17.0801C8.7335 17.1029 8.73759 17.1262 8.74167 17.1495C8.7657 17.2803 8.79426 17.4096 8.83009 17.5369C8.84641 17.5939 8.85956 17.6523 8.88586 17.7058C8.99241 17.6568 9.09761 17.6033 9.19963 17.5428C9.34065 17.4596 9.47623 17.3675 9.60726 17.2684C9.64717 17.2387 9.68616 17.208 9.72516 17.1763C9.95867 16.988 10.1759 16.7785 10.3831 16.557C10.4352 16.5015 10.4856 16.4446 10.5359 16.3871C10.6066 16.3058 10.6755 16.2231 10.744 16.1399C10.8642 15.9928 10.9793 15.8412 11.0913 15.6866C11.2052 15.5291 11.3149 15.3686 11.4205 15.2051C11.0768 15.2279 10.7336 15.2596 10.3908 15.3012L10.3894 15.3002Z" fill="#FF1100"></path>
    <path d="M9.57541 16.2459C9.5677 16.2445 9.56044 16.2431 9.55273 16.2422C9.56044 16.2436 9.56815 16.245 9.57541 16.2459Z" fill="#F1ECE2"></path>
    <path d="M9.55295 16.2434C9.54342 16.242 9.53345 16.2401 9.52393 16.2383L9.55295 16.2429V16.2434Z" fill="#FF1100"></path>
    <path d="M9.27246 16.1895C9.35635 16.2063 9.44023 16.2221 9.52411 16.2375C9.44023 16.2221 9.35589 16.2063 9.27246 16.1895Z" fill="#FF1100"></path>
    <path d="M10.1742 15.3314C10.2227 15.32 10.2722 15.314 10.3216 15.3086C10.0985 15.6187 9.86046 15.9145 9.602 16.1914C9.58568 16.2092 9.5689 16.2266 9.55258 16.2439L9.52356 16.2389C9.43968 16.2236 9.35579 16.2077 9.27191 16.1909C9.11638 16.1597 8.96085 16.1255 8.80669 16.0869C8.75409 16.0735 8.70104 16.0601 8.64844 16.0462C8.64844 15.9566 8.64934 15.8664 8.65161 15.7762C8.65297 15.7227 8.65524 15.6697 8.65796 15.6167C8.83707 15.5702 9.01753 15.529 9.19845 15.4914C9.50769 15.4275 9.81874 15.3755 10.1307 15.3334C10.1357 15.3329 10.1407 15.3319 10.1457 15.3314C10.1516 15.3304 10.1575 15.3299 10.1633 15.3304C10.167 15.3304 10.1706 15.3314 10.1742 15.3324V15.3314Z" fill="#FDBF41"></path>
    <path d="M15.6904 11.002C15.8709 11.0262 16.0518 11.05 16.2323 11.0743C16.2314 11.0763 16.23 11.0782 16.2282 11.0802C16.1162 11.0654 16.0038 11.051 15.8918 11.0351C15.8591 11.0307 15.8265 11.0277 15.7938 11.0237C15.7612 11.0198 15.7285 11.0158 15.6963 11.0089C15.6945 11.0064 15.6927 11.0044 15.6904 11.0024V11.002Z" fill="#007FFF"></path>
    <path d="M14.8062 11.6135C14.813 11.5858 14.8193 11.557 14.8261 11.5293C14.8198 11.5575 14.813 11.5858 14.8062 11.6135Z" fill="#F1ECE2"></path>
    <path d="M19.9931 15.5768C19.9931 15.3053 19.9931 15.0343 19.9931 14.7629C19.9772 14.6871 19.9555 14.6132 19.9169 14.5469C19.8548 14.4399 19.7809 14.3442 19.6884 14.266C19.5918 14.1842 19.493 14.1074 19.3864 14.0421C19.24 13.9524 19.0876 13.8766 18.9348 13.8018C18.9076 13.7884 18.8795 13.782 18.8523 13.7701C18.5068 13.6225 18.1513 13.5115 17.7912 13.4159C17.5609 13.3544 17.3287 13.3019 17.0957 13.2544C16.8341 13.2009 16.5711 13.1548 16.3076 13.1152C16.1258 13.0879 15.944 13.0632 15.7617 13.0409C15.6805 13.031 15.5994 13.0215 15.5182 13.0126C15.2888 12.9884 15.0589 12.9656 14.829 12.9477C14.6934 12.9368 14.5574 12.9274 14.4218 12.919C14.3066 12.9121 14.191 12.9056 14.0754 12.8997C13.8935 12.8908 13.7122 12.8838 13.5303 12.8794C13.5172 12.8794 13.504 12.8784 13.4909 12.8784C13.2039 12.8714 12.9164 12.8695 12.6294 12.8724C12.6248 12.8724 12.6203 12.8724 12.6153 12.8724C12.3197 12.8754 12.024 12.8828 11.7289 12.8962C11.7112 12.8967 11.6935 12.8982 11.6758 12.8987C11.3262 12.915 10.9775 12.9388 10.6288 12.971C10.1169 13.0181 9.6068 13.082 9.09942 13.1692C9.08717 13.1712 9.07539 13.1736 9.06314 13.1756C9.04364 13.2509 9.02596 13.3272 9.00148 13.401C8.98425 13.4763 8.96701 13.5516 8.94933 13.6264C8.90263 13.8261 8.86046 14.0267 8.82373 14.2288C8.84958 14.2239 8.87542 14.2194 8.90127 14.2145C8.93527 14.208 8.96928 14.2021 9.00284 14.1956C9.05317 14.1867 9.1035 14.1778 9.15383 14.1689C9.33566 14.1382 9.51838 14.1104 9.70066 14.0852C9.88339 14.0599 10.0661 14.0376 10.2493 14.0178C10.3713 14.0044 10.4937 13.992 10.6161 13.9806C10.8011 13.9638 10.9866 13.9494 11.172 13.9365C11.3466 13.9246 11.5212 13.9152 11.6958 13.9073C11.7406 13.9053 11.7855 13.9029 11.8304 13.9009C11.8971 13.8979 11.9642 13.8959 12.0308 13.8934C12.0739 13.892 12.117 13.891 12.1605 13.89C12.3179 13.8855 12.4752 13.883 12.6326 13.8816C12.692 13.8816 12.7509 13.8806 12.8103 13.8806C12.9119 13.8806 13.0134 13.8806 13.1145 13.8816C13.1513 13.8816 13.188 13.882 13.2247 13.883C13.2642 13.8835 13.3036 13.884 13.3431 13.8845C13.4505 13.8865 13.5576 13.8895 13.665 13.8929C13.7725 13.8964 13.8795 13.9009 13.987 13.9053C14.0046 13.9058 14.0223 13.9073 14.04 13.9078C14.1552 13.9133 14.2703 13.9197 14.3851 13.9261C14.4735 13.9316 14.5619 13.9375 14.6503 13.9435C14.7827 13.9529 14.9156 13.9633 15.048 13.9752C15.17 13.9861 15.2919 13.9985 15.4144 14.0118C15.4184 14.0118 15.423 14.0128 15.4271 14.0133C15.5146 14.0227 15.6021 14.0321 15.6896 14.0421C15.8297 14.0574 15.9698 14.0757 16.1099 14.0961C16.2496 14.1164 16.3892 14.1382 16.5289 14.161C16.5869 14.1704 16.645 14.1803 16.7026 14.1902C16.8762 14.2209 17.0494 14.2546 17.2217 14.2917C17.3233 14.3135 17.4244 14.3363 17.5255 14.3601C17.6267 14.3839 17.7273 14.4096 17.828 14.4364C17.9808 14.4775 18.1327 14.5216 18.2828 14.5697C18.4832 14.6341 18.6818 14.7064 18.8763 14.7911C18.9253 14.8119 18.9733 14.8342 19.0219 14.8565C19.0953 14.8912 19.1674 14.9293 19.2391 14.9679C19.2567 14.9774 19.2744 14.9868 19.2921 14.9967C19.3057 15.0041 19.3198 15.0115 19.3334 15.019C19.3515 15.0289 19.3696 15.0388 19.3873 15.0497C19.41 15.0631 19.4322 15.0774 19.4531 15.0933C19.5338 15.1542 19.6168 15.2117 19.6916 15.281C19.7088 15.2974 19.7256 15.3137 19.7419 15.3311C19.7614 15.3489 19.78 15.3682 19.7977 15.3875C19.8272 15.4197 19.8544 15.4544 19.8784 15.4906C19.8902 15.5084 19.9011 15.5268 19.9115 15.5456C19.9206 15.5619 19.9287 15.5783 19.9364 15.5951C19.9441 15.612 19.9514 15.6293 19.9577 15.6476C19.9645 15.6655 19.9704 15.6838 19.9759 15.7021C19.9795 15.715 19.9836 15.7284 19.9872 15.7413C19.9872 15.7413 19.9872 15.7423 19.9877 15.7427V15.7413C19.9972 15.6863 19.9913 15.6308 19.9918 15.5753L19.9931 15.5768Z" fill="#F1ECE2"></path>
    <path d="M19.9971 14.6554C19.9975 14.4498 19.9975 14.2447 19.9971 14.0391C19.9971 13.9445 19.9961 13.8494 19.9957 13.7548C19.9807 13.7013 19.9703 13.6463 19.9481 13.5953C19.8914 13.467 19.8066 13.3639 19.7087 13.2718C19.6017 13.1707 19.4833 13.087 19.3591 13.0132C19.1791 12.9052 18.9922 12.813 18.7995 12.7353C18.5764 12.6451 18.3502 12.5653 18.1207 12.497C17.9453 12.445 17.7689 12.3969 17.592 12.3528C17.3903 12.3028 17.1876 12.2587 16.984 12.2196C16.7727 12.1794 16.5605 12.1408 16.3478 12.1086C16.2472 12.0932 16.1461 12.0789 16.0449 12.065C15.8191 12.0333 15.5929 12.0055 15.3661 11.9837C15.324 11.9793 15.2823 11.9728 15.2401 11.9694C15.0687 11.955 14.8973 11.9411 14.7264 11.9278C14.7019 11.9258 14.6774 11.9238 14.6529 11.9218C14.5386 11.9129 14.4244 11.904 14.3101 11.8975C14.1614 11.8896 14.0127 11.8837 13.8639 11.8777C13.8626 11.8777 13.8612 11.8777 13.8598 11.8777C13.7043 11.8718 13.5492 11.8653 13.3937 11.8624C13.2568 11.8599 13.1198 11.8584 12.9825 11.8579C12.9221 11.8579 12.8618 11.8574 12.8011 11.8574C12.5608 11.8574 12.3209 11.8614 12.081 11.8688C12.0774 11.8688 12.0742 11.8688 12.0706 11.8688C11.789 11.8777 11.507 11.8901 11.2259 11.9099C11.0096 11.9248 10.7933 11.9382 10.5775 11.958C10.4899 11.9659 10.4029 11.9778 10.3158 11.9872C10.0116 12.0204 9.70822 12.059 9.40578 12.1056C9.40216 12.1061 9.39898 12.1066 9.39535 12.1071C9.27428 12.4494 9.16546 12.7962 9.06979 13.1484C9.06752 13.1573 9.06526 13.1658 9.06299 13.1747C9.07478 13.1727 9.08702 13.1702 9.09926 13.1682C9.60665 13.081 10.1168 13.0166 10.6287 12.9701C10.9774 12.9384 11.3261 12.9141 11.6757 12.8977C11.6933 12.8968 11.711 12.8958 11.7287 12.8953C12.0239 12.8819 12.3195 12.8745 12.6152 12.8715C12.6197 12.8715 12.6247 12.8715 12.6292 12.8715C12.9167 12.869 13.2037 12.871 13.4908 12.8774C13.5039 12.8774 13.5171 12.8784 13.5302 12.8784C13.712 12.8829 13.8934 12.8898 14.0752 12.8987C14.1909 12.9047 14.306 12.9111 14.4216 12.9181C14.5572 12.9265 14.6933 12.9359 14.8288 12.9468C15.0587 12.9651 15.2886 12.9874 15.518 13.0117C15.5992 13.0206 15.6804 13.03 15.7615 13.0399C15.9438 13.0622 16.1256 13.087 16.3075 13.1142C16.5709 13.1539 16.8339 13.1999 17.0955 13.2534C17.3286 13.301 17.5608 13.3535 17.7911 13.4149C18.1511 13.5106 18.5066 13.6215 18.8521 13.7691C18.8793 13.781 18.9075 13.7875 18.9347 13.8009C19.0875 13.8762 19.2398 13.9515 19.3863 14.0411C19.4928 14.1065 19.5917 14.1833 19.6883 14.265C19.7808 14.3433 19.8547 14.4389 19.9168 14.5459C19.9553 14.6123 19.9766 14.6861 19.993 14.7619C19.9993 14.7262 19.9957 14.6901 19.9957 14.6544L19.9971 14.6554Z" fill="#FDBF41"></path>
    <path d="M14.6661 6.88764C14.7912 7.10116 14.8819 7.33201 14.9504 7.57377C14.9717 7.64857 14.9908 7.72387 15.008 7.79967C15.0366 7.92599 15.0588 8.0543 15.0765 8.1831C15.0814 8.22075 15.0864 8.2584 15.091 8.29655C15.0996 8.37234 15.1073 8.44814 15.1136 8.52393C15.1164 8.56208 15.1191 8.59973 15.1218 8.63787C15.1345 8.84495 15.1399 9.05201 15.1349 9.25958C15.1295 9.47657 15.1177 9.69355 15.0978 9.91004C15.0778 10.125 15.0506 10.339 15.018 10.5516C14.9985 10.6794 14.9767 10.8067 14.9531 10.933C14.7654 10.9167 14.5777 10.9028 14.3895 10.8929C14.2993 10.8884 14.2086 10.883 14.1179 10.878C14.1791 10.5907 14.2308 10.3014 14.2712 10.0091C14.3156 9.68562 14.3473 9.36114 14.3591 9.03467C14.3686 8.75726 14.3673 8.47935 14.3469 8.20193C14.3297 7.97058 14.3011 7.7417 14.2557 7.51481C14.2045 7.25969 14.1324 7.01199 14.029 6.77569C13.9882 6.68206 13.9402 6.59239 13.8921 6.50322C13.9315 6.48935 13.9728 6.48786 14.0132 6.4834C14.0345 6.48093 14.0558 6.47894 14.0766 6.47746C14.0948 6.47647 14.1129 6.47548 14.131 6.47498C14.1605 6.47449 14.19 6.47449 14.2195 6.47498C14.2399 6.47548 14.2607 6.47647 14.2811 6.47746C14.297 6.47845 14.3129 6.47944 14.3287 6.48093C14.3315 6.48093 14.3342 6.48142 14.3365 6.48192C14.3414 6.48291 14.346 6.48439 14.3505 6.48637C14.355 6.48836 14.3591 6.49083 14.3632 6.49381C14.3691 6.49777 14.375 6.50322 14.3804 6.50867C14.3945 6.52254 14.4081 6.53691 14.4212 6.55127C14.448 6.58 14.4738 6.61022 14.4983 6.64094C14.5604 6.71772 14.6162 6.79946 14.6675 6.88665L14.6661 6.88764Z" fill="#F1ECE2"></path>
    <path d="M14.2541 7.51454C14.2994 7.74093 14.328 7.9703 14.3452 8.20165C14.3661 8.47907 14.3674 8.75699 14.3575 9.03442C14.3461 9.36088 14.3144 9.68537 14.2695 10.0089C14.2291 10.3011 14.1774 10.5909 14.1162 10.8778C14.0478 10.8743 13.9788 10.8704 13.9104 10.8674C13.7535 10.8609 13.597 10.857 13.4402 10.8535C13.3817 10.852 13.3232 10.851 13.2651 10.85C13.3223 10.6147 13.3726 10.3774 13.4157 10.1387C13.4483 9.95982 13.4764 9.77999 13.5014 9.59966C13.5177 9.47879 13.5322 9.35791 13.5449 9.23654C13.5581 9.10972 13.5685 8.9824 13.5757 8.85458C13.5834 8.71835 13.5884 8.58162 13.5912 8.44539C13.5943 8.26258 13.5889 8.08028 13.5766 7.89797C13.5685 7.77759 13.5581 7.65771 13.544 7.53782C13.525 7.37385 13.4977 7.21185 13.4619 7.05135C13.4334 6.92304 13.4007 6.79523 13.3572 6.67138C13.3871 6.65057 13.4216 6.64017 13.4547 6.62679C13.5218 6.59955 13.5893 6.57577 13.6583 6.55496C13.7272 6.53465 13.7966 6.51731 13.8673 6.50443C13.8723 6.50344 13.8768 6.50195 13.8818 6.50195C13.885 6.50195 13.8877 6.50195 13.8904 6.50294C13.9385 6.59211 13.9865 6.68129 14.0274 6.77541C14.1307 7.01171 14.2028 7.25941 14.2541 7.51454Z" fill="#FDBF41"></path>
    <path d="M16.2256 7.09542C16.2256 7.09542 16.2231 7.09356 16.2231 7.09232C16.2231 7.0917 16.2231 7.09108 16.2231 7.08984L16.2262 7.0917L16.225 7.0948L16.2256 7.09542Z" fill="#3180F4"></path>
    <path d="M19.993 16.7191C19.9935 16.7062 19.9944 16.6933 19.9944 16.6804C19.9944 16.4684 19.9948 16.2559 19.9948 16.0438C19.9948 15.9522 19.9935 15.8605 19.993 15.7689C19.993 15.7634 19.9953 15.7575 19.9948 15.752C19.9935 15.7486 19.9917 15.7461 19.9903 15.7431C19.9903 15.7431 19.9903 15.7436 19.9903 15.7441C19.9903 15.7436 19.9903 15.7431 19.9899 15.7426C19.9862 15.7293 19.9822 15.7164 19.9785 15.703C19.9731 15.6842 19.9667 15.6658 19.9604 15.6485C19.954 15.6307 19.9468 15.6133 19.9391 15.596C19.9314 15.5792 19.9228 15.5623 19.9141 15.5465C19.9037 15.5276 19.8928 15.5093 19.881 15.4915C19.857 15.4548 19.8303 15.4206 19.8003 15.3884C19.7826 15.3691 19.7641 15.3503 19.7446 15.332C19.7282 15.3141 19.7115 15.2978 19.6942 15.2819C19.6194 15.2126 19.5364 15.1551 19.4557 15.0942C19.4344 15.0783 19.4122 15.0639 19.39 15.0506C19.3723 15.0402 19.3541 15.0298 19.336 15.0199C19.3224 15.0124 19.3084 15.005 19.2947 14.9976C19.2771 14.9877 19.2594 14.9782 19.2417 14.9688C19.1701 14.9302 19.098 14.892 19.0245 14.8574C18.976 14.8351 18.9279 14.8128 18.879 14.792C18.684 14.7078 18.4858 14.6349 18.2854 14.5705C18.1349 14.522 17.983 14.4779 17.8306 14.4373C17.73 14.4105 17.6293 14.3848 17.5282 14.361C17.4271 14.3372 17.3259 14.3144 17.2244 14.2926C17.0516 14.2555 16.8784 14.2213 16.7052 14.1911C16.6472 14.1811 16.5896 14.1712 16.5315 14.1618C16.3919 14.139 16.2527 14.1172 16.1126 14.0969C15.9729 14.0766 15.8328 14.0583 15.6922 14.0429C15.6047 14.0335 15.5172 14.0236 15.4297 14.0142C15.4256 14.0142 15.4211 14.0132 15.417 14.0127C15.295 13.9993 15.1731 13.987 15.0506 13.9761C14.9182 13.9642 14.7854 13.9543 14.653 13.9444C14.5645 13.9379 14.4761 13.932 14.3877 13.927C14.2725 13.9201 14.1574 13.9136 14.0426 13.9087C14.025 13.9077 14.0073 13.9067 13.9896 13.9062C13.8821 13.9013 13.7751 13.8973 13.6677 13.8938C13.5602 13.8904 13.4532 13.8874 13.3457 13.8854C13.3063 13.8849 13.2668 13.8844 13.2274 13.8839C13.1906 13.8834 13.1539 13.8829 13.1172 13.8824C13.0156 13.8814 12.9141 13.8809 12.8129 13.8814C12.7535 13.8814 12.6941 13.8819 12.6352 13.8824C12.4779 13.8839 12.3205 13.8864 12.1632 13.8908C12.1201 13.8918 12.077 13.8933 12.0335 13.8943C11.9668 13.8963 11.8997 13.8988 11.8331 13.9017C11.7882 13.9037 11.7433 13.9062 11.6984 13.9082C11.5238 13.9161 11.3493 13.926 11.1747 13.9374C10.9892 13.9503 10.8038 13.9642 10.6188 13.9815C10.4964 13.9929 10.3739 14.0053 10.252 14.0187C10.0688 14.0385 9.88603 14.0608 9.7033 14.086C9.52057 14.1113 9.33829 14.139 9.15647 14.1698C9.10613 14.1782 9.0558 14.1871 9.00547 14.1965C8.97146 14.2025 8.93791 14.2089 8.9039 14.2153C8.87806 14.2203 8.85222 14.2247 8.82637 14.2297C8.8631 14.0276 8.90526 13.8269 8.95197 13.6273C8.96965 13.552 8.98688 13.4772 9.00411 13.4019C9.0286 13.3281 9.04628 13.2518 9.06578 13.1765C9.06805 13.1676 9.07031 13.1592 9.07258 13.1502C9.16825 12.798 9.27708 12.4507 9.39815 12.1089C9.47478 11.8919 9.55639 11.6769 9.64299 11.4639C9.70103 11.3212 9.76134 11.1791 9.82346 11.0389C10.0289 10.5747 10.2569 10.1234 10.51 9.68693C10.7462 9.27774 11.0033 8.88538 11.2849 8.51186C11.2908 8.50443 11.2953 8.49551 11.3007 8.48758C11.3855 8.38157 11.469 8.27456 11.5556 8.17003C11.8376 7.82871 12.1414 7.51265 12.4779 7.23572C12.5608 7.16736 12.6465 7.10295 12.7313 7.03707C12.739 7.03112 12.7485 7.03013 12.7576 7.02964C12.7617 7.01626 12.773 7.01032 12.7826 7.00388C12.9562 6.8825 13.1367 6.77451 13.3267 6.68732C13.3335 6.68435 13.3398 6.68038 13.3471 6.67791C13.3489 6.67741 13.3512 6.67692 13.3534 6.67642C13.3557 6.67642 13.358 6.67543 13.3602 6.67543C13.3902 6.65462 13.4246 6.64422 13.4577 6.63084C13.5248 6.6036 13.5924 6.57982 13.6613 6.55901C13.7302 6.5387 13.7996 6.52136 13.8703 6.50848C13.8753 6.50749 13.8799 6.506 13.8849 6.506C13.888 6.506 13.8907 6.506 13.8935 6.507C13.9329 6.49312 13.9742 6.49164 14.0145 6.48718C14.0358 6.4847 14.0572 6.48272 14.078 6.48123C14.0961 6.48024 14.1143 6.47925 14.1324 6.47876C14.1619 6.47826 14.1914 6.47826 14.2208 6.47876C14.2412 6.47925 14.2621 6.48024 14.2825 6.48123C14.2984 6.48223 14.3143 6.48322 14.3301 6.4847C14.3328 6.4847 14.3356 6.4852 14.3378 6.48569C14.3428 6.48668 14.3474 6.48817 14.3519 6.49015C14.3564 6.49213 14.3605 6.49461 14.3646 6.49758C14.3705 6.50155 14.3764 6.507 14.3818 6.51244C14.3959 6.52632 14.4095 6.54068 14.4226 6.55505C14.4494 6.58378 14.4752 6.614 14.4997 6.64472C14.5618 6.7215 14.6176 6.80324 14.6688 6.89043C14.794 7.10395 14.8847 7.3348 14.9531 7.57655C14.9744 7.65136 14.9935 7.72666 15.0107 7.80245C15.0393 7.92878 15.0615 8.05708 15.0792 8.18589C15.0842 8.22354 15.0892 8.26119 15.0937 8.29933C15.1023 8.37513 15.11 8.45092 15.1164 8.52672C15.1191 8.56486 15.1218 8.60251 15.1245 8.64066C15.1372 8.84773 15.1427 9.05481 15.1377 9.26238C15.1322 9.47936 15.1205 9.69634 15.1005 9.91283C15.0806 10.1278 15.0533 10.3418 15.0207 10.5544C15.0012 10.6822 14.9794 10.8095 14.9559 10.9358C14.9862 10.9383 15.0166 10.9408 15.047 10.9437C15.2651 10.9636 15.4827 10.9873 15.7004 11.0091C15.6986 11.0067 15.6968 11.0047 15.6945 11.0027C15.875 11.027 16.0559 11.0508 16.2363 11.075C16.2354 11.077 16.2341 11.079 16.2323 11.081C16.2432 11.0825 16.254 11.0844 16.2649 11.0859C16.3012 10.8907 16.3338 10.6956 16.3615 10.4989C16.386 10.3225 16.4077 10.1457 16.4245 9.96832C16.4404 9.80236 16.4545 9.6364 16.4617 9.46945C16.4653 9.3892 16.4694 9.30845 16.4739 9.2282C16.4744 9.21779 16.4694 9.20392 16.4844 9.19946C16.4844 9.04985 16.4835 8.89975 16.483 8.75014C16.4758 8.74667 16.4753 8.73974 16.4744 8.73231C16.4726 8.70209 16.4694 8.67236 16.4685 8.64214C16.4631 8.42467 16.4449 8.20867 16.4182 7.99367C16.3887 7.75539 16.3452 7.52057 16.2849 7.28922C16.2699 7.23126 16.2572 7.17281 16.2336 7.11782L16.2286 7.098C16.2286 7.098 16.2268 7.09651 16.2268 7.09552C16.2268 7.09503 16.2268 7.09453 16.2268 7.09354C16.2255 7.08661 16.2246 7.07967 16.2223 7.07274C16.1348 6.7968 16.0205 6.53523 15.8632 6.29744C15.7117 6.06808 15.529 5.87636 15.3036 5.73368C15.2193 5.68018 15.1277 5.64253 15.0411 5.59448C15.0334 5.59002 15.0234 5.59101 15.0144 5.58903C15.0066 5.57813 14.9944 5.57516 14.984 5.56971C14.7795 5.47063 14.5754 5.37155 14.3705 5.27346C14.3442 5.26058 14.3201 5.24176 14.2907 5.2378C14.2857 5.23581 14.2807 5.23433 14.2757 5.23235C14.2408 5.21996 14.205 5.21104 14.1714 5.19371C14.1682 5.19271 14.1655 5.19172 14.1624 5.19024C14.161 5.18974 14.1592 5.18925 14.1578 5.18875C14.1578 5.18875 14.1574 5.18875 14.1569 5.18875C14.1533 5.19123 14.151 5.18925 14.1487 5.18578C14.083 5.16745 14.0173 5.15358 13.9506 5.14367C13.9025 5.13624 13.8545 5.13079 13.806 5.12782C13.7896 5.12683 13.7738 5.12633 13.7574 5.12584C13.7089 5.12435 13.6609 5.12485 13.6128 5.12732C13.5489 5.13029 13.4854 5.13673 13.4219 5.14615C13.3113 5.16299 13.2015 5.18826 13.0927 5.22095C13.0773 5.22591 13.0614 5.23036 13.046 5.23581C12.8415 5.3022 12.6465 5.39186 12.4584 5.49788C12.3958 5.53305 12.3337 5.5702 12.272 5.60934C12.2158 5.64451 12.1604 5.68068 12.1056 5.71882C12.0874 5.73121 12.0693 5.74409 12.0512 5.75697C12.033 5.76985 12.0149 5.78273 11.9972 5.7961C11.9614 5.82236 11.926 5.84911 11.8911 5.87685C11.8739 5.89072 11.8562 5.9046 11.839 5.91847C11.839 5.91995 11.839 5.92094 11.839 5.92243C11.839 5.92342 11.8381 5.92441 11.8376 5.9254C11.8362 5.92689 11.8344 5.92738 11.8317 5.92738H11.8313C11.8313 5.92738 11.8313 5.92937 11.8313 5.92986C11.8313 5.93184 11.8303 5.93283 11.8294 5.93333C11.8285 5.93382 11.8276 5.93382 11.8258 5.93333C11.8254 5.93333 11.8245 5.93333 11.824 5.93234C11.7469 5.99129 11.6721 6.05272 11.5991 6.11662C11.5665 6.14486 11.5343 6.17409 11.5025 6.20332C11.4975 6.20778 11.4925 6.21273 11.4876 6.21719C11.4549 6.24741 11.4223 6.27812 11.3901 6.30933C11.3901 6.31032 11.3901 6.31082 11.3901 6.31181C11.3901 6.31429 11.3892 6.31577 11.3878 6.31726C11.3878 6.31726 11.3869 6.31775 11.3864 6.31825C11.3855 6.31875 11.3842 6.31924 11.3828 6.31924C11.3819 6.32122 11.3805 6.3232 11.3792 6.32469C11.3774 6.32667 11.376 6.32865 11.3737 6.33014C11.371 6.33212 11.3678 6.3341 11.3642 6.3346C11.3642 6.33906 11.3633 6.34153 11.3615 6.34252C11.3588 6.34451 11.3538 6.34302 11.3502 6.34352C11.3379 6.35739 11.3252 6.37126 11.313 6.38463C11.3121 6.38562 11.3116 6.38661 11.3107 6.38711C11.3107 6.38761 11.3107 6.3886 11.3107 6.38909C11.3107 6.39107 11.3098 6.39206 11.3089 6.39355H11.3084C11.3084 6.39355 11.3057 6.39504 11.303 6.39504C11.2921 6.40494 11.2803 6.41386 11.2699 6.42426C11.269 6.42526 11.2681 6.42575 11.2672 6.42674C11.2273 6.46786 11.1869 6.50898 11.1475 6.55109C11.1448 6.55406 11.142 6.55653 11.1398 6.55901C11.1275 6.57239 11.1148 6.58477 11.1021 6.59765C11.0704 6.62985 11.0378 6.66106 11.0074 6.69475C10.991 6.71308 10.9743 6.73141 10.9579 6.74924C10.8636 6.85377 10.7702 6.95929 10.68 7.06828C10.5648 7.20748 10.4528 7.34917 10.344 7.49382C10.3286 7.51463 10.3127 7.53494 10.2973 7.55574C10.295 7.55872 10.2923 7.56219 10.2905 7.56565C10.2873 7.57061 10.2841 7.57556 10.281 7.58101C10.2769 7.58795 10.2728 7.59488 10.2687 7.60132C10.2656 7.60628 10.2624 7.61073 10.2588 7.61569C10.2574 7.61717 10.2565 7.61866 10.2556 7.61965C10.2506 7.6256 10.2456 7.63104 10.2397 7.6355C10.2397 7.63699 10.2393 7.63749 10.2388 7.63848C10.2388 7.63947 10.2388 7.64046 10.2379 7.64145C10.2379 7.64194 10.237 7.64244 10.2365 7.64293C10.2356 7.64343 10.2343 7.64393 10.2334 7.64442C10.2306 7.65829 10.2202 7.66523 10.2116 7.67414C10.2111 7.67414 10.2107 7.67514 10.2102 7.67563C10.2075 7.67811 10.2057 7.68108 10.2039 7.68405C10.203 7.68554 10.2021 7.68702 10.2016 7.68901C10.2012 7.69099 10.2003 7.69247 10.1998 7.69446C10.1998 7.69545 10.1998 7.69594 10.1998 7.69693C10.1998 7.69941 10.1989 7.7009 10.1971 7.70238C10.1971 7.70238 10.1962 7.70238 10.1962 7.70288C10.1957 7.70288 10.1948 7.70288 10.1944 7.70288C10.1939 7.70288 10.1935 7.70288 10.1926 7.70288C10.1726 7.73012 10.1522 7.75737 10.1322 7.78462C10.1313 7.7861 10.13 7.78759 10.1291 7.78908C10.1295 7.79254 10.1295 7.79552 10.1291 7.79849C10.1291 7.80097 10.1277 7.80245 10.1268 7.80443C10.1268 7.80493 10.1259 7.80592 10.1259 7.80641C10.1245 7.8079 10.1227 7.80988 10.1209 7.81087C10.1186 7.81236 10.1159 7.81335 10.1132 7.81434C10.11 7.8183 10.1069 7.82177 10.1037 7.82574C10.1023 7.82722 10.1014 7.82871 10.1005 7.8297C10.0978 7.83267 10.0955 7.83614 10.0933 7.83911C10.042 7.91441 9.99078 7.99021 9.93954 8.06551C9.93954 8.06798 9.93863 8.06947 9.93727 8.07096C9.93727 8.07096 9.93682 8.07145 9.93636 8.07195C9.93546 8.07294 9.9341 8.07343 9.93274 8.07343C9.89737 8.12793 9.86109 8.18192 9.82618 8.23691C9.81938 8.24781 9.81258 8.25871 9.80578 8.26961C9.75363 8.35333 9.70466 8.43953 9.65206 8.52275C9.62576 8.56437 9.60082 8.60697 9.57589 8.64908C9.55049 8.69119 9.5251 8.7333 9.49745 8.77442C9.45346 8.8403 9.41583 8.91213 9.37729 8.98199C9.36051 9.0122 9.34373 9.04242 9.32741 9.07264C9.14105 9.4105 8.96013 9.75183 8.80596 10.109C8.79689 10.1298 8.78646 10.1491 8.77604 10.1689C8.76561 10.1883 8.75473 10.2081 8.74566 10.2279C8.69306 10.3433 8.64182 10.4593 8.59195 10.5762C8.57336 10.6198 8.55522 10.6634 8.53663 10.7074C8.5126 10.7644 8.48901 10.8219 8.46589 10.8793C8.43641 10.9522 8.40695 11.0255 8.37793 11.0993C8.36568 11.13 8.35389 11.1612 8.3421 11.1924C8.32714 11.2311 8.31217 11.2697 8.29766 11.3089C8.24597 11.4461 8.1961 11.5848 8.14758 11.7235C8.13352 11.7641 8.11947 11.8047 8.10587 11.8459C8.07277 11.9449 8.04057 12.044 8.00838 12.1436C8.00067 12.1674 7.99296 12.1912 7.98525 12.2149C7.97936 12.2333 7.97346 12.2521 7.96802 12.2709C7.95306 12.318 7.939 12.3655 7.9254 12.4131C7.90862 12.471 7.8923 12.529 7.87597 12.587C7.86418 12.6286 7.8524 12.6697 7.84016 12.7113C7.8125 12.804 7.7803 12.8956 7.76942 12.9932C7.76896 12.9981 7.76353 13.0026 7.76081 13.0071C7.7472 13.0477 7.73904 13.0893 7.72997 13.1309C7.72543 13.1507 7.71999 13.1705 7.71455 13.1904C7.70911 13.2102 7.70367 13.23 7.69868 13.2498C7.67782 13.335 7.65742 13.4207 7.63837 13.5064C7.62069 13.5837 7.60391 13.662 7.58759 13.7398C7.56945 13.8274 7.55222 13.9151 7.53545 14.0028C7.52094 14.0796 7.50688 14.1569 7.49373 14.2342C7.48331 14.2956 7.47287 14.3565 7.46335 14.4179C7.45473 14.4719 7.44703 14.5259 7.43886 14.5799C7.42889 14.6488 7.41937 14.7172 7.41075 14.786C7.40304 14.8479 7.39579 14.9094 7.38853 14.9713C7.36949 15.1412 7.35407 15.3111 7.34183 15.4821C7.33866 15.5311 7.33548 15.5796 7.33321 15.6287C7.33049 15.6777 7.32823 15.7263 7.32641 15.7753C7.32279 15.8729 7.32007 15.971 7.31735 16.0686C7.3169 16.0909 7.31689 16.1132 7.31644 16.1355C7.31644 16.1424 7.31644 16.1489 7.31644 16.1558C7.31598 16.2811 7.32052 16.406 7.32415 16.5303C7.32415 16.5358 7.32506 16.5417 7.32506 16.5472C7.32596 16.5694 7.32687 16.5917 7.32823 16.614C7.33231 16.7042 7.33911 16.7944 7.34773 16.8845C7.35362 16.9454 7.35997 17.0069 7.36722 17.0678C7.36813 17.0767 7.36949 17.0852 7.3704 17.0941C7.38582 17.2179 7.4035 17.3413 7.42572 17.4636C7.46698 17.6925 7.52185 17.9174 7.59712 18.1359C7.59848 18.1393 7.59983 18.1433 7.60119 18.1473C7.65742 18.3088 7.72271 18.4658 7.80297 18.6154C7.93492 18.8616 8.09589 19.0796 8.30129 19.2535C8.32578 19.2743 8.35072 19.2941 8.37611 19.3139C8.40059 19.3323 8.4269 19.3491 8.45229 19.3659C8.45682 19.3694 8.46226 19.3719 8.46725 19.3744C8.47088 19.3763 8.4745 19.3778 8.47813 19.3798C8.48448 19.3833 8.49037 19.3877 8.49445 19.3942C8.49581 19.3962 8.49717 19.3991 8.49854 19.4021V19.4011C8.50534 19.4001 8.51123 19.4016 8.51441 19.4095H8.51486C8.52121 19.4095 8.52711 19.4115 8.53028 19.418C8.53209 19.418 8.53345 19.418 8.53481 19.4185H8.53527C8.53935 19.4194 8.54297 19.4214 8.54569 19.4259C8.54569 19.4259 8.54569 19.4259 8.54569 19.4264C8.54569 19.4264 8.5466 19.4264 8.54705 19.4264C8.54796 19.4264 8.54887 19.4264 8.54977 19.4264C8.55068 19.4264 8.55113 19.4269 8.55249 19.4269C8.55295 19.4269 8.55386 19.4269 8.55431 19.4274C8.55522 19.4274 8.55612 19.4284 8.55703 19.4289C8.55703 19.4289 8.55793 19.4289 8.55839 19.4294C8.5593 19.4303 8.5602 19.4313 8.56111 19.4323C8.56111 19.4323 8.56111 19.4323 8.56156 19.4323C8.57018 19.4422 8.58197 19.4447 8.59285 19.4502C8.81911 19.5596 9.04583 19.6691 9.27209 19.7786C9.38409 19.8326 9.49518 19.8896 9.61352 19.9252C9.73187 19.9609 9.85203 19.9852 9.97491 19.9906C9.99531 19.9906 10.0157 19.9906 10.0361 19.9906C10.0973 19.9906 10.1585 19.9906 10.2198 19.9906C10.2792 19.9887 10.3381 19.9802 10.3966 19.9703C10.6346 19.9312 10.8632 19.8544 11.084 19.7509C11.4885 19.5611 11.8535 19.302 12.1958 19.0023C12.2711 18.9364 12.3445 18.8686 12.4175 18.7997C12.6719 18.8047 12.9258 18.8061 13.1802 18.8032C13.4223 18.8002 13.6649 18.7957 13.9071 18.7853C13.9189 18.7779 13.9316 18.7779 13.9443 18.7834C13.9479 18.7834 13.9515 18.7834 13.9551 18.7834C13.9696 18.7759 13.9846 18.7764 13.9996 18.7814H14.0105C14.0191 18.7754 14.0281 18.7744 14.0372 18.7764C14.0372 18.7764 14.0377 18.7764 14.0381 18.7764H14.0386C14.0417 18.7774 14.0445 18.7784 14.0472 18.7794H14.0581C14.064 18.7754 14.0699 18.7739 14.0757 18.7735C14.0821 18.7735 14.0884 18.7749 14.0952 18.7769C14.0989 18.7769 14.1025 18.7769 14.1061 18.7769C14.1102 18.7744 14.1143 18.773 14.1184 18.772C14.1265 18.77 14.1351 18.771 14.1438 18.7744C14.1474 18.7744 14.1506 18.7744 14.1542 18.7744C14.1542 18.7744 14.1551 18.7744 14.1555 18.7739C14.1673 18.7675 14.1796 18.7675 14.1914 18.7725C14.195 18.7725 14.1986 18.7725 14.2018 18.7725C14.214 18.764 14.2263 18.765 14.2394 18.77C14.2431 18.77 14.2467 18.77 14.2499 18.77C14.2621 18.7621 14.2748 18.7631 14.2875 18.7675C14.2911 18.7675 14.2948 18.7675 14.2979 18.7675C14.3006 18.7655 14.3029 18.7645 14.3052 18.7635C14.3093 18.7621 14.3129 18.7621 14.317 18.7621C14.3206 18.7621 14.3247 18.7631 14.3283 18.765C14.3836 18.7621 14.4385 18.7601 14.4938 18.7566C14.9173 18.7294 15.3395 18.6927 15.7612 18.6417C16.4014 18.5639 17.0376 18.4594 17.666 18.3028C18.0941 18.1963 18.5162 18.0685 18.9243 17.8887C19.1433 17.7921 19.356 17.6816 19.5528 17.5369C19.6711 17.4498 19.7808 17.3517 19.8688 17.2263C19.9241 17.1466 19.969 17.0609 19.9862 16.9608C19.993 16.9529 19.9958 16.9435 19.9962 16.9336C20.0003 16.8617 20.0026 16.7904 19.9967 16.7186L19.993 16.7191ZM14.3093 15.2036C14.1914 15.1957 14.0739 15.1888 13.956 15.1833C14.0739 15.1893 14.1914 15.1962 14.3093 15.2036ZM11.6943 17.5424C11.6753 17.5607 11.6562 17.5796 11.6372 17.5979C11.5034 17.7262 11.3656 17.8476 11.2218 17.961C11.0781 18.074 10.9289 18.179 10.7729 18.2726C10.7507 18.286 10.7281 18.2994 10.7054 18.3122C10.6532 18.342 10.6006 18.3702 10.5476 18.3974C10.4945 18.4242 10.4406 18.449 10.3862 18.4723C10.2773 18.5188 10.1658 18.5575 10.0506 18.5872C10.0008 18.6001 9.95087 18.611 9.901 18.6194C9.88331 18.6224 9.86563 18.6253 9.8484 18.6283C9.78038 18.6382 9.71237 18.6442 9.6439 18.6461C9.62123 18.6466 9.5981 18.6471 9.57543 18.6466C9.55231 18.6466 9.52963 18.6456 9.50652 18.6447C9.49654 18.6442 9.48702 18.6427 9.47704 18.6417C9.46752 18.6407 9.45754 18.6392 9.44757 18.6382C9.43487 18.6372 9.42535 18.6313 9.41583 18.6224C9.38863 18.5956 9.36278 18.5679 9.33738 18.5391C9.29975 18.4965 9.26393 18.4519 9.23037 18.4059C9.20816 18.3752 9.18639 18.3435 9.16553 18.3108C9.1551 18.2944 9.14513 18.2781 9.13515 18.2617C9.13425 18.2602 9.13379 18.2587 9.13334 18.2573C9.13289 18.2548 9.13198 18.2518 9.13153 18.2493C9.12745 18.2449 9.122 18.2404 9.11883 18.2355L9.11792 18.2345C9.07122 18.1537 9.02905 18.0705 8.99096 17.9848C8.97192 17.9417 8.95378 17.8991 8.937 17.855C8.91977 17.8114 8.9039 17.7668 8.88894 17.7217C8.88713 17.7163 8.88758 17.7108 8.88668 17.7049C8.86038 17.6514 8.84722 17.5929 8.8309 17.536C8.79463 17.4086 8.76606 17.2793 8.74248 17.1486C8.7384 17.1253 8.73432 17.1025 8.73024 17.0792C8.72843 17.0698 8.72752 17.0609 8.7257 17.0515C8.72389 17.0401 8.72162 17.0287 8.71981 17.0173C8.71981 17.0143 8.71981 17.0118 8.7189 17.0089C8.718 16.999 8.71755 16.9885 8.71664 16.9786C8.70122 16.9058 8.69442 16.8315 8.68671 16.7572C8.66041 16.5204 8.65044 16.2826 8.64999 16.0448C8.64999 15.9552 8.65089 15.865 8.65316 15.7748C8.65452 15.7213 8.65678 15.6683 8.6595 15.6153C8.83861 15.5687 9.01908 15.5276 9.19999 15.49C9.50923 15.4261 9.82029 15.3741 10.1322 15.332C10.1372 15.3315 10.1422 15.3305 10.1472 15.33C10.1531 15.329 10.159 15.3285 10.1649 15.329C10.1685 15.329 10.1721 15.33 10.1758 15.331C10.2243 15.3196 10.2737 15.3136 10.3231 15.3082C10.3458 15.3057 10.3685 15.3032 10.3907 15.3007C10.7335 15.2591 11.0767 15.2274 11.4204 15.2046C11.517 15.1982 11.6136 15.1922 11.7097 15.1873C11.9564 15.1744 12.2031 15.166 12.4497 15.161C12.5849 15.1581 12.72 15.1566 12.8551 15.1566C13.0478 15.1566 13.2405 15.1591 13.4328 15.164C13.3911 15.2398 13.3489 15.3156 13.3058 15.3904C13.2745 15.4454 13.2428 15.4999 13.2106 15.5539C13.153 15.6505 13.0945 15.7461 13.0347 15.8412C12.924 16.0166 12.8093 16.1885 12.6901 16.3569C12.6524 16.4104 12.6143 16.4634 12.5753 16.5159C12.5685 16.5254 12.5617 16.5348 12.5549 16.5437C12.4987 16.62 12.4416 16.6948 12.3831 16.7686C12.2856 16.8919 12.1854 17.0123 12.0825 17.1302C12.0512 17.1659 12.0199 17.2016 11.9881 17.2367C11.9065 17.3269 11.8222 17.4151 11.736 17.5008C11.722 17.5147 11.7079 17.529 11.6939 17.5429L11.6943 17.5424ZM12.1532 17.5186C12.2529 17.5221 12.3532 17.5251 12.4529 17.527C12.3527 17.5251 12.2529 17.5221 12.1532 17.5186ZM18.747 16.3584C18.7443 16.3624 18.7397 16.3663 18.7325 16.3723C18.723 16.3802 18.7134 16.3886 18.7035 16.3961C18.694 16.404 18.684 16.4114 18.674 16.4193C18.6554 16.4337 18.6364 16.4476 18.6169 16.461C18.6146 16.4624 18.6123 16.4639 18.6101 16.4659C18.5942 16.4768 18.5783 16.4877 18.562 16.4981C18.538 16.514 18.5144 16.5288 18.4899 16.5437C18.3239 16.6447 18.1494 16.726 17.9712 16.7978C17.803 16.8652 17.6325 16.9241 17.4606 16.9767C17.2144 17.052 16.965 17.1144 16.7134 17.1689C16.469 17.2224 16.2237 17.2675 15.9774 17.3066C15.7312 17.3457 15.4841 17.3784 15.2365 17.4067C15.1554 17.4161 15.0742 17.4245 14.993 17.4329C14.8303 17.4493 14.6675 17.4631 14.5047 17.475C14.4231 17.481 14.3415 17.4864 14.2603 17.4914C14.0776 17.5028 13.8948 17.5112 13.7121 17.5176C13.679 17.5186 13.6459 17.5201 13.6123 17.5211C13.582 17.5221 13.5516 17.5231 13.5207 17.5241C13.5956 17.423 13.6704 17.3224 13.7388 17.2159C13.7488 17.2026 13.7588 17.1892 13.7683 17.1753C13.9148 16.9598 14.0553 16.7404 14.1905 16.5169C14.1977 16.5045 14.2354 16.4421 14.2467 16.4228C14.3324 16.2786 14.4154 16.133 14.4965 15.9854C14.6289 15.7436 14.7554 15.4984 14.8756 15.2497C15.105 15.2715 15.334 15.2968 15.563 15.3275C15.5798 15.3295 15.5966 15.3334 15.6138 15.3364C15.7163 15.3443 15.8178 15.3612 15.9189 15.3775C16.0491 15.3983 16.1792 15.4211 16.3089 15.4449C16.4839 15.4771 16.6589 15.5128 16.8326 15.5539C16.9265 15.5762 17.0199 15.599 17.1137 15.6213C17.1146 15.6213 17.116 15.6213 17.1169 15.6218C17.1178 15.6218 17.1187 15.6218 17.1201 15.6223C17.126 15.6232 17.1328 15.6232 17.1391 15.6242C17.1473 15.6252 17.1555 15.6277 17.1618 15.6351C17.3622 15.6911 17.5622 15.7501 17.7585 15.8209C17.7767 15.8273 17.7975 15.8293 17.8116 15.8462C17.8628 15.8561 17.9095 15.8794 17.9576 15.8987C17.9997 15.9155 18.0419 15.9334 18.0836 15.9517C18.2029 16.0032 18.3199 16.0602 18.4332 16.1261C18.4781 16.1518 18.5221 16.1791 18.5656 16.2078C18.6232 16.246 18.6794 16.2861 18.732 16.3322C18.7475 16.3455 18.752 16.351 18.7461 16.3589L18.747 16.3584Z" fill="#007FFF"></path>
    <path d="M19.9969 12.7899C19.9914 12.6715 19.9501 12.567 19.8871 12.4719C19.7982 12.3366 19.6835 12.2311 19.5593 12.138C19.3475 11.9795 19.1158 11.863 18.8787 11.759C18.7467 11.7011 18.613 11.6495 18.4779 11.602C18.272 11.5296 18.063 11.4677 17.853 11.4112C17.5905 11.3409 17.3266 11.28 17.0609 11.227C16.899 11.1948 16.7367 11.1635 16.5739 11.1378C16.5689 11.1378 16.5639 11.1373 16.5589 11.1368C16.5562 11.1368 16.553 11.1363 16.5503 11.1358C16.5444 11.1353 16.5381 11.1343 16.5322 11.1338C16.5186 11.1318 16.5045 11.1289 16.4914 11.1254C16.4428 11.117 16.3948 11.1086 16.3463 11.0996C16.3182 11.0952 16.29 11.0907 16.2619 11.0868C16.251 11.0848 16.2402 11.0833 16.2293 11.0818C16.1173 11.0669 16.0048 11.0526 15.8928 11.0367C15.8602 11.0323 15.8275 11.0293 15.7949 11.0253C15.7622 11.0219 15.7296 11.0174 15.6974 11.0105C15.4798 10.9882 15.2621 10.9644 15.044 10.9451C15.0136 10.9426 14.9833 10.9396 14.9529 10.9372C14.7652 10.9208 14.5774 10.9069 14.3893 10.897C14.299 10.8926 14.2083 10.8871 14.1177 10.8822C14.0492 10.8787 13.9803 10.8747 13.9118 10.8718C13.7549 10.8653 13.5985 10.8614 13.4416 10.8579C13.3831 10.8564 13.3246 10.8554 13.2666 10.8544C13.2666 10.8544 13.374 10.3818 13.4171 10.143C13.4497 9.9642 13.4779 9.78437 13.5028 9.60405C13.5191 9.48317 13.5336 9.36229 13.5463 9.24092C13.5595 9.1141 13.5699 8.98679 13.5772 8.85898C13.5849 8.72275 13.5899 8.58602 13.5926 8.44979C13.5957 8.26699 13.5903 8.08468 13.5781 7.90238C13.5699 7.782 13.5595 7.66211 13.5454 7.54223C13.5264 7.37825 13.4992 7.21626 13.4633 7.05575C13.4348 6.92744 13.4021 6.79963 13.3586 6.67578C13.3563 6.67578 13.3541 6.67578 13.3518 6.67677C13.3495 6.67677 13.3473 6.67776 13.3455 6.67826C13.3382 6.68074 13.3319 6.6847 13.3251 6.68767C13.1346 6.77486 12.9546 6.88335 12.7809 7.00423C12.771 7.01116 12.7601 7.01661 12.756 7.02999C12.7977 7.31781 12.8172 7.60712 12.8195 7.89841C12.8231 8.31504 12.795 8.72919 12.7428 9.14184C12.7034 9.45246 12.6513 9.76059 12.5878 10.0667C12.5329 10.3323 12.4694 10.5953 12.3987 10.8559C12.2277 10.8579 12.0563 10.8638 11.8854 10.8698C11.6578 10.8782 11.4302 10.8896 11.203 10.9054C11.0026 10.9193 10.8017 10.9337 10.6013 10.9525C10.341 10.9773 10.0812 11.005 9.82229 11.0397C9.76017 11.1804 9.69986 11.3221 9.64182 11.4647C9.55522 11.6778 9.4736 11.8928 9.39697 12.1098C9.4006 12.1093 9.40377 12.1088 9.4074 12.1083C9.70984 12.0617 10.0136 12.0231 10.3174 11.9899C10.4045 11.9805 10.4916 11.9691 10.5791 11.9606C10.7949 11.9408 11.0112 11.9274 11.2275 11.9126C11.5086 11.8928 11.7902 11.8804 12.0722 11.8715C12.0758 11.8715 12.079 11.8715 12.0826 11.8715C12.3225 11.864 12.5624 11.8606 12.8027 11.8601C12.863 11.8601 12.9233 11.8601 12.9841 11.8606C13.121 11.8611 13.2584 11.8625 13.3953 11.865C13.5509 11.868 13.7059 11.8744 13.8615 11.8804C13.8628 11.8804 13.8642 11.8804 13.8655 11.8804C14.0143 11.8863 14.163 11.8923 14.3117 11.9002C14.426 11.9061 14.5402 11.9151 14.6545 11.9245C14.679 11.9265 14.7035 11.9284 14.728 11.9304C14.8994 11.9438 15.0703 11.9577 15.2417 11.972C15.2839 11.9755 15.3256 11.9819 15.3678 11.9864C15.5945 12.0082 15.8207 12.0359 16.0466 12.0676C16.1477 12.0815 16.2483 12.0964 16.3494 12.1112C16.5621 12.1434 16.7743 12.1821 16.9856 12.2222C17.1892 12.2613 17.3923 12.3054 17.5937 12.3555C17.771 12.3996 17.9473 12.4476 18.1224 12.4996C18.3523 12.568 18.5781 12.6477 18.8012 12.7379C18.9939 12.8162 19.1802 12.9083 19.3607 13.0158C19.4849 13.0901 19.6028 13.1734 19.7103 13.2744C19.8078 13.3661 19.893 13.4691 19.9497 13.5979C19.9724 13.6489 19.9828 13.7039 19.9973 13.7574C19.9978 13.6509 19.9987 13.5444 19.9991 13.4379C19.9991 13.2799 19.9991 13.1213 19.9991 12.9633C19.9991 12.9059 20.0009 12.8479 19.9982 12.7909L19.9969 12.7899Z" fill="#FF1100"></path>
    <path d="M14.2737 5.22928C14.2388 5.2169 14.203 5.20798 14.1694 5.19064C14.1694 5.18569 14.1699 5.18074 14.1703 5.17578C14.2121 5.18965 14.2515 5.20897 14.2882 5.23473C14.2832 5.23275 14.2783 5.23127 14.2733 5.22928H14.2737Z" fill="#404A5A"></path>
    <path d="M14.1525 5.18424C14.1525 5.18424 14.1563 5.18591 14.1574 5.18758C14.1574 5.18758 14.1568 5.18758 14.1563 5.18758C14.1519 5.19037 14.1492 5.18814 14.1465 5.18424C14.1487 5.18368 14.1503 5.18312 14.1525 5.18424Z" fill="#404A5A"></path>
    <path d="M9.93778 8.06445C9.93778 8.06445 9.93657 8.06941 9.93476 8.07127C9.93476 8.07127 9.93415 8.07189 9.93355 8.07251C9.93234 8.07374 9.93052 8.07436 9.92871 8.07436C9.92871 8.07374 9.92871 8.07313 9.92871 8.07251V8.07065C9.92871 8.07065 9.93234 8.06693 9.93415 8.06569C9.93536 8.06569 9.93657 8.06445 9.93778 8.06445Z" fill="#404A5A"></path>
    <path d="M10.1226 7.80494C10.1226 7.80494 10.1194 7.80841 10.1176 7.8094C10.1153 7.81089 10.113 7.81187 10.1099 7.81286C10.1099 7.81088 10.1099 7.8094 10.1099 7.80792C10.1099 7.80643 10.1099 7.80494 10.1103 7.80395C10.1112 7.80148 10.1121 7.799 10.1135 7.79702C10.1149 7.79504 10.1171 7.79355 10.1189 7.79157C10.1212 7.79008 10.1235 7.7886 10.1257 7.78711C10.1262 7.79058 10.1262 7.79354 10.1257 7.79652C10.1257 7.79899 10.1244 7.80048 10.1235 7.80247C10.1235 7.80296 10.1226 7.80395 10.1226 7.80445V7.80494Z" fill="#404A5A"></path>
    <path d="M10.1949 7.70144C10.1949 7.70144 10.1938 7.70144 10.1938 7.702C10.1933 7.702 10.1922 7.702 10.1916 7.702C10.1911 7.702 10.1905 7.702 10.1895 7.702C10.1922 7.69865 10.1949 7.69475 10.1976 7.69141C10.1976 7.69252 10.1976 7.69308 10.1976 7.69419C10.1976 7.69698 10.1965 7.69865 10.1943 7.70033L10.1949 7.70144Z" fill="#215CB5"></path>
    <path d="M10.2305 7.64201C10.2305 7.63923 10.2326 7.637 10.2348 7.63588C10.2359 7.63588 10.237 7.63532 10.2381 7.63477C10.2381 7.63644 10.2375 7.637 10.237 7.63811C10.237 7.63923 10.237 7.64034 10.2359 7.64146C10.2359 7.64201 10.2348 7.64257 10.2343 7.64313C10.2332 7.64369 10.2316 7.64424 10.2305 7.6448C10.2305 7.64369 10.2305 7.64313 10.2305 7.64201Z" fill="#215CB5"></path>
    <path d="M13.4492 4.83155C13.4578 4.82783 13.4633 4.83155 13.4683 4.83851C13.4606 4.84037 13.4524 4.84223 13.4492 4.83201V4.83155Z" fill="#FEC35E"></path>
    <path d="M11.3008 6.39369C11.304 6.3909 11.3068 6.38811 11.31 6.38477C11.31 6.38532 11.31 6.38644 11.31 6.387C11.31 6.38923 11.3089 6.39034 11.3079 6.39201H11.3073C11.3073 6.39201 11.304 6.39369 11.3008 6.39369Z" fill="#404A5A"></path>
    <path d="M11.3538 6.33465C11.3564 6.33308 11.3594 6.33203 11.363 6.33203C11.363 6.33674 11.362 6.33935 11.3599 6.3404C11.3569 6.34249 11.3512 6.34092 11.3472 6.34144C11.3492 6.33831 11.3512 6.33621 11.3538 6.33465Z" fill="#404A5A"></path>
    <path d="M11.3891 6.31082C11.3891 6.31082 11.388 6.31528 11.3864 6.31696C11.3864 6.31696 11.3853 6.31751 11.3847 6.31807C11.3836 6.31863 11.382 6.31919 11.3804 6.31919C11.3831 6.31584 11.3864 6.31194 11.3891 6.30859C11.3891 6.30971 11.3891 6.31027 11.3891 6.31138V6.31082Z" fill="#404A5A"></path>
    <path d="M11.8383 5.91992C11.8383 5.91992 11.8372 5.92215 11.8367 5.92326C11.835 5.92494 11.8329 5.92549 11.8296 5.92549C11.8323 5.92215 11.8356 5.91936 11.8388 5.91602C11.8388 5.91769 11.8388 5.9188 11.8388 5.92048L11.8383 5.91992Z" fill="#404A5A"></path>
    <path d="M11.8295 5.92578C11.8295 5.92578 11.8295 5.92745 11.8295 5.92801C11.8295 5.93024 11.8284 5.93136 11.8273 5.93191C11.8262 5.93247 11.8252 5.93247 11.823 5.93191C11.8224 5.93191 11.8213 5.93191 11.8208 5.9308C11.8241 5.92913 11.8268 5.92745 11.83 5.92578H11.8295Z" fill="#404A5A"></path>
    <path d="M14.1666 5.17553C13.9426 5.06654 13.7182 4.95805 13.4942 4.84857C13.4851 4.84411 13.476 4.84758 13.4679 4.84213C13.4602 4.84411 13.452 4.84609 13.4488 4.83519C13.4397 4.83965 13.4311 4.83519 13.4225 4.83173C13.2262 4.76732 13.0253 4.74751 12.8208 4.7589C12.5501 4.77426 12.2908 4.84659 12.0386 4.9531C11.9593 4.98629 11.8813 5.02295 11.8051 5.06208C11.7861 5.07199 11.767 5.0819 11.748 5.0923C11.7258 5.10419 11.7036 5.11608 11.6818 5.12896C11.6523 5.14531 11.6233 5.16215 11.5938 5.17949C11.441 5.27064 11.2927 5.3722 11.149 5.48119C11.1191 5.50398 11.0892 5.52676 11.0597 5.55005L11.042 5.56392C10.9713 5.62039 10.9019 5.67786 10.8339 5.73731C10.6634 5.88543 10.4997 6.04296 10.3414 6.20793C9.90207 6.66617 9.51167 7.17197 9.15437 7.70799C9.1453 7.72186 9.13623 7.73622 9.12716 7.75009C9.12716 7.75009 9.12626 7.75356 9.12535 7.75455C9.12444 7.75554 9.12308 7.75604 9.12127 7.75653C9.08908 7.80657 9.05734 7.85611 9.02514 7.90614C8.97164 7.98937 8.91904 8.0726 8.86735 8.15731C8.81838 8.23756 8.76986 8.31881 8.72225 8.40005C8.68416 8.46445 8.64698 8.52935 8.61025 8.59474C8.5776 8.6532 8.54496 8.71116 8.51276 8.76962C8.46742 8.85235 8.42253 8.93556 8.37809 9.01978C8.35588 9.06189 8.33411 9.1035 8.31235 9.14611C8.31008 9.15106 8.30691 9.15552 8.30419 9.16047C8.30419 9.16592 8.30237 9.17038 8.30056 9.17484C8.29874 9.17781 8.29693 9.18128 8.29557 9.18425C8.27517 9.22388 8.25521 9.26401 8.23526 9.30414C8.15999 9.45424 8.08654 9.60583 8.0158 9.75841C7.98588 9.82281 7.9564 9.88771 7.92738 9.95261C7.7705 10.3033 7.62494 10.6595 7.49118 11.0207C7.41999 11.2124 7.35243 11.4056 7.28804 11.5998C7.25404 11.7028 7.22048 11.8064 7.18829 11.9104C7.12889 12.1026 7.07448 12.2963 7.02143 12.4905C6.99966 12.5703 6.97835 12.6505 6.95795 12.7308C6.95749 12.7328 6.95704 12.7347 6.95659 12.7367C6.92439 12.8626 6.89446 12.9889 6.86635 13.1157C6.84051 13.2296 6.81557 13.3441 6.79244 13.459C6.77249 13.5571 6.75435 13.6557 6.73622 13.7543C6.73214 13.7775 6.72806 13.8008 6.72397 13.8246C6.72216 13.834 6.7208 13.8434 6.71899 13.8528C6.71853 13.8563 6.71763 13.8598 6.71717 13.8637C6.714 13.8826 6.71037 13.9009 6.7072 13.9197C6.68135 14.0738 6.65823 14.2284 6.63828 14.3839C6.61878 14.534 6.60155 14.6836 6.58704 14.8342C6.58386 14.8679 6.58114 14.9016 6.57797 14.9353C6.57797 14.9378 6.57752 14.9402 6.57752 14.9427C6.57525 14.9685 6.57389 14.9868 6.57207 15.0051C6.56573 15.0889 6.56029 15.1731 6.55575 15.2568C6.55122 15.341 6.54759 15.4252 6.54532 15.5094C6.54532 15.5203 6.54532 15.5312 6.54442 15.5421C6.53988 15.7041 6.53897 15.8656 6.54351 16.0271C6.54804 16.1797 6.55575 16.3318 6.5689 16.4839C6.5816 16.6355 6.59928 16.7866 6.62331 16.9377C6.6351 17.0115 6.6478 17.0848 6.66231 17.1576C6.71037 17.4033 6.77521 17.6441 6.86408 17.8769C6.87043 17.8933 6.87633 17.9091 6.88313 17.9255C6.88948 17.9413 6.89628 17.9577 6.90263 17.9735C6.91804 18.0112 6.93437 18.0483 6.95114 18.085C6.97926 18.1464 7.00918 18.2064 7.04092 18.2648C7.12798 18.4253 7.23046 18.5745 7.35198 18.7092C7.38372 18.7449 7.41682 18.7786 7.45083 18.8108C7.51476 18.8717 7.58277 18.9277 7.65532 18.9777C7.66893 18.9871 7.6848 18.9926 7.69477 19.0069C7.69613 19.0089 7.69749 19.0114 7.6984 19.0139C7.7052 19.0124 7.71019 19.0139 7.712 19.0218C7.74012 19.0292 7.76279 19.05 7.78863 19.0624C7.92648 19.1293 8.06387 19.1962 8.20171 19.263C8.28015 19.3012 8.35905 19.3383 8.43795 19.376L8.44792 19.3661C8.42253 19.3488 8.39623 19.3324 8.37175 19.3141C8.3459 19.2948 8.32142 19.2744 8.29693 19.2536C8.09153 19.0793 7.93056 18.8618 7.79861 18.6156C7.71835 18.466 7.65306 18.3089 7.59683 18.1474C7.59547 18.1435 7.59411 18.14 7.59275 18.136C7.51748 17.9176 7.46262 17.6927 7.42135 17.4638C7.39913 17.3414 7.38145 17.2181 7.36603 17.0942C7.36513 17.0853 7.36377 17.0769 7.36286 17.068C7.35561 17.007 7.34926 16.9456 7.34336 16.8847C7.33475 16.7945 7.3284 16.7048 7.32386 16.6142C7.32296 16.5919 7.3216 16.5696 7.32069 16.5473C7.32069 16.5418 7.32024 16.5359 7.31978 16.5305C7.3157 16.4056 7.31162 16.2808 7.31208 16.1559C7.31208 16.149 7.31208 16.1421 7.31208 16.1356C7.31208 16.1133 7.31208 16.091 7.31298 16.0687C7.3157 15.9707 7.31842 15.8731 7.32205 15.7755C7.32387 15.7264 7.32613 15.6779 7.32885 15.6288C7.33157 15.5798 7.33429 15.5312 7.33747 15.4822C7.34926 15.3113 7.36513 15.1414 7.38417 14.9714C7.39097 14.9095 7.39823 14.8481 7.40639 14.7862C7.415 14.7173 7.42453 14.6485 7.4345 14.5801C7.44221 14.5261 7.45037 14.4721 7.45899 14.4181C7.46851 14.3567 7.47894 14.2957 7.48937 14.2343C7.50252 14.157 7.51657 14.0802 7.53108 14.003C7.54786 13.9153 7.56509 13.8271 7.58323 13.7399C7.59955 13.6621 7.61633 13.5843 7.63401 13.5066C7.65351 13.4209 7.67346 13.3352 7.69432 13.25C7.69931 13.2301 7.70475 13.2103 7.71019 13.1905C7.71563 13.1707 7.72107 13.1509 7.72561 13.1311C7.73513 13.0894 7.74284 13.0478 7.75644 13.0072C7.75961 13.0028 7.7646 12.9983 7.76505 12.9933C7.77594 12.8953 7.80813 12.8036 7.83579 12.7115C7.84803 12.6703 7.85982 12.6287 7.87161 12.5871C7.88793 12.5292 7.90426 12.4712 7.92103 12.4132C7.93464 12.3657 7.94869 12.3181 7.96366 12.2711C7.96955 12.2527 7.97499 12.2339 7.98089 12.2151C7.9886 12.1913 7.9963 12.1675 8.00401 12.1437C8.03666 12.0447 8.0684 11.9451 8.1015 11.846C8.1151 11.8054 8.12916 11.7643 8.14322 11.7236C8.19173 11.5844 8.24161 11.4462 8.2933 11.309C8.30781 11.2699 8.32278 11.2312 8.33774 11.1926C8.34998 11.1614 8.36177 11.1307 8.37356 11.0994C8.40258 11.0261 8.43205 10.9528 8.46153 10.8795C8.48465 10.822 8.50823 10.7651 8.53226 10.7076C8.5504 10.6635 8.56899 10.6204 8.58758 10.5763C8.63746 10.4594 8.68824 10.3435 8.74129 10.228C8.75036 10.2077 8.76124 10.1884 8.77167 10.1691C8.7821 10.1498 8.79253 10.13 8.8016 10.1092C8.95577 9.75197 9.13669 9.41065 9.32305 9.07279C9.33982 9.04257 9.35615 9.01235 9.37292 8.98213C9.41192 8.91179 9.4491 8.84046 9.49308 8.77457C9.52073 8.73345 9.54613 8.69184 9.57152 8.64923C9.59691 8.60713 9.62185 8.56452 9.6477 8.52291C9.70029 8.43968 9.74926 8.35348 9.80141 8.26976C9.80821 8.25886 9.81501 8.24796 9.82181 8.23707C9.85673 8.18208 9.893 8.12808 9.92837 8.07359C9.92837 8.07309 9.92837 8.0726 9.92837 8.0721V8.07061C9.92837 8.07061 9.93109 8.06764 9.93245 8.06665C9.93336 8.06665 9.93426 8.06566 9.93517 8.06566C9.98641 7.99036 10.0376 7.91456 10.0889 7.83926C10.0912 7.8358 10.0939 7.83282 10.0961 7.82985C10.0975 7.82837 10.0984 7.82688 10.0993 7.82589C10.1025 7.82193 10.1057 7.81846 10.1088 7.81449C10.1088 7.81251 10.1088 7.81103 10.1088 7.80954C10.1088 7.80805 10.1088 7.80657 10.1093 7.80558C10.1102 7.80261 10.1111 7.80062 10.1125 7.79864C10.1138 7.79666 10.1161 7.79517 10.1179 7.79319C10.1202 7.79171 10.1224 7.79022 10.1247 7.78873C10.1261 7.78725 10.127 7.78576 10.1279 7.78428C10.1478 7.75703 10.1682 7.72978 10.1882 7.70254C10.1905 7.69956 10.1927 7.6961 10.195 7.69312C10.195 7.69114 10.1959 7.68966 10.1968 7.68767C10.1973 7.68619 10.1982 7.68421 10.1991 7.68272C10.2009 7.67975 10.2031 7.67678 10.2054 7.6743C10.2054 7.6738 10.2063 7.67331 10.2068 7.67281C10.2154 7.6639 10.2263 7.65646 10.2285 7.64309C10.2285 7.6421 10.2285 7.6416 10.2285 7.64061C10.2285 7.63813 10.2304 7.63615 10.2322 7.63516C10.2331 7.63516 10.234 7.63467 10.2349 7.63417C10.2408 7.62922 10.2462 7.62426 10.2508 7.61832C10.2521 7.61683 10.253 7.61535 10.2539 7.61436C10.2576 7.6099 10.2607 7.60494 10.2639 7.59999C10.268 7.59355 10.2721 7.58661 10.2762 7.57968C10.2793 7.57472 10.2825 7.56927 10.2857 7.56432C10.2879 7.56085 10.2902 7.55739 10.2925 7.55441C10.3079 7.53361 10.3238 7.5128 10.3392 7.49249C10.448 7.34734 10.56 7.20566 10.6752 7.06694C10.7654 6.95796 10.8588 6.85244 10.9531 6.74791C10.9694 6.72958 10.9862 6.71125 11.0026 6.69342C11.0334 6.65973 11.0656 6.62852 11.0973 6.59632C11.11 6.58344 11.1227 6.57105 11.135 6.55768C11.1377 6.5552 11.1399 6.55223 11.1427 6.54975C11.1821 6.50814 11.2225 6.46653 11.2624 6.42541C11.2633 6.42442 11.2642 6.42392 11.2651 6.42293C11.2755 6.41253 11.2873 6.40312 11.2982 6.3937C11.3009 6.39123 11.3032 6.38875 11.3059 6.38578C11.3068 6.38479 11.3073 6.38429 11.3082 6.3833C11.3204 6.36943 11.3331 6.35605 11.3453 6.34218C11.3472 6.33921 11.349 6.33723 11.3512 6.33574C11.3535 6.33426 11.3562 6.33327 11.3594 6.33327C11.363 6.33277 11.3662 6.33079 11.3689 6.32881C11.3707 6.32732 11.3726 6.32534 11.3744 6.32336C11.3757 6.32187 11.3766 6.31989 11.378 6.31791C11.3803 6.31494 11.383 6.31147 11.3852 6.3085C11.4174 6.27729 11.4496 6.24657 11.4827 6.21635C11.4877 6.21189 11.4927 6.20744 11.4977 6.20248C11.5294 6.17325 11.5616 6.14452 11.5943 6.11579C11.6673 6.05188 11.7426 5.98996 11.8192 5.9315C11.8219 5.93001 11.8242 5.92853 11.8269 5.92704H11.8273C11.8296 5.92357 11.8323 5.9206 11.8351 5.91813C11.8523 5.90425 11.87 5.88989 11.8872 5.87651C11.9221 5.84877 11.9579 5.82202 11.9933 5.79576C12.011 5.78288 12.0291 5.76951 12.0473 5.75712C12.0654 5.74424 12.0835 5.73136 12.1017 5.71898C12.1565 5.68133 12.2119 5.64467 12.2681 5.60949C12.3293 5.57085 12.3919 5.5337 12.4544 5.49803C12.6431 5.39202 12.838 5.30235 13.0421 5.23597C13.0575 5.23101 13.0734 5.22606 13.0888 5.22111C13.1976 5.18791 13.3069 5.16265 13.418 5.1463C13.481 5.13689 13.5449 5.13045 13.6089 5.12748C13.6569 5.125 13.705 5.1245 13.7535 5.12599C13.7698 5.12648 13.7857 5.12698 13.802 5.12797C13.8506 5.13094 13.8986 5.13639 13.9467 5.14382C14.0133 5.15373 14.0791 5.1676 14.1448 5.18593C14.1466 5.18544 14.148 5.18494 14.1498 5.18593C14.1516 5.18593 14.153 5.18742 14.1539 5.1889C14.1553 5.1894 14.1571 5.1899 14.1584 5.19039C14.1616 5.19138 14.1643 5.19237 14.1675 5.19386C14.1675 5.1889 14.168 5.18395 14.1684 5.179C14.1675 5.17801 14.1666 5.17702 14.1652 5.17652L14.1666 5.17553Z" fill="#F1ECE2"></path>
    <path d="M13.4496 4.83355C13.4464 4.81819 13.4328 4.8167 13.4228 4.81175C13.2297 4.71812 13.0365 4.62399 12.8424 4.53135C12.7907 4.50658 12.7409 4.47785 12.6873 4.45803C12.6815 4.462 12.6751 4.4615 12.6688 4.45902C12.5359 4.41147 12.3981 4.38769 12.2593 4.37828C12.1319 4.36985 12.004 4.37828 11.8775 4.39661C11.7732 4.41196 11.6708 4.43574 11.5692 4.46547C11.3719 4.52343 11.1824 4.6022 10.9997 4.70078C10.9294 4.73892 10.8614 4.78202 10.792 4.82215C10.7689 4.83553 10.7448 4.84742 10.7226 4.86178C10.524 4.99108 10.3313 5.13029 10.1486 5.28534C10.1028 5.32399 10.0561 5.36164 10.0135 5.40374C9.9858 5.43099 9.95904 5.45873 9.92912 5.48251C9.92368 5.48697 9.91778 5.49143 9.91098 5.49589C9.90599 5.50084 9.90101 5.5053 9.89602 5.50976V5.51075C9.89375 5.51719 9.89148 5.52313 9.88786 5.5266C9.88559 5.52858 9.88332 5.52957 9.8806 5.53007C9.87924 5.53007 9.87743 5.53007 9.87607 5.53007H9.87516C9.87516 5.53007 9.87244 5.52908 9.87062 5.52858C9.86926 5.52957 9.8679 5.53057 9.867 5.53156C9.85113 5.54394 9.84251 5.56524 9.828 5.57763C9.82574 5.57961 9.82347 5.5811 9.8212 5.58258C9.78311 5.60438 9.75999 5.64351 9.72598 5.67027C9.69333 5.69603 9.66613 5.73021 9.6362 5.76043C9.48792 5.90954 9.34781 6.06757 9.20906 6.22709C9.16644 6.27613 9.12835 6.32864 9.08754 6.37967C9.06396 6.40889 9.03766 6.43466 9.01454 6.46339C8.95151 6.54216 8.8903 6.62291 8.82818 6.70217C8.78193 6.76112 8.7384 6.82206 8.69713 6.88497C8.66449 6.93501 8.62549 6.97959 8.59058 7.02765C8.48493 7.17577 8.38472 7.32835 8.28451 7.48043C8.18566 7.63054 8.09498 7.78659 8.00112 7.94066C7.91678 8.07887 7.83924 8.22204 7.75898 8.36373C7.72951 8.41624 7.70321 8.47073 7.67328 8.52324C7.62205 8.6134 7.57444 8.70604 7.52955 8.80016C7.50143 8.83682 7.48466 8.88141 7.46334 8.92253C7.41891 9.00873 7.37629 9.09592 7.33774 9.18559C7.3255 9.21432 7.30782 9.2386 7.29512 9.26733C7.2593 9.34709 7.22303 9.42685 7.18539 9.50611C7.09153 9.70526 7.00901 9.90986 6.92331 10.1135C6.83035 10.3334 6.74783 10.5588 6.66621 10.7842C6.61089 10.9373 6.55512 11.0904 6.51114 11.2479C6.50388 11.2737 6.49028 11.297 6.48212 11.3222C6.43949 11.458 6.39687 11.5932 6.35652 11.7294C6.31888 11.8548 6.28351 11.9811 6.24951 12.1074C6.21686 12.2293 6.18557 12.3512 6.15565 12.4735C6.09715 12.7108 6.04365 12.9496 5.99785 13.1899C5.98606 13.2538 5.97427 13.3177 5.96294 13.3816C5.92394 13.5991 5.88948 13.818 5.86137 14.038C5.83507 14.247 5.81331 14.4566 5.79607 14.6666C5.79471 14.686 5.79335 14.7053 5.79199 14.7246C5.78383 14.8395 5.77748 14.955 5.7734 15.0709C5.76842 15.2031 5.76751 15.3354 5.7666 15.4677C5.7666 15.5306 5.7725 15.594 5.77204 15.6574C5.77114 15.754 5.77884 15.8501 5.78383 15.9462C5.78565 15.9814 5.78701 16.0171 5.79018 16.0527C5.79063 16.0587 5.79154 16.0651 5.79199 16.0711C5.80242 16.1637 5.80922 16.2568 5.82101 16.349C5.83235 16.4387 5.84369 16.5283 5.85865 16.617C5.88041 16.7408 5.90082 16.8647 5.93573 16.9851C5.94661 17.0227 5.95251 17.0624 5.96248 17.101C5.98334 17.1852 6.00828 17.2684 6.03549 17.3502C6.07494 17.4676 6.12028 17.5825 6.16925 17.6955C6.24497 17.8689 6.33883 18.0304 6.44902 18.18C6.55331 18.3221 6.67256 18.4475 6.80904 18.5525C6.81448 18.557 6.82038 18.5609 6.82627 18.5649C6.83625 18.5718 6.84622 18.5788 6.8562 18.5857C6.86164 18.5897 6.86753 18.5936 6.87343 18.5976C6.89247 18.6105 6.91106 18.6238 6.9292 18.6382C6.9292 18.6382 6.92965 18.6382 6.93011 18.6387C6.93555 18.6432 6.94099 18.6476 6.94643 18.6526C6.94643 18.6536 6.94734 18.6546 6.94779 18.6555C6.95097 18.6605 6.95731 18.661 6.9623 18.6635C7.19809 18.7774 7.43342 18.8914 7.6692 19.0053C7.67872 19.0098 7.68779 19.0167 7.69913 19.0137C7.69777 19.0112 7.69686 19.0093 7.6955 19.0068C7.68553 18.9924 7.66966 18.987 7.65605 18.9776C7.58396 18.9275 7.51549 18.8715 7.45156 18.8106C7.41755 18.7784 7.38445 18.7442 7.35271 18.7091C7.23119 18.5743 7.12871 18.4247 7.04165 18.2647C7.00991 18.2062 6.97999 18.1463 6.95187 18.0849C6.9351 18.0482 6.91877 18.011 6.90336 17.9734C6.89655 17.957 6.89021 17.9412 6.88386 17.9248C6.87751 17.9085 6.87116 17.8926 6.86481 17.8763C6.77594 17.6435 6.71155 17.4027 6.66304 17.157C6.64853 17.0842 6.63583 17.0108 6.62404 16.937C6.60046 16.7864 6.58278 16.6353 6.56963 16.4832C6.55648 16.3317 6.54877 16.1791 6.54424 16.0265C6.5397 15.865 6.54061 15.703 6.54514 15.5415C6.5456 15.5306 6.5456 15.5197 6.54605 15.5088C6.54877 15.4246 6.5524 15.3404 6.55648 15.2562C6.56101 15.1724 6.56646 15.0882 6.5728 15.0045C6.57416 14.9862 6.57598 14.9678 6.57825 14.9421C6.57825 14.9396 6.5787 14.9371 6.5787 14.9346C6.58142 14.901 6.58414 14.8673 6.58777 14.8336C6.60182 14.683 6.61951 14.5329 6.63901 14.3833C6.65941 14.2277 6.68253 14.0731 6.70793 13.9191C6.7111 13.9003 6.71473 13.8819 6.7179 13.8631C6.71836 13.8596 6.71926 13.8562 6.71972 13.8522C6.72153 13.8428 6.72289 13.8334 6.7247 13.824C6.72878 13.8002 6.73287 13.7769 6.73695 13.7536C6.75463 13.655 6.77322 13.5565 6.79317 13.4584C6.8163 13.3434 6.84124 13.229 6.86708 13.1151C6.89565 12.9882 6.92557 12.8619 6.95731 12.7361C6.95731 12.7341 6.95822 12.7321 6.95867 12.7301C6.97908 12.6499 7.00039 12.5696 7.02216 12.4899C7.07521 12.2957 7.13007 12.102 7.18902 11.9098C7.22121 11.8057 7.25477 11.7022 7.28877 11.5992C7.35316 11.4045 7.42072 11.2113 7.49191 11.02C7.62567 10.6589 7.77077 10.3027 7.92811 9.95196C7.95713 9.88707 7.98661 9.82217 8.01653 9.75777C8.08727 9.60519 8.16072 9.4536 8.23599 9.30349C8.25594 9.26337 8.27635 9.22324 8.2963 9.18361C8.29811 9.18064 8.29993 9.17717 8.30129 9.1742C8.30355 9.16974 8.30537 9.16528 8.30491 9.15983C8.30764 9.15488 8.31081 9.14992 8.31308 9.14546C8.33484 9.10335 8.35661 9.06125 8.37882 9.01914C8.42326 8.93542 8.4677 8.85218 8.51349 8.76896C8.54569 8.7105 8.57833 8.65204 8.61098 8.59408C8.64771 8.52869 8.68489 8.46379 8.72298 8.39939C8.77059 8.31815 8.81911 8.2369 8.86808 8.15665C8.91977 8.07194 8.97237 7.98871 9.02587 7.90549C9.05761 7.85545 9.08981 7.80591 9.122 7.75588C9.122 7.75489 9.122 7.75389 9.122 7.7529C9.122 7.7524 9.12245 7.75142 9.12291 7.75092C9.12381 7.74944 9.12563 7.74894 9.12744 7.74894C9.13651 7.73507 9.14512 7.7207 9.15465 7.70683C9.51196 7.17082 9.90237 6.66551 10.3417 6.20678C10.5 6.04181 10.6632 5.88428 10.8342 5.73615C10.9022 5.67671 10.9716 5.61924 11.0423 5.56277L11.06 5.54889C11.0895 5.52561 11.1194 5.50282 11.1493 5.48003C11.2935 5.37105 11.4413 5.26949 11.5941 5.17834C11.6231 5.161 11.6526 5.14416 11.6821 5.12781C11.7043 5.11542 11.7261 5.10304 11.7483 5.09115C11.7673 5.08075 11.7864 5.07084 11.8054 5.06093C11.8821 5.0218 11.9596 4.98514 12.0389 4.95194C12.291 4.84593 12.5504 4.7736 12.8211 4.75775C13.0252 4.74586 13.226 4.76568 13.4228 4.83057C13.4314 4.83355 13.44 4.838 13.4491 4.83404L13.4496 4.83355Z" fill="#FDBF41"></path>
    <path d="M9.12291 7.74857C9.12291 7.74857 9.12653 7.74609 9.12895 7.74609C9.12895 7.74857 9.12774 7.75043 9.12653 7.75167C9.12532 7.75291 9.12351 7.75353 9.12109 7.75415C9.12109 7.75291 9.12109 7.75167 9.12109 7.75043C9.12109 7.74981 9.1217 7.74857 9.1223 7.74795L9.12291 7.74857Z" fill="#C18B00"></path>
    <path d="M9.87462 5.51376C9.87734 5.51029 9.88051 5.50831 9.88505 5.50781C9.88777 5.50781 9.89139 5.50781 9.89502 5.5088V5.50979C9.89275 5.51623 9.89049 5.52218 9.88686 5.52565C9.88459 5.52763 9.88233 5.52862 9.8796 5.52911C9.87824 5.52911 9.87643 5.52911 9.87507 5.52911H9.87416C9.87416 5.52911 9.87144 5.52812 9.86963 5.52763C9.87054 5.52168 9.87235 5.51673 9.87507 5.51376H9.87462Z" fill="#C18B00"></path>
    <path d="M12.6444 4.43974C12.469 4.35404 12.293 4.27081 12.1185 4.18412C11.9185 4.08454 11.7108 4.02311 11.4909 4.01172C11.4356 4.01172 11.3798 4.01172 11.3245 4.01221C11.3027 4.01221 11.281 4.01221 11.2597 4.01221C11.149 4.01865 11.0397 4.03649 10.9314 4.06175C10.6117 4.13606 10.3143 4.27279 10.029 4.4442C9.74202 4.6166 9.47541 4.82268 9.22194 5.04858C9.18975 5.07731 9.15484 5.10357 9.12672 5.13825C9.12446 5.13924 9.12219 5.14122 9.12083 5.1437V5.14667C9.12083 5.14667 9.11992 5.14667 9.11947 5.14667C9.11856 5.14667 9.11811 5.14667 9.11811 5.14667C9.11085 5.15311 9.1036 5.15905 9.09634 5.16549C8.81567 5.42805 8.55495 5.7129 8.30828 6.01361C8.01536 6.37128 7.74512 6.74877 7.49255 7.14113C7.11621 7.72569 6.78293 8.33899 6.48593 8.97556C6.28552 9.40457 6.10324 9.843 5.9391 10.2903C5.76815 10.757 5.61126 11.2296 5.48521 11.7136C5.47115 11.7671 5.45392 11.8201 5.43987 11.8736C5.33648 12.2724 5.24716 12.6747 5.17688 13.0819C5.11702 13.4272 5.06941 13.774 5.03813 14.1237C5.015 14.3773 4.99913 14.6315 5.00004 14.8866C5.00004 15.0025 5.00049 15.1185 5.00094 15.2344C5.0023 15.2502 5.00276 15.2661 5.00321 15.2819C5.00366 15.3067 5.00321 15.331 5.0023 15.3557C5.00321 15.4969 5.01409 15.6371 5.02634 15.7778C5.04674 16.0072 5.07848 16.2341 5.12518 16.4585C5.18322 16.7399 5.26257 17.0128 5.37548 17.2739C5.49655 17.5533 5.65026 17.8075 5.85793 18.02C5.979 18.1438 6.11231 18.2484 6.26239 18.3251C6.3957 18.3935 6.53082 18.4574 6.66595 18.5223C6.75845 18.5669 6.85004 18.6149 6.94435 18.6546C6.93891 18.6501 6.93347 18.6452 6.92803 18.6407C6.92803 18.6407 6.92758 18.6407 6.92712 18.6402C6.90899 18.6258 6.8904 18.6125 6.87135 18.5996C6.86546 18.5956 6.86002 18.5917 6.85412 18.5877C6.84415 18.5808 6.83417 18.5743 6.82419 18.5669C6.8183 18.5629 6.81286 18.5585 6.80696 18.5545C6.67048 18.449 6.55168 18.3241 6.44694 18.182C6.33676 18.0324 6.24289 17.8709 6.16717 17.6975C6.11775 17.5845 6.0724 17.4696 6.03341 17.3522C6.0062 17.2704 5.98126 17.1872 5.96041 17.103C5.95088 17.0649 5.94454 17.0252 5.93365 16.9871C5.89874 16.8667 5.87788 16.7428 5.85657 16.619C5.84115 16.5303 5.83027 16.4407 5.81894 16.351C5.80715 16.2588 5.79989 16.1657 5.78992 16.0731C5.78946 16.0671 5.78856 16.0607 5.7881 16.0547C5.78493 16.0196 5.78357 15.9839 5.78175 15.9482C5.77722 15.8521 5.76951 15.756 5.76997 15.6594C5.76997 15.5965 5.76407 15.5331 5.76452 15.4697C5.76543 15.3374 5.76679 15.2051 5.77133 15.0729C5.77541 14.9574 5.78175 14.842 5.78992 14.7266C5.79128 14.7073 5.79264 14.688 5.794 14.6686C5.81123 14.4586 5.83299 14.249 5.85929 14.04C5.8874 13.82 5.92186 13.6011 5.96086 13.3836C5.9722 13.3197 5.98399 13.2558 5.99577 13.1919C6.04112 12.9511 6.09508 12.7128 6.15357 12.4755C6.1835 12.3532 6.21478 12.2308 6.24743 12.1094C6.28144 11.9826 6.3168 11.8568 6.35444 11.7314C6.39525 11.5952 6.43787 11.4595 6.48004 11.3242C6.48775 11.2985 6.5018 11.2752 6.50906 11.2499C6.5535 11.0924 6.60881 10.9393 6.66413 10.7862C6.74575 10.5608 6.82828 10.3359 6.92123 10.1155C7.00693 9.91235 7.08945 9.70726 7.18331 9.50811C7.22049 9.42885 7.25722 9.34909 7.29304 9.26933C7.30574 9.24109 7.32388 9.21632 7.33567 9.18759C7.37421 9.09792 7.41683 9.01073 7.46127 8.92454C7.48258 8.88343 7.49936 8.83884 7.52747 8.80218C7.57236 8.70806 7.61997 8.61542 7.67121 8.52526C7.70113 8.47324 7.72743 8.41825 7.7569 8.36574C7.83671 8.22406 7.91425 8.08138 7.99904 7.94267C8.0929 7.78861 8.18358 7.63256 8.28243 7.48245C8.38264 7.33037 8.48285 7.17778 8.5885 7.02966C8.62296 6.98111 8.66196 6.93702 8.69506 6.88699C8.73632 6.82407 8.77985 6.76314 8.8261 6.70419C8.88822 6.62443 8.94943 6.54368 9.01246 6.46541C9.03558 6.43667 9.06188 6.41091 9.08546 6.38169C9.12627 6.33116 9.16436 6.27815 9.20698 6.2291C9.34573 6.06959 9.48584 5.91156 9.6341 5.76244C9.66403 5.73222 9.69124 5.69804 9.72388 5.67228C9.75789 5.64553 9.78056 5.60639 9.8191 5.5846C9.82137 5.58311 9.82409 5.58162 9.82591 5.57964C9.84042 5.56726 9.84903 5.54596 9.8649 5.53357C9.86626 5.53258 9.86762 5.53159 9.86853 5.5306C9.86944 5.52465 9.87125 5.5197 9.87397 5.51673C9.87669 5.51326 9.87986 5.51128 9.8844 5.51078C9.88712 5.51078 9.89075 5.51078 9.89437 5.51177C9.89936 5.50731 9.90435 5.50236 9.90934 5.4979C9.91614 5.49295 9.92158 5.48898 9.92748 5.48453C9.9574 5.46075 9.98415 5.4335 10.0118 5.40576C10.0544 5.36315 10.1016 5.326 10.1469 5.28736C10.3297 5.1323 10.5224 4.9931 10.721 4.8638C10.7437 4.84943 10.7672 4.83754 10.7904 4.82417C10.8597 4.78354 10.9277 4.74044 10.998 4.70279C11.1808 4.60421 11.3707 4.52544 11.5675 4.46748C11.6691 4.43776 11.7716 4.41447 11.8759 4.39862C12.0024 4.3798 12.1302 4.37187 12.2577 4.38029C12.3969 4.3897 12.5343 4.41348 12.6671 4.46104C12.6739 4.46352 12.6798 4.46401 12.6857 4.46005C12.6744 4.44668 12.6571 4.44667 12.6431 4.43974H12.6444Z" fill="#FF1100"></path>
    <path d="M9.88027 5.45982C9.88027 5.45982 9.87755 5.45759 9.87646 5.45703C9.8781 5.45815 9.87918 5.4587 9.88027 5.45982Z" fill="#FF1100"></path>
    <path d="M11.4908 4.00836H11.3244C11.3026 4.00929 11.2808 4.00929 11.2595 4.00929C11.2586 4.0065 11.2573 4.00372 11.2563 4.00093C11.3352 4.00093 11.4146 4.00093 11.4935 4C11.4926 4.00279 11.4917 4.00558 11.4908 4.00836Z" fill="#FEC35E"></path>
    <path d="M9.1198 5.14592H9.11816V5.14258H9.12197V5.14648C9.12197 5.14648 9.12088 5.14648 9.12034 5.14648L9.1198 5.14592Z" fill="#C18B00"></path>
    <path opacity="0.48" d="M18.7396 16.3651C18.7623 16.3458 18.7623 16.3438 18.7396 16.3245C18.687 16.2784 18.6308 16.2383 18.5732 16.2002C18.3809 16.0728 18.1755 15.9757 17.9651 15.8915C17.9171 15.8722 17.8704 15.8489 17.8191 15.839C17.8051 15.8217 17.7842 15.8202 17.7661 15.8138C17.5697 15.7424 17.3698 15.684 17.1693 15.628C17.1526 15.6265 17.1362 15.6225 17.1217 15.6136C17.0279 15.5913 16.934 15.5685 16.8406 15.5462C16.6669 15.5051 16.4924 15.4695 16.3174 15.4373C16.1877 15.4135 16.0575 15.3912 15.9274 15.3699C15.8258 15.3535 15.7243 15.3367 15.6218 15.3288C15.605 15.3258 15.5882 15.3223 15.571 15.3198C15.2123 15.2718 14.8532 15.2356 14.4927 15.2084C14.2574 15.191 14.0221 15.1772 13.7863 15.1673C13.4784 15.1544 13.1701 15.1484 12.8617 15.1484C12.4795 15.1484 12.0977 15.1588 11.7164 15.1792C11.2756 15.2024 10.8358 15.2391 10.3973 15.2926C10.3257 15.3015 10.2531 15.3065 10.1824 15.3233C10.1679 15.3189 10.1538 15.3233 10.1393 15.3248C9.82692 15.3669 9.51587 15.4189 9.20664 15.4828C9.0239 15.5205 8.84208 15.5621 8.66161 15.6092L8.65798 15.6156C8.65798 15.6156 8.61128 16.3498 8.71466 17.0666C8.89286 17.1127 9.07197 17.1538 9.25153 17.1905C9.41204 17.2231 9.573 17.2544 9.73488 17.2796C9.96159 17.3153 10.1888 17.3515 10.4168 17.3772C10.6386 17.4025 10.8598 17.4287 11.082 17.4466C11.2135 17.457 11.3446 17.4694 11.4761 17.4778C11.6706 17.4902 11.8656 17.5006 12.0601 17.508C12.2378 17.5149 12.4156 17.5204 12.5933 17.5229C12.8776 17.5268 13.1624 17.5253 13.4467 17.5189C13.7205 17.5125 13.9944 17.5011 14.2678 17.4842C14.5939 17.4644 14.9194 17.4362 15.2445 17.3995C15.7401 17.3435 16.233 17.2682 16.7214 17.1617C17.148 17.0686 17.5697 16.9546 17.9787 16.7902C18.1569 16.7188 18.3315 16.6371 18.4975 16.536C18.5818 16.485 18.6634 16.4295 18.7396 16.3646V16.3651Z" fill="url(#paint0_linear_7311_351)"></path>
  </g>
  <defs>
    <linearGradient id="paint0_linear_7311_351" x1="13.7243" y1="15.4214" x2="13.6492" y2="17.1979" gradientUnits="userSpaceOnUse">
      <stop offset="0.16" stop-color="#191919"></stop>
      <stop offset="0.97" stop-color="#191919" stop-opacity="0"></stop>
    </linearGradient>
    <clipPath id="clip0_7311_351">
      <rect width="25" height="25" fill="white"></rect>
    </clipPath>
  </defs>
</svg>
