<svg width="1003" height="1003" viewBox="0 0 1003 1003" fill="none" xmlns="http://www.w3.org/2000/svg">
<rect width="1003" height="1003" rx="501.5" fill="#002868"/>
<path d="M555.595 540.711L501 594.025L446.405 540.711L406.023 501.305V580.117L501 672.837L595.977 580.117V501.305L555.595 540.711Z" fill="#FFE600"/>
<path d="M806 671.556V515.274L543.517 325.991L595.916 274.812V196L555.534 235.406L501 288.72L446.405 235.406L406.023 196V274.812L458.422 325.991L196 515.274V671.556L444.026 424.994V488.678L501 544.31L557.974 488.678V424.994L806 671.556ZM451.712 417.43L501 369.301L550.288 417.43L501 465.498L451.712 417.43Z" fill="white"/>
<path d="M500.999 727.188L446.404 673.874L444.025 671.556V750.368L500.999 806L557.973 750.368V671.556L555.594 673.874L500.999 727.188Z" fill="white"/>
</svg>
